<?xml version="1.0" encoding="UTF-8"?>
<svg xmlns="http://www.w3.org/2000/svg" xmlns:xlink="http://www.w3.org/1999/xlink" width="1920" height="1080" viewBox="0 0 1920 1080">
<defs>
<g>
<g id="glyph-0-0">
<path d="M 5.359375 -5.546875 C 4.40625 -5.265625 2.625 -5.109375 1.125 -5.03125 L 1.125 -3.25 C 1.125 -2.21875 1.0625 -0.765625 0.359375 0.265625 C 0.5 0.3125 0.703125 0.453125 0.796875 0.546875 C 1.5 -0.46875 1.625 -1.984375 1.640625 -3.078125 L 2.09375 -3.078125 C 2.390625 -2.203125 2.828125 -1.46875 3.40625 -0.890625 C 2.828125 -0.453125 2.140625 -0.140625 1.421875 0.046875 C 1.53125 0.15625 1.65625 0.359375 1.71875 0.5 C 2.46875 0.28125 3.1875 -0.0625 3.796875 -0.546875 C 4.390625 -0.09375 5.09375 0.25 5.9375 0.46875 C 6 0.328125 6.140625 0.140625 6.25 0.03125 C 5.4375 -0.140625 4.75 -0.453125 4.1875 -0.875 C 4.859375 -1.515625 5.390625 -2.359375 5.6875 -3.453125 L 5.34375 -3.59375 L 5.25 -3.5625 L 1.640625 -3.5625 L 1.640625 -4.609375 C 3.09375 -4.671875 4.703125 -4.84375 5.78125 -5.140625 Z M 5.03125 -3.078125 C 4.75 -2.328125 4.328125 -1.703125 3.796875 -1.21875 C 3.265625 -1.71875 2.859375 -2.34375 2.59375 -3.078125 Z "/>
</g>
<g id="glyph-0-1">
<path d="M 2.734375 -1.046875 L 2.734375 -0.09375 C 2.734375 0.359375 2.890625 0.484375 3.484375 0.484375 C 3.609375 0.484375 4.4375 0.484375 4.5625 0.484375 C 5.03125 0.484375 5.171875 0.328125 5.21875 -0.34375 C 5.109375 -0.359375 4.90625 -0.4375 4.8125 -0.5 C 4.796875 0 4.75 0.0625 4.53125 0.0625 C 4.34375 0.0625 3.671875 0.0625 3.53125 0.0625 C 3.25 0.0625 3.203125 0.046875 3.203125 -0.109375 L 3.203125 -1.046875 Z M 3.328125 -1.234375 C 3.71875 -1.046875 4.1875 -0.765625 4.421875 -0.546875 L 4.734375 -0.859375 C 4.484375 -1.0625 4 -1.34375 3.609375 -1.515625 Z M 5.015625 -0.953125 C 5.390625 -0.546875 5.796875 0 5.953125 0.359375 L 6.359375 0.140625 C 6.1875 -0.21875 5.765625 -0.75 5.390625 -1.140625 Z M 1.9375 -1.0625 C 1.796875 -0.640625 1.53125 -0.15625 1.171875 0.125 L 1.546875 0.375 C 1.953125 0.0625 2.1875 -0.453125 2.34375 -0.90625 Z M 4.546875 -3.015625 L 4.546875 -2.65625 L 3.515625 -2.65625 L 3.515625 -3.015625 Z M 4.28125 -4.5 C 4.40625 -4.359375 4.53125 -4.15625 4.625 -4.015625 L 3.609375 -4.015625 C 3.703125 -4.171875 3.796875 -4.34375 3.859375 -4.5 L 3.4375 -4.625 C 3.203125 -4.046875 2.796875 -3.46875 2.375 -3.078125 L 2.375 -3.765625 C 2.53125 -4 2.671875 -4.25 2.796875 -4.484375 L 2.375 -4.609375 C 2.09375 -4.03125 1.65625 -3.453125 1.1875 -3.046875 L 1.1875 -4.65625 L 6.359375 -4.65625 L 6.359375 -5.078125 L 3.9375 -5.078125 C 3.84375 -5.296875 3.6875 -5.53125 3.53125 -5.734375 L 3.09375 -5.578125 C 3.203125 -5.4375 3.3125 -5.25 3.40625 -5.078125 L 0.734375 -5.078125 L 0.734375 -3.078125 C 0.734375 -2.09375 0.6875 -0.734375 0.1875 0.25 C 0.296875 0.296875 0.5 0.453125 0.578125 0.546875 C 1.078125 -0.4375 1.1875 -1.875 1.1875 -2.90625 C 1.28125 -2.828125 1.375 -2.71875 1.4375 -2.65625 C 1.59375 -2.8125 1.78125 -2.984375 1.9375 -3.1875 L 1.9375 -1.421875 L 2.375 -1.421875 L 2.375 -3.0625 C 2.46875 -3 2.640625 -2.875 2.71875 -2.78125 C 2.84375 -2.90625 2.96875 -3.046875 3.078125 -3.203125 L 3.078125 -1.4375 L 3.515625 -1.4375 L 3.515625 -1.640625 L 6.25 -1.640625 L 6.25 -1.96875 L 4.984375 -1.96875 L 4.984375 -2.359375 L 5.96875 -2.359375 L 5.96875 -2.65625 L 4.984375 -2.65625 L 4.984375 -3.015625 L 5.953125 -3.015625 L 5.953125 -3.3125 L 4.984375 -3.3125 L 4.984375 -3.671875 L 6.125 -3.671875 L 6.125 -4.015625 L 4.890625 -4.015625 L 5.046875 -4.09375 C 4.96875 -4.25 4.796875 -4.484375 4.625 -4.65625 Z M 4.546875 -3.3125 L 3.515625 -3.3125 L 3.515625 -3.671875 L 4.546875 -3.671875 Z M 4.546875 -2.359375 L 4.546875 -1.96875 L 3.515625 -1.96875 L 3.515625 -2.359375 Z "/>
</g>
</g>
</defs>
<g fill="rgb(95.686275%, 56.078431%, 69.411765%)" fill-opacity="1">
<use xlink:href="#glyph-0-0" x="30" y="27.733398"/>
<use xlink:href="#glyph-0-1" x="37" y="27.733398"/>
</g>
</svg>
