<?xml version="1.0" encoding="UTF-8"?>
<svg xmlns="http://www.w3.org/2000/svg" xmlns:xlink="http://www.w3.org/1999/xlink" width="1920" height="1080" viewBox="0 0 1920 1080">
<defs>
<g>
<g id="glyph-0-0">
<path d="M 1.351562 -2.359375 L 1.351562 0.660156 C 1.351562 0.734375 1.339844 0.789062 1.316406 0.820312 C 1.292969 0.851562 1.226562 0.894531 1.121094 0.953125 C 1.015625 1.011719 0.945312 1.039062 0.910156 1.039062 C 0.875 1.039062 0.859375 0.996094 0.859375 0.914062 L 0.898438 0.171875 C 0.914062 -0.148438 0.921875 -0.445312 0.921875 -0.726562 L 0.921875 -3.738281 C 0.921875 -4.085938 0.910156 -4.457031 0.894531 -4.847656 L 1.394531 -4.507812 L 2.488281 -4.507812 L 2.671875 -4.761719 L 3.09375 -4.488281 C 3.132812 -4.460938 3.152344 -4.433594 3.152344 -4.410156 C 3.152344 -4.386719 3.132812 -4.359375 3.09375 -4.332031 L 2.96875 -4.234375 L 2.96875 -3.148438 L 2.988281 -2.375 C 2.988281 -2.316406 2.976562 -2.273438 2.953125 -2.246094 C 2.929688 -2.21875 2.875 -2.1875 2.78125 -2.152344 C 2.6875 -2.117188 2.621094 -2.101562 2.585938 -2.101562 C 2.550781 -2.101562 2.535156 -2.125 2.535156 -2.179688 L 2.535156 -2.359375 Z M 1.351562 -4.320312 L 1.351562 -3.535156 L 2.535156 -3.535156 L 2.535156 -4.320312 Z M 1.351562 -3.347656 L 1.351562 -2.546875 L 2.535156 -2.546875 L 2.535156 -3.347656 Z M 4.246094 -4.519531 L 5.332031 -4.519531 L 5.519531 -4.820312 L 5.988281 -4.519531 C 6.027344 -4.503906 6.046875 -4.480469 6.046875 -4.453125 C 6.046875 -4.425781 6.019531 -4.398438 5.96875 -4.367188 L 5.847656 -4.308594 L 5.847656 0.152344 C 5.847656 0.339844 5.820312 0.488281 5.765625 0.597656 C 5.714844 0.707031 5.617188 0.800781 5.476562 0.878906 C 5.335938 0.960938 5.246094 1 5.203125 1 C 5.160156 1 5.136719 0.96875 5.125 0.90625 C 5.105469 0.777344 5.042969 0.675781 4.945312 0.601562 C 4.84375 0.53125 4.652344 0.449219 4.367188 0.359375 L 4.375 0.261719 C 4.679688 0.3125 4.898438 0.339844 5.03125 0.339844 C 5.160156 0.339844 5.257812 0.320312 5.316406 0.285156 C 5.375 0.246094 5.40625 0.15625 5.40625 0.0117188 L 5.40625 -2.421875 L 4.171875 -2.421875 C 4.171875 -2.3125 4.121094 -2.230469 4.011719 -2.171875 C 3.90625 -2.113281 3.832031 -2.085938 3.792969 -2.085938 C 3.753906 -2.085938 3.734375 -2.125 3.734375 -2.207031 L 3.753906 -2.894531 L 3.753906 -4.171875 C 3.753906 -4.351562 3.746094 -4.558594 3.734375 -4.792969 Z M 5.40625 -3.566406 L 5.40625 -4.332031 L 4.171875 -4.332031 L 4.171875 -3.566406 Z M 5.40625 -2.605469 L 5.40625 -3.378906 L 4.171875 -3.378906 L 4.171875 -2.605469 Z "/>
</g>
<g id="glyph-0-1">
<rect x="0" y="0" width="0" height="0" mask="url(#mask-0)"/>
</g>
<g id="glyph-0-2">
<path d="M 2.839844 -0.378906 C 2.519531 -0.394531 2.074219 -0.398438 1.5 -0.398438 C 0.914062 -0.398438 0.464844 -0.394531 0.152344 -0.378906 C 0.199219 -0.476562 0.242188 -0.566406 0.289062 -0.648438 C 0.335938 -0.730469 0.398438 -0.816406 0.46875 -0.90625 C 0.542969 -0.996094 0.632812 -1.097656 0.742188 -1.214844 C 0.851562 -1.328125 0.992188 -1.472656 1.160156 -1.648438 L 1.3125 -1.808594 C 1.628906 -2.121094 1.863281 -2.414062 2.019531 -2.675781 C 2.175781 -2.941406 2.253906 -3.195312 2.253906 -3.433594 C 2.253906 -3.699219 2.179688 -3.90625 2.027344 -4.054688 C 1.875 -4.199219 1.6875 -4.273438 1.460938 -4.273438 C 1.234375 -4.273438 1.03125 -4.199219 0.855469 -4.046875 C 0.679688 -3.894531 0.558594 -3.679688 0.492188 -3.398438 L 0.332031 -3.433594 C 0.402344 -3.8125 0.550781 -4.105469 0.773438 -4.316406 C 0.996094 -4.527344 1.277344 -4.632812 1.613281 -4.632812 C 1.773438 -4.632812 1.921875 -4.605469 2.0625 -4.550781 C 2.203125 -4.496094 2.328125 -4.417969 2.433594 -4.316406 C 2.539062 -4.214844 2.625 -4.101562 2.6875 -3.96875 C 2.75 -3.835938 2.78125 -3.691406 2.78125 -3.539062 C 2.78125 -3.398438 2.757812 -3.265625 2.71875 -3.144531 C 2.675781 -3.023438 2.609375 -2.898438 2.527344 -2.78125 C 2.441406 -2.660156 2.339844 -2.535156 2.214844 -2.40625 C 2.09375 -2.277344 1.953125 -2.136719 1.785156 -1.980469 L 1.5 -1.707031 C 1.265625 -1.503906 0.988281 -1.195312 0.667969 -0.785156 L 2.21875 -0.785156 C 2.3125 -0.785156 2.386719 -0.792969 2.445312 -0.808594 C 2.5 -0.820312 2.546875 -0.84375 2.585938 -0.882812 C 2.625 -0.921875 2.664062 -0.972656 2.695312 -1.035156 C 2.726562 -1.097656 2.757812 -1.179688 2.792969 -1.28125 L 2.941406 -1.28125 Z "/>
</g>
</g>
<image id="source-24" x="0" y="0" width="0" height="0"/>
<mask id="mask-0">
<use xlink:href="#source-24"/>
</mask>
</defs>
<g fill="rgb(87.843137%, 87.843137%, 87.843137%)" fill-opacity="1">
<use xlink:href="#glyph-0-0" x="30" y="27.067383"/>
<use xlink:href="#glyph-0-1" x="37" y="27.067383"/>
<use xlink:href="#glyph-0-2" x="39" y="27.067383"/>
</g>
</svg>
