<?xml version="1.0" encoding="UTF-8"?>
<svg xmlns="http://www.w3.org/2000/svg" xmlns:xlink="http://www.w3.org/1999/xlink" width="1920" height="1080" viewBox="0 0 1920 1080">
<defs>
<g>
<g id="glyph-0-0">
<path d="M 0.398438 -2.390625 C 0.398438 -2.632812 0.484375 -2.839844 0.65625 -3.011719 C 0.832031 -3.183594 1.039062 -3.273438 1.277344 -3.273438 C 1.519531 -3.273438 1.726562 -3.183594 1.902344 -3.011719 C 2.078125 -2.839844 2.167969 -2.628906 2.167969 -2.386719 C 2.167969 -2.144531 2.082031 -1.9375 1.90625 -1.761719 C 1.734375 -1.589844 1.523438 -1.503906 1.277344 -1.503906 C 1.03125 -1.503906 0.824219 -1.589844 0.652344 -1.761719 C 0.480469 -1.933594 0.398438 -2.144531 0.398438 -2.390625 Z "/>
</g>
<g id="glyph-0-1">
<rect x="0" y="0" width="0" height="0" mask="url(#mask-0)"/>
</g>
<g id="glyph-0-2">
<path d="M 6.507812 -4.585938 C 6.484375 -4.417969 6.464844 -4.273438 6.453125 -4.15625 C 6.441406 -4.039062 6.425781 -3.917969 6.40625 -3.792969 C 6.371094 -3.609375 6.308594 -3.464844 6.21875 -3.363281 C 6.128906 -3.257812 5.972656 -3.167969 5.75 -3.089844 C 5.703125 -3.078125 5.667969 -3.074219 5.652344 -3.082031 C 5.636719 -3.089844 5.625 -3.117188 5.621094 -3.164062 C 5.609375 -3.230469 5.550781 -3.308594 5.441406 -3.402344 C 5.332031 -3.492188 5.183594 -3.574219 4.992188 -3.640625 L 5.019531 -3.753906 C 5.21875 -3.714844 5.375 -3.691406 5.488281 -3.671875 C 5.605469 -3.65625 5.695312 -3.65625 5.761719 -3.675781 C 5.824219 -3.695312 5.871094 -3.730469 5.898438 -3.785156 C 5.925781 -3.835938 5.949219 -3.914062 5.972656 -4.007812 C 5.984375 -4.046875 5.992188 -4.117188 6.003906 -4.222656 C 6.011719 -4.324219 6.027344 -4.488281 6.050781 -4.710938 L 5 -4.710938 C 4.960938 -4.453125 4.914062 -4.234375 4.859375 -4.046875 C 4.808594 -3.863281 4.734375 -3.699219 4.644531 -3.554688 C 4.554688 -3.410156 4.4375 -3.277344 4.300781 -3.160156 C 4.164062 -3.042969 3.992188 -2.917969 3.785156 -2.789062 L 3.71875 -2.890625 C 3.855469 -3.042969 3.96875 -3.1875 4.066406 -3.324219 C 4.164062 -3.460938 4.242188 -3.601562 4.308594 -3.746094 C 4.375 -3.886719 4.425781 -4.035156 4.460938 -4.191406 C 4.496094 -4.347656 4.523438 -4.519531 4.542969 -4.710938 L 4.183594 -4.710938 C 4.070312 -4.710938 3.980469 -4.703125 3.910156 -4.691406 C 3.839844 -4.679688 3.773438 -4.660156 3.707031 -4.628906 L 3.453125 -4.949219 C 3.5625 -4.929688 3.664062 -4.917969 3.753906 -4.910156 C 3.84375 -4.90625 3.9375 -4.902344 4.039062 -4.902344 L 5.957031 -4.902344 L 6.21875 -5.207031 L 6.6875 -4.832031 C 6.773438 -4.757812 6.773438 -4.707031 6.6875 -4.671875 Z M 3.742188 -3.632812 C 3.78125 -3.597656 3.796875 -3.574219 3.792969 -3.554688 C 3.789062 -3.535156 3.761719 -3.511719 3.71875 -3.480469 L 3.617188 -3.429688 L 3.617188 0.152344 C 3.617188 0.234375 3.613281 0.304688 3.601562 0.359375 C 3.589844 0.417969 3.566406 0.472656 3.539062 0.527344 C 3.511719 0.582031 3.46875 0.632812 3.421875 0.683594 C 3.371094 0.734375 3.304688 0.792969 3.230469 0.859375 C 3.175781 0.898438 3.132812 0.910156 3.097656 0.898438 C 3.066406 0.886719 3.042969 0.855469 3.035156 0.800781 C 3.019531 0.707031 2.972656 0.613281 2.890625 0.53125 C 2.808594 0.445312 2.695312 0.382812 2.550781 0.339844 L 2.5625 0.214844 C 2.699219 0.230469 2.804688 0.238281 2.882812 0.242188 C 2.960938 0.246094 3.015625 0.238281 3.054688 0.222656 C 3.09375 0.210938 3.117188 0.183594 3.132812 0.148438 C 3.144531 0.113281 3.148438 0.0664062 3.148438 0.0078125 L 3.148438 -1.15625 L 1.402344 -1.15625 C 1.386719 -0.886719 1.355469 -0.644531 1.308594 -0.433594 C 1.257812 -0.222656 1.191406 -0.0273438 1.105469 0.152344 C 1.019531 0.328125 0.910156 0.492188 0.785156 0.640625 C 0.65625 0.785156 0.503906 0.925781 0.332031 1.0625 L 0.238281 1.011719 C 0.378906 0.8125 0.492188 0.636719 0.582031 0.480469 C 0.671875 0.324219 0.742188 0.167969 0.789062 0.015625 C 0.839844 -0.140625 0.878906 -0.304688 0.902344 -0.484375 C 0.925781 -0.664062 0.945312 -0.871094 0.953125 -1.113281 C 0.96875 -1.449219 0.976562 -1.792969 0.980469 -2.140625 C 0.988281 -2.492188 0.984375 -2.878906 0.976562 -3.300781 C 0.894531 -3.191406 0.808594 -3.09375 0.726562 -3.007812 C 0.640625 -2.925781 0.550781 -2.832031 0.449219 -2.738281 L 0.355469 -2.816406 C 0.511719 -3.042969 0.660156 -3.277344 0.800781 -3.523438 C 0.941406 -3.769531 1.070312 -4.015625 1.183594 -4.257812 C 1.300781 -4.5 1.402344 -4.738281 1.488281 -4.964844 C 1.574219 -5.195312 1.640625 -5.402344 1.691406 -5.589844 L 2.3125 -5.351562 C 2.363281 -5.332031 2.386719 -5.308594 2.375 -5.28125 C 2.367188 -5.25 2.335938 -5.230469 2.28125 -5.214844 C 2.242188 -5.207031 2.199219 -5.171875 2.144531 -5.117188 C 2.09375 -5.0625 2.046875 -5.003906 2.007812 -4.941406 C 1.980469 -4.886719 1.949219 -4.835938 1.917969 -4.785156 C 1.886719 -4.734375 1.859375 -4.683594 1.835938 -4.628906 L 2.65625 -4.628906 L 2.988281 -4.902344 L 3.386719 -4.515625 C 3.496094 -4.417969 3.484375 -4.363281 3.351562 -4.355469 C 3.292969 -4.351562 3.242188 -4.34375 3.199219 -4.328125 C 3.15625 -4.316406 3.105469 -4.289062 3.042969 -4.238281 C 2.984375 -4.191406 2.910156 -4.121094 2.820312 -4.023438 C 2.730469 -3.925781 2.613281 -3.796875 2.46875 -3.632812 L 3.085938 -3.632812 L 3.359375 -3.964844 Z M 6.941406 -0.882812 C 7 -0.800781 6.988281 -0.757812 6.90625 -0.757812 L 5.546875 -0.757812 L 5.546875 -0.527344 C 5.546875 -0.238281 5.546875 0.0078125 5.550781 0.214844 C 5.554688 0.417969 5.558594 0.605469 5.570312 0.78125 C 5.574219 0.851562 5.566406 0.90625 5.542969 0.945312 C 5.523438 0.984375 5.449219 1.03125 5.332031 1.082031 C 5.179688 1.148438 5.085938 1.175781 5.046875 1.15625 C 5.007812 1.136719 5 1.050781 5.011719 0.902344 C 5.015625 0.824219 5.023438 0.738281 5.03125 0.644531 C 5.039062 0.546875 5.042969 0.433594 5.046875 0.300781 C 5.054688 0.167969 5.058594 0.015625 5.058594 -0.160156 C 5.0625 -0.332031 5.0625 -0.53125 5.0625 -0.757812 L 4.371094 -0.757812 C 4.253906 -0.757812 4.160156 -0.753906 4.089844 -0.742188 C 4.019531 -0.730469 3.953125 -0.707031 3.886719 -0.679688 L 3.632812 -0.988281 C 3.742188 -0.96875 3.84375 -0.957031 3.933594 -0.953125 C 4.023438 -0.949219 4.121094 -0.945312 4.226562 -0.945312 L 5.0625 -0.945312 L 5.0625 -1.929688 L 4.382812 -1.929688 C 4.324219 -1.789062 4.253906 -1.640625 4.171875 -1.488281 C 4.085938 -1.332031 3.988281 -1.175781 3.878906 -1.011719 L 3.753906 -1.054688 C 3.8125 -1.203125 3.867188 -1.347656 3.910156 -1.480469 C 3.957031 -1.617188 3.996094 -1.75 4.027344 -1.890625 C 4.058594 -2.027344 4.085938 -2.167969 4.105469 -2.320312 C 4.128906 -2.46875 4.144531 -2.628906 4.160156 -2.800781 L 4.660156 -2.621094 C 4.726562 -2.597656 4.757812 -2.574219 4.75 -2.546875 C 4.742188 -2.519531 4.710938 -2.488281 4.660156 -2.457031 C 4.621094 -2.433594 4.582031 -2.390625 4.550781 -2.335938 C 4.515625 -2.28125 4.484375 -2.210938 4.449219 -2.128906 L 5.0625 -2.128906 C 5.0625 -2.28125 5.0625 -2.433594 5.054688 -2.589844 C 5.050781 -2.746094 5.042969 -2.890625 5.035156 -3.027344 L 5.632812 -2.839844 C 5.695312 -2.820312 5.726562 -2.800781 5.726562 -2.78125 C 5.726562 -2.761719 5.695312 -2.726562 5.632812 -2.679688 L 5.546875 -2.613281 L 5.546875 -2.128906 L 6.023438 -2.128906 L 6.386719 -2.570312 L 6.804688 -2.050781 C 6.832031 -2 6.84375 -1.964844 6.835938 -1.949219 C 6.828125 -1.933594 6.800781 -1.929688 6.746094 -1.929688 L 5.546875 -1.929688 L 5.546875 -0.945312 L 6.140625 -0.945312 L 6.515625 -1.394531 Z M 1.71875 -4.433594 C 1.636719 -4.292969 1.5625 -4.167969 1.496094 -4.058594 C 1.429688 -3.949219 1.363281 -3.847656 1.300781 -3.753906 L 1.507812 -3.632812 L 2.222656 -3.632812 L 2.65625 -4.433594 Z M 3.148438 -3.4375 L 2.46875 -3.4375 L 2.46875 -2.527344 L 3.148438 -2.527344 Z M 2.015625 -3.4375 L 1.429688 -3.4375 L 1.429688 -2.527344 L 2.015625 -2.527344 Z M 3.148438 -2.324219 L 2.46875 -2.324219 L 2.46875 -1.359375 L 3.148438 -1.359375 Z M 2.015625 -2.324219 L 1.421875 -2.324219 C 1.421875 -2.121094 1.421875 -1.9375 1.417969 -1.769531 C 1.417969 -1.601562 1.414062 -1.464844 1.410156 -1.359375 L 2.015625 -1.359375 Z "/>
</g>
<g id="glyph-0-3">
<path d="M 4.679688 -1.871094 C 4.828125 -1.300781 5.105469 -0.8125 5.507812 -0.402344 C 5.910156 0.0117188 6.390625 0.289062 6.949219 0.433594 L 6.960938 0.542969 C 6.644531 0.574219 6.429688 0.6875 6.320312 0.882812 C 6.296875 0.925781 6.265625 0.945312 6.234375 0.945312 C 6.179688 0.945312 6.003906 0.816406 5.703125 0.554688 C 5.402344 0.296875 5.148438 -0.0273438 4.945312 -0.410156 C 4.738281 -0.796875 4.582031 -1.285156 4.476562 -1.871094 L 4.175781 -1.871094 C 4.054688 -1.121094 3.808594 -0.511719 3.433594 -0.0429688 C 3.0625 0.425781 2.507812 0.824219 1.777344 1.15625 L 1.726562 1.046875 C 2.355469 0.660156 2.808594 0.253906 3.082031 -0.171875 C 3.351562 -0.601562 3.542969 -1.167969 3.648438 -1.871094 L 2.960938 -1.871094 C 2.644531 -1.871094 2.417969 -1.84375 2.289062 -1.792969 L 2.03125 -2.101562 C 2.160156 -2.078125 2.445312 -2.066406 2.890625 -2.066406 L 3.675781 -2.066406 C 3.734375 -2.519531 3.773438 -3.109375 3.792969 -3.835938 L 3.378906 -3.835938 C 3.183594 -3.835938 3.015625 -3.808594 2.882812 -3.753906 L 2.628906 -4.066406 C 2.835938 -4.042969 3.027344 -4.03125 3.199219 -4.03125 L 3.792969 -4.03125 C 3.796875 -4.339844 3.78125 -4.835938 3.75 -5.519531 L 4.449219 -5.238281 C 4.515625 -5.207031 4.550781 -5.179688 4.550781 -5.148438 C 4.550781 -5.121094 4.523438 -5.089844 4.46875 -5.054688 C 4.414062 -5.023438 4.375 -4.984375 4.355469 -4.9375 C 4.335938 -4.890625 4.324219 -4.808594 4.320312 -4.683594 C 4.316406 -4.5625 4.308594 -4.34375 4.304688 -4.03125 L 5.34375 -4.03125 L 5.65625 -4.421875 L 6.140625 -4.039062 C 6.171875 -4.003906 6.191406 -3.976562 6.191406 -3.953125 C 6.191406 -3.933594 6.171875 -3.90625 6.132812 -3.878906 L 5.902344 -3.71875 L 5.902344 -2.066406 L 6.132812 -2.066406 L 6.542969 -2.542969 L 6.984375 -2 C 7.007812 -1.960938 7.019531 -1.929688 7.019531 -1.90625 C 7.019531 -1.882812 6.992188 -1.871094 6.933594 -1.871094 Z M 5.417969 -2.066406 L 5.417969 -3.835938 L 4.304688 -3.835938 C 4.277344 -2.960938 4.242188 -2.367188 4.203125 -2.066406 Z M 0.765625 -5.308594 C 1.464844 -5.117188 1.8125 -4.867188 1.8125 -4.558594 C 1.8125 -4.453125 1.777344 -4.351562 1.703125 -4.257812 C 1.632812 -4.164062 1.550781 -4.117188 1.457031 -4.117188 C 1.363281 -4.117188 1.304688 -4.167969 1.285156 -4.277344 C 1.1875 -4.691406 0.996094 -5.003906 0.707031 -5.214844 Z M 2.5625 -4.339844 L 1.699219 -1.457031 C 1.621094 -1.1875 1.582031 -0.917969 1.582031 -0.648438 C 1.582031 -0.378906 1.597656 -0.128906 1.625 0.101562 C 1.652344 0.332031 1.667969 0.472656 1.667969 0.519531 C 1.667969 0.800781 1.554688 0.9375 1.328125 0.9375 C 1.183594 0.9375 1.082031 0.910156 1.027344 0.847656 C 0.96875 0.789062 0.9375 0.707031 0.9375 0.597656 C 0.9375 0.492188 0.957031 0.332031 0.988281 0.117188 C 1.023438 -0.101562 1.039062 -0.296875 1.039062 -0.46875 C 1.039062 -0.640625 0.996094 -0.765625 0.902344 -0.839844 C 0.8125 -0.914062 0.636719 -0.976562 0.382812 -1.019531 L 0.417969 -1.140625 C 0.566406 -1.125 0.707031 -1.121094 0.835938 -1.121094 C 0.960938 -1.121094 1.058594 -1.144531 1.125 -1.191406 C 1.1875 -1.238281 1.246094 -1.332031 1.300781 -1.472656 L 2.433594 -4.371094 Z M 0.542969 -3.792969 C 0.792969 -3.710938 0.988281 -3.617188 1.132812 -3.515625 C 1.277344 -3.414062 1.351562 -3.289062 1.351562 -3.132812 C 1.351562 -2.976562 1.324219 -2.851562 1.265625 -2.757812 C 1.210938 -2.667969 1.125 -2.621094 1.011719 -2.621094 C 0.894531 -2.621094 0.835938 -2.6875 0.832031 -2.816406 C 0.816406 -3.070312 0.78125 -3.25 0.730469 -3.351562 C 0.675781 -3.453125 0.59375 -3.5625 0.484375 -3.675781 Z "/>
</g>
<g id="glyph-0-4">
<path d="M 1.429688 -2.902344 L 1.429688 -0.527344 C 1.429688 -0.0859375 1.433594 0.25 1.441406 0.472656 C 1.449219 0.695312 1.453125 0.816406 1.453125 0.832031 C 1.453125 0.933594 1.390625 1.015625 1.269531 1.078125 C 1.148438 1.144531 1.058594 1.175781 0.992188 1.175781 C 0.929688 1.175781 0.894531 1.121094 0.894531 1.003906 L 0.933594 0.375 C 0.945312 0.140625 0.953125 -0.214844 0.953125 -0.695312 L 0.953125 -4.269531 C 0.953125 -4.644531 0.945312 -5.042969 0.925781 -5.46875 L 1.554688 -5.011719 L 2.585938 -5.011719 L 2.808594 -5.308594 L 3.265625 -4.992188 C 3.308594 -4.957031 3.328125 -4.925781 3.328125 -4.894531 C 3.328125 -4.863281 3.308594 -4.835938 3.273438 -4.808594 L 3.105469 -4.710938 L 3.105469 -3.640625 C 3.105469 -3.472656 3.109375 -3.316406 3.121094 -3.179688 L 3.140625 -2.847656 C 3.140625 -2.765625 3.070312 -2.683594 2.933594 -2.605469 C 2.792969 -2.523438 2.707031 -2.484375 2.679688 -2.484375 C 2.652344 -2.484375 2.636719 -2.519531 2.636719 -2.59375 L 2.636719 -2.902344 Z M 1.429688 -4.808594 L 1.429688 -4.109375 L 2.636719 -4.109375 L 2.636719 -4.808594 Z M 1.429688 -3.90625 L 1.429688 -3.105469 L 2.636719 -3.105469 L 2.636719 -3.90625 Z M 4.636719 -5.003906 L 5.808594 -5.003906 L 6.03125 -5.335938 L 6.542969 -4.960938 C 6.585938 -4.933594 6.609375 -4.90625 6.609375 -4.882812 C 6.609375 -4.859375 6.578125 -4.832031 6.523438 -4.804688 L 6.386719 -4.722656 L 6.386719 0.214844 C 6.386719 0.445312 6.363281 0.613281 6.324219 0.714844 C 6.28125 0.816406 6.179688 0.910156 6.019531 1 C 5.859375 1.089844 5.746094 1.132812 5.683594 1.132812 C 5.644531 1.132812 5.621094 1.101562 5.613281 1.03125 C 5.589844 0.894531 5.519531 0.789062 5.410156 0.714844 C 5.300781 0.644531 5.066406 0.554688 4.710938 0.449219 L 4.722656 0.332031 C 5.074219 0.390625 5.320312 0.417969 5.460938 0.417969 C 5.601562 0.417969 5.703125 0.402344 5.773438 0.363281 C 5.84375 0.328125 5.878906 0.230469 5.878906 0.0664062 L 5.878906 -2.917969 L 4.542969 -2.917969 L 4.542969 -2.789062 C 4.542969 -2.726562 4.53125 -2.679688 4.503906 -2.648438 C 4.476562 -2.617188 4.410156 -2.574219 4.300781 -2.523438 C 4.191406 -2.472656 4.117188 -2.449219 4.070312 -2.449219 C 4.023438 -2.449219 4.007812 -2.523438 4.023438 -2.671875 C 4.050781 -2.941406 4.066406 -3.160156 4.066406 -3.324219 L 4.066406 -4.722656 C 4.066406 -4.910156 4.058594 -5.136719 4.042969 -5.394531 Z M 5.878906 -4.125 L 5.878906 -4.804688 L 4.542969 -4.804688 L 4.542969 -4.125 Z M 5.878906 -3.128906 L 5.878906 -3.921875 L 4.542969 -3.921875 L 4.542969 -3.128906 Z M 3.0625 -1.957031 L 4.238281 -1.957031 L 4.457031 -2.238281 L 4.890625 -1.9375 C 4.9375 -1.90625 4.960938 -1.878906 4.960938 -1.855469 C 4.960938 -1.832031 4.933594 -1.804688 4.882812 -1.777344 L 4.765625 -1.703125 L 4.765625 -0.933594 C 4.765625 -0.792969 4.773438 -0.667969 4.78125 -0.554688 L 4.816406 -0.273438 C 4.816406 -0.214844 4.746094 -0.152344 4.609375 -0.078125 C 4.46875 -0.0078125 4.378906 0.0273438 4.34375 0.0273438 C 4.308594 0.0273438 4.289062 -0.00390625 4.289062 -0.0703125 L 4.289062 -0.339844 L 2.96875 -0.339844 L 2.96875 -0.0078125 C 2.96875 0.0546875 2.957031 0.101562 2.933594 0.132812 C 2.910156 0.164062 2.847656 0.203125 2.75 0.253906 C 2.648438 0.300781 2.574219 0.324219 2.523438 0.324219 C 2.472656 0.324219 2.457031 0.253906 2.476562 0.117188 C 2.5 -0.164062 2.511719 -0.40625 2.511719 -0.605469 L 2.511719 -1.582031 C 2.511719 -1.773438 2.507812 -2 2.492188 -2.253906 Z M 4.289062 -0.542969 L 4.289062 -1.746094 L 2.96875 -1.746094 L 2.96875 -0.542969 Z "/>
</g>
<g id="glyph-0-5">
<path d="M 4.363281 -4.117188 L 4.621094 -4.117188 C 4.703125 -4.359375 4.761719 -4.601562 4.796875 -4.847656 L 4.089844 -4.847656 C 3.882812 -4.847656 3.714844 -4.820312 3.589844 -4.765625 L 3.328125 -5.085938 C 3.511719 -5.054688 3.714844 -5.042969 3.9375 -5.042969 L 6.089844 -5.042969 L 6.449219 -5.445312 L 6.824219 -5 C 6.863281 -4.957031 6.882812 -4.917969 6.882812 -4.890625 C 6.882812 -4.859375 6.847656 -4.847656 6.773438 -4.847656 L 5.285156 -4.847656 C 5.136719 -4.5625 4.992188 -4.320312 4.855469 -4.117188 L 5.726562 -4.117188 L 5.929688 -4.371094 L 6.386719 -4.050781 C 6.4375 -4.011719 6.464844 -3.984375 6.464844 -3.960938 C 6.464844 -3.941406 6.4375 -3.914062 6.386719 -3.878906 L 6.242188 -3.785156 L 6.242188 -2.125 C 6.242188 -1.964844 6.246094 -1.816406 6.253906 -1.683594 L 6.285156 -1.34375 C 6.285156 -1.265625 6.214844 -1.191406 6.078125 -1.125 C 5.941406 -1.054688 5.855469 -1.019531 5.816406 -1.019531 C 5.78125 -1.019531 5.765625 -1.050781 5.765625 -1.121094 L 5.765625 -1.300781 L 4.371094 -1.300781 C 4.378906 -1.195312 4.316406 -1.117188 4.183594 -1.066406 C 4.050781 -1.015625 3.96875 -0.988281 3.933594 -0.988281 C 3.898438 -0.988281 3.871094 -1.003906 3.855469 -1.035156 C 3.84375 -1.066406 3.847656 -1.195312 3.871094 -1.414062 C 3.894531 -1.636719 3.90625 -1.875 3.90625 -2.125 L 3.90625 -3.53125 C 3.90625 -3.847656 3.898438 -4.144531 3.886719 -4.414062 Z M 5.765625 -3.257812 L 5.765625 -3.914062 L 4.371094 -3.914062 L 4.371094 -3.257812 Z M 5.765625 -2.382812 L 5.765625 -3.054688 L 4.371094 -3.054688 L 4.371094 -2.382812 Z M 5.765625 -1.503906 L 5.765625 -2.179688 L 4.371094 -2.179688 L 4.371094 -1.503906 Z M 1.488281 -5.042969 L 2.558594 -5.042969 L 2.746094 -5.285156 L 3.230469 -4.960938 C 3.269531 -4.941406 3.285156 -4.921875 3.285156 -4.902344 C 3.285156 -4.878906 3.265625 -4.855469 3.222656 -4.824219 L 3.085938 -4.714844 L 3.085938 -3.667969 C 3.085938 -3.519531 3.089844 -3.378906 3.097656 -3.25 L 3.128906 -2.917969 C 3.128906 -2.835938 3.0625 -2.765625 2.929688 -2.703125 C 2.796875 -2.640625 2.710938 -2.605469 2.671875 -2.605469 C 2.632812 -2.605469 2.613281 -2.640625 2.613281 -2.703125 L 2.613281 -2.910156 L 1.394531 -2.910156 L 1.394531 -2.722656 C 1.394531 -2.695312 1.378906 -2.671875 1.351562 -2.652344 C 1.320312 -2.632812 1.261719 -2.601562 1.171875 -2.558594 C 1.078125 -2.515625 1.015625 -2.492188 0.980469 -2.492188 C 0.941406 -2.492188 0.925781 -2.53125 0.925781 -2.613281 L 0.945312 -2.976562 C 0.949219 -3.117188 0.953125 -3.335938 0.953125 -3.632812 L 0.953125 -4.6875 C 0.953125 -4.875 0.945312 -5.097656 0.925781 -5.351562 Z M 2.613281 -4.074219 L 2.613281 -4.839844 L 1.394531 -4.839844 L 1.394531 -4.074219 Z M 2.613281 -3.113281 L 2.613281 -3.871094 L 1.394531 -3.871094 L 1.394531 -3.113281 Z M 1.121094 -0.460938 C 1.042969 -0.113281 0.949219 0.160156 0.835938 0.363281 C 0.722656 0.570312 0.535156 0.820312 0.273438 1.121094 L 0.203125 1.054688 C 0.4375 0.644531 0.605469 0.246094 0.703125 -0.140625 C 0.800781 -0.527344 0.871094 -1.042969 0.910156 -1.683594 L 1.421875 -1.457031 C 1.496094 -1.429688 1.53125 -1.402344 1.53125 -1.375 C 1.53125 -1.347656 1.5 -1.320312 1.4375 -1.292969 C 1.339844 -1.246094 1.253906 -1.058594 1.175781 -0.730469 C 1.386719 -0.339844 1.621094 -0.0703125 1.878906 0.078125 L 1.878906 -2 L 0.996094 -2 C 0.789062 -2 0.625 -1.972656 0.5 -1.921875 L 0.238281 -2.230469 C 0.421875 -2.207031 0.625 -2.195312 0.851562 -2.195312 L 2.910156 -2.195312 L 3.257812 -2.601562 L 3.640625 -2.152344 C 3.679688 -2.105469 3.699219 -2.066406 3.699219 -2.039062 C 3.699219 -2.011719 3.664062 -2 3.597656 -2 L 2.355469 -2 L 2.355469 -1.148438 L 2.789062 -1.148438 L 3.089844 -1.546875 L 3.460938 -1.105469 C 3.503906 -1.058594 3.523438 -1.019531 3.523438 -0.988281 C 3.523438 -0.960938 3.484375 -0.945312 3.410156 -0.945312 L 2.355469 -0.945312 L 2.355469 0.28125 C 2.8125 0.410156 3.523438 0.476562 4.484375 0.476562 C 5.449219 0.476562 6.289062 0.417969 7.011719 0.304688 L 7.011719 0.417969 C 6.867188 0.457031 6.753906 0.519531 6.671875 0.601562 C 6.585938 0.6875 6.539062 0.765625 6.53125 0.835938 C 6.523438 0.90625 6.511719 0.945312 6.484375 0.953125 C 6.460938 0.964844 6.421875 0.96875 6.363281 0.96875 C 4.3125 0.96875 3.007812 0.898438 2.453125 0.757812 C 1.894531 0.617188 1.453125 0.210938 1.121094 -0.460938 Z M 4.519531 -0.996094 L 4.855469 -0.671875 C 4.90625 -0.628906 4.933594 -0.59375 4.933594 -0.566406 C 4.933594 -0.539062 4.921875 -0.523438 4.902344 -0.515625 C 4.878906 -0.507812 4.855469 -0.507812 4.828125 -0.507812 C 4.800781 -0.511719 4.785156 -0.511719 4.773438 -0.511719 C 4.707031 -0.511719 4.628906 -0.484375 4.542969 -0.433594 C 4.066406 -0.160156 3.546875 0.0703125 2.988281 0.261719 L 2.960938 0.160156 C 3.546875 -0.128906 4.070312 -0.515625 4.519531 -0.996094 Z M 5.128906 -0.894531 C 5.414062 -0.847656 5.652344 -0.800781 5.851562 -0.75 C 6.046875 -0.703125 6.207031 -0.652344 6.324219 -0.597656 C 6.441406 -0.542969 6.523438 -0.484375 6.566406 -0.421875 C 6.609375 -0.363281 6.628906 -0.277344 6.628906 -0.171875 C 6.628906 0.0117188 6.566406 0.101562 6.433594 0.101562 C 6.363281 0.101562 6.285156 0.0507812 6.203125 -0.0507812 C 5.945312 -0.339844 5.570312 -0.585938 5.085938 -0.789062 Z "/>
</g>
<g id="glyph-0-6">
<path d="M 5.121094 -0.738281 L 2.789062 -0.738281 L 2.789062 0.835938 C 2.789062 0.925781 2.714844 0.992188 2.570312 1.039062 C 2.429688 1.09375 2.339844 1.121094 2.296875 1.121094 C 2.253906 1.121094 2.230469 1.074219 2.230469 0.980469 L 2.246094 0.570312 C 2.25 0.492188 2.253906 0.390625 2.257812 0.265625 C 2.257812 0.140625 2.261719 -0.0078125 2.261719 -0.179688 L 2.261719 -2.484375 C 1.710938 -1.839844 1.113281 -1.304688 0.460938 -0.882812 L 0.367188 -0.96875 C 1.46875 -1.910156 2.304688 -2.976562 2.867188 -4.160156 L 1.164062 -4.160156 C 0.96875 -4.160156 0.808594 -4.136719 0.679688 -4.09375 L 0.433594 -4.398438 C 0.605469 -4.371094 0.800781 -4.355469 1.019531 -4.355469 L 2.953125 -4.355469 C 3.160156 -4.824219 3.3125 -5.242188 3.410156 -5.613281 L 4.042969 -5.292969 C 4.113281 -5.265625 4.144531 -5.238281 4.144531 -5.214844 C 4.144531 -5.191406 4.105469 -5.164062 4.023438 -5.136719 C 3.945312 -5.117188 3.878906 -5.042969 3.820312 -4.917969 L 3.539062 -4.355469 L 6.03125 -4.355469 L 6.441406 -4.867188 L 6.910156 -4.3125 C 6.953125 -4.265625 6.976562 -4.226562 6.976562 -4.199219 C 6.976562 -4.171875 6.941406 -4.160156 6.867188 -4.160156 L 3.429688 -4.160156 C 3.347656 -4.007812 3.261719 -3.855469 3.167969 -3.707031 C 3.074219 -3.554688 2.976562 -3.410156 2.875 -3.273438 L 5.128906 -3.273438 L 5.335938 -3.554688 L 5.835938 -3.171875 C 5.882812 -3.136719 5.90625 -3.101562 5.90625 -3.0625 C 5.90625 -3.023438 5.882812 -2.988281 5.835938 -2.960938 L 5.640625 -2.851562 L 5.640625 0.136719 C 5.640625 0.425781 5.617188 0.617188 5.570312 0.707031 C 5.519531 0.808594 5.425781 0.90625 5.28125 0.996094 C 5.207031 1.050781 5.148438 1.085938 5.105469 1.109375 C 5.0625 1.128906 5.03125 1.144531 5.003906 1.148438 C 4.980469 1.152344 4.964844 1.148438 4.953125 1.132812 C 4.945312 1.117188 4.9375 1.097656 4.933594 1.070312 C 4.878906 0.910156 4.777344 0.789062 4.621094 0.699219 C 4.46875 0.613281 4.28125 0.539062 4.058594 0.476562 L 4.082031 0.390625 C 4.332031 0.425781 4.523438 0.445312 4.664062 0.457031 C 4.800781 0.46875 4.902344 0.46875 4.964844 0.453125 C 5.03125 0.433594 5.070312 0.402344 5.085938 0.355469 C 5.097656 0.304688 5.109375 0.234375 5.121094 0.144531 Z M 2.789062 -2.085938 L 5.121094 -2.085938 L 5.121094 -3.070312 L 2.789062 -3.070312 Z M 5.121094 -1.886719 L 2.789062 -1.886719 L 2.789062 -0.9375 L 5.121094 -0.9375 Z "/>
</g>
<g id="glyph-0-7">
<path d="M 2.585938 -2.152344 C 2.59375 -1.9375 2.664062 -1.734375 2.789062 -1.546875 C 2.914062 -1.359375 3.101562 -1.214844 3.351562 -1.121094 L 3.351562 -3.460938 L 1.457031 -3.460938 L 1.457031 -0.757812 C 1.457031 -0.46875 1.460938 -0.222656 1.464844 -0.0195312 C 1.46875 0.1875 1.476562 0.375 1.488281 0.550781 C 1.492188 0.605469 1.480469 0.65625 1.453125 0.695312 C 1.421875 0.734375 1.351562 0.785156 1.234375 0.851562 C 1.15625 0.894531 1.097656 0.925781 1.054688 0.941406 C 1.011719 0.960938 0.980469 0.960938 0.957031 0.945312 C 0.933594 0.929688 0.921875 0.902344 0.921875 0.859375 C 0.917969 0.816406 0.917969 0.753906 0.925781 0.671875 C 0.929688 0.59375 0.933594 0.484375 0.941406 0.347656 C 0.949219 0.207031 0.957031 0.0585938 0.960938 -0.0976562 C 0.964844 -0.253906 0.96875 -0.40625 0.976562 -0.550781 C 0.980469 -0.699219 0.980469 -0.824219 0.980469 -0.925781 L 0.980469 -2.808594 C 0.980469 -2.886719 0.980469 -2.976562 0.980469 -3.085938 C 0.976562 -3.191406 0.972656 -3.296875 0.96875 -3.40625 C 0.964844 -3.515625 0.960938 -3.617188 0.957031 -3.71875 C 0.953125 -3.820312 0.949219 -3.90625 0.945312 -3.980469 L 1.574219 -3.660156 L 3.351562 -3.660156 L 3.351562 -4.621094 L 0.988281 -4.621094 C 0.878906 -4.621094 0.789062 -4.617188 0.71875 -4.601562 C 0.648438 -4.585938 0.582031 -4.566406 0.511719 -4.542969 L 0.261719 -4.847656 C 0.371094 -4.832031 0.46875 -4.824219 0.558594 -4.816406 C 0.648438 -4.8125 0.742188 -4.808594 0.84375 -4.808594 L 5.929688 -4.808594 L 6.398438 -5.359375 L 6.890625 -4.765625 C 6.96875 -4.671875 6.949219 -4.621094 6.839844 -4.621094 L 3.855469 -4.621094 L 3.855469 -3.660156 L 5.691406 -3.660156 L 5.996094 -4.082031 L 6.507812 -3.691406 C 6.550781 -3.652344 6.574219 -3.621094 6.574219 -3.601562 C 6.574219 -3.578125 6.546875 -3.550781 6.492188 -3.515625 L 6.3125 -3.394531 L 6.3125 0.121094 C 6.3125 0.238281 6.304688 0.335938 6.292969 0.410156 C 6.28125 0.488281 6.253906 0.554688 6.210938 0.613281 C 6.167969 0.671875 6.109375 0.726562 6.03125 0.777344 C 5.953125 0.828125 5.851562 0.882812 5.71875 0.9375 C 5.652344 0.960938 5.605469 0.96875 5.582031 0.960938 C 5.558594 0.949219 5.542969 0.917969 5.53125 0.867188 C 5.523438 0.792969 5.503906 0.730469 5.472656 0.671875 C 5.441406 0.613281 5.394531 0.5625 5.332031 0.515625 C 5.269531 0.46875 5.183594 0.429688 5.082031 0.394531 C 4.976562 0.359375 4.851562 0.324219 4.703125 0.289062 L 4.710938 0.179688 C 4.96875 0.210938 5.171875 0.230469 5.320312 0.238281 C 5.464844 0.246094 5.578125 0.246094 5.652344 0.230469 C 5.726562 0.214844 5.773438 0.1875 5.792969 0.144531 C 5.8125 0.101562 5.820312 0.0429688 5.820312 -0.0273438 L 5.820312 -1.027344 C 5.738281 -1.015625 5.675781 -0.996094 5.625 -0.964844 C 5.578125 -0.933594 5.53125 -0.878906 5.488281 -0.800781 C 5.445312 -0.730469 5.394531 -0.722656 5.335938 -0.78125 C 5.234375 -0.871094 5.144531 -0.984375 5.066406 -1.125 C 4.988281 -1.261719 4.921875 -1.414062 4.867188 -1.582031 C 4.808594 -1.484375 4.75 -1.394531 4.691406 -1.316406 C 4.632812 -1.234375 4.566406 -1.152344 4.5 -1.074219 C 4.433594 -0.992188 4.359375 -0.910156 4.277344 -0.828125 C 4.195312 -0.742188 4.101562 -0.65625 4 -0.5625 L 3.921875 -0.621094 C 4.128906 -0.902344 4.296875 -1.160156 4.425781 -1.40625 C 4.558594 -1.648438 4.664062 -1.90625 4.753906 -2.179688 C 4.75 -2.21875 4.746094 -2.257812 4.746094 -2.300781 C 4.746094 -2.339844 4.746094 -2.382812 4.746094 -2.425781 L 4.515625 -2.425781 C 4.441406 -2.425781 4.375 -2.421875 4.320312 -2.414062 C 4.261719 -2.402344 4.199219 -2.382812 4.132812 -2.355469 L 3.964844 -2.628906 C 4.039062 -2.621094 4.105469 -2.613281 4.167969 -2.605469 C 4.230469 -2.601562 4.3125 -2.601562 4.421875 -2.601562 L 4.578125 -2.601562 L 4.839844 -2.925781 L 5.273438 -2.628906 C 5.335938 -2.589844 5.363281 -2.554688 5.355469 -2.519531 C 5.347656 -2.488281 5.3125 -2.46875 5.25 -2.464844 C 5.160156 -2.457031 5.101562 -2.425781 5.082031 -2.363281 C 5.058594 -2.300781 5.046875 -2.246094 5.046875 -2.203125 C 5.058594 -1.984375 5.125 -1.777344 5.25 -1.574219 C 5.375 -1.371094 5.566406 -1.222656 5.820312 -1.125 L 5.820312 -3.460938 L 3.855469 -3.460938 L 3.855469 -0.832031 C 3.855469 -0.539062 3.859375 -0.289062 3.863281 -0.0820312 C 3.867188 0.121094 3.875 0.308594 3.886719 0.476562 C 3.890625 0.535156 3.875 0.585938 3.84375 0.628906 C 3.808594 0.671875 3.730469 0.726562 3.605469 0.789062 C 3.457031 0.863281 3.363281 0.894531 3.332031 0.875 C 3.300781 0.855469 3.292969 0.761719 3.300781 0.597656 C 3.304688 0.523438 3.3125 0.417969 3.320312 0.285156 C 3.328125 0.152344 3.332031 0.0117188 3.335938 -0.132812 C 3.339844 -0.28125 3.34375 -0.425781 3.347656 -0.566406 C 3.351562 -0.707031 3.351562 -0.832031 3.351562 -0.933594 L 3.351562 -1.019531 C 3.273438 -1.007812 3.210938 -0.988281 3.164062 -0.953125 C 3.117188 -0.917969 3.070312 -0.867188 3.027344 -0.792969 C 2.984375 -0.722656 2.933594 -0.714844 2.875 -0.773438 C 2.683594 -0.945312 2.53125 -1.1875 2.425781 -1.496094 C 2.332031 -1.296875 2.21875 -1.113281 2.09375 -0.945312 C 1.96875 -0.777344 1.808594 -0.601562 1.617188 -0.417969 L 1.539062 -0.484375 C 1.722656 -0.75 1.871094 -1.011719 1.988281 -1.277344 C 2.105469 -1.542969 2.207031 -1.816406 2.289062 -2.101562 C 2.285156 -2.144531 2.28125 -2.191406 2.28125 -2.234375 C 2.28125 -2.28125 2.28125 -2.328125 2.28125 -2.375 L 2.050781 -2.375 C 1.992188 -2.375 1.941406 -2.371094 1.898438 -2.363281 C 1.855469 -2.351562 1.800781 -2.332031 1.734375 -2.304688 L 1.574219 -2.578125 C 1.648438 -2.570312 1.714844 -2.5625 1.777344 -2.558594 C 1.839844 -2.550781 1.898438 -2.550781 1.957031 -2.550781 L 2.117188 -2.550781 L 2.375 -2.875 L 2.808594 -2.578125 C 2.871094 -2.539062 2.898438 -2.503906 2.894531 -2.46875 C 2.886719 -2.4375 2.851562 -2.417969 2.789062 -2.414062 C 2.695312 -2.40625 2.640625 -2.375 2.617188 -2.3125 C 2.597656 -2.25 2.585938 -2.195312 2.585938 -2.152344 Z "/>
</g>
<g id="glyph-0-8">
<path d="M 4.398438 -4.660156 C 3.8125 -4.605469 3.328125 -4.578125 2.953125 -4.578125 L 2.941406 -4.710938 C 4.25 -4.90625 5.21875 -5.144531 5.851562 -5.425781 L 6.210938 -5 C 6.257812 -4.941406 6.285156 -4.894531 6.285156 -4.863281 C 6.285156 -4.832031 6.246094 -4.824219 6.167969 -4.84375 C 6.089844 -4.859375 6.019531 -4.867188 5.949219 -4.867188 C 5.878906 -4.867188 5.738281 -4.851562 5.53125 -4.816406 C 5.324219 -4.785156 5.101562 -4.75 4.859375 -4.714844 L 4.859375 -4 L 5.886719 -4 L 6.296875 -4.441406 L 6.753906 -3.949219 C 6.796875 -3.910156 6.816406 -3.878906 6.816406 -3.851562 C 6.816406 -3.820312 6.78125 -3.804688 6.703125 -3.804688 L 4.859375 -3.804688 L 4.859375 -3.179688 L 5.640625 -3.179688 L 5.863281 -3.472656 L 6.3125 -3.164062 C 6.359375 -3.136719 6.386719 -3.105469 6.386719 -3.078125 C 6.386719 -3.046875 6.367188 -3.019531 6.335938 -2.988281 L 6.210938 -2.902344 L 6.210938 -2.023438 C 6.210938 -1.855469 6.21875 -1.699219 6.234375 -1.558594 L 6.253906 -1.199219 C 6.253906 -1.117188 6.183594 -1.042969 6.039062 -0.976562 C 5.894531 -0.90625 5.808594 -0.875 5.78125 -0.875 C 5.753906 -0.875 5.742188 -0.910156 5.742188 -0.980469 L 5.742188 -1.175781 L 4.859375 -1.175781 L 4.859375 -0.417969 L 5.691406 -0.417969 L 6.039062 -0.832031 L 6.449219 -0.339844 C 6.480469 -0.304688 6.492188 -0.277344 6.492188 -0.253906 C 6.492188 -0.230469 6.460938 -0.214844 6.390625 -0.214844 L 4.859375 -0.214844 L 4.859375 0.5625 L 6.101562 0.5625 L 6.464844 0.136719 L 6.882812 0.644531 C 6.917969 0.675781 6.933594 0.707031 6.933594 0.730469 C 6.933594 0.753906 6.898438 0.765625 6.832031 0.765625 L 3.128906 0.765625 C 2.925781 0.765625 2.761719 0.792969 2.636719 0.84375 L 2.367188 0.527344 C 2.550781 0.550781 2.75 0.5625 2.96875 0.5625 L 4.398438 0.5625 L 4.398438 -0.214844 L 3.5625 -0.214844 C 3.359375 -0.214844 3.195312 -0.191406 3.070312 -0.136719 L 2.800781 -0.453125 C 2.984375 -0.429688 3.1875 -0.417969 3.410156 -0.417969 L 4.398438 -0.417969 L 4.398438 -1.175781 L 3.539062 -1.175781 C 3.542969 -1.082031 3.484375 -1.003906 3.355469 -0.949219 C 3.226562 -0.894531 3.144531 -0.867188 3.101562 -0.867188 C 3.0625 -0.867188 3.039062 -0.894531 3.039062 -0.945312 C 3.039062 -1 3.050781 -1.113281 3.066406 -1.289062 C 3.082031 -1.464844 3.089844 -1.691406 3.089844 -1.972656 L 3.089844 -2.5625 C 3.089844 -2.882812 3.085938 -3.175781 3.070312 -3.445312 L 3.53125 -3.179688 L 4.398438 -3.179688 L 4.398438 -3.804688 L 3.4375 -3.804688 C 3.234375 -3.804688 3.070312 -3.78125 2.945312 -3.726562 L 2.6875 -4.039062 C 2.871094 -4.015625 3.070312 -4 3.285156 -4 L 4.398438 -4 Z M 4.398438 -2.296875 L 4.398438 -2.976562 L 3.539062 -2.976562 L 3.539062 -2.296875 Z M 4.859375 -2.976562 L 4.859375 -2.296875 L 5.742188 -2.296875 L 5.742188 -2.976562 Z M 4.398438 -1.378906 L 4.398438 -2.09375 L 3.539062 -2.09375 L 3.539062 -1.378906 Z M 4.859375 -2.09375 L 4.859375 -1.378906 L 5.742188 -1.378906 L 5.742188 -2.09375 Z M 1.386719 -2.246094 C 1.039062 -1.566406 0.648438 -0.984375 0.210938 -0.5 L 0.117188 -0.5625 C 0.625 -1.375 1.015625 -2.269531 1.285156 -3.234375 L 1.027344 -3.234375 C 0.824219 -3.234375 0.660156 -3.210938 0.535156 -3.15625 L 0.28125 -3.46875 C 0.460938 -3.445312 0.660156 -3.429688 0.882812 -3.429688 L 1.386719 -3.429688 L 1.386719 -4.570312 C 1.175781 -4.523438 0.839844 -4.464844 0.382812 -4.390625 L 0.355469 -4.519531 C 1.058594 -4.707031 1.726562 -4.992188 2.363281 -5.367188 L 2.730469 -4.949219 C 2.769531 -4.898438 2.789062 -4.859375 2.789062 -4.832031 C 2.789062 -4.804688 2.753906 -4.792969 2.683594 -4.808594 C 2.613281 -4.820312 2.558594 -4.824219 2.519531 -4.824219 C 2.417969 -4.824219 2.199219 -4.777344 1.863281 -4.6875 L 1.863281 -3.429688 L 2.050781 -3.429688 L 2.414062 -3.863281 L 2.824219 -3.378906 C 2.863281 -3.335938 2.882812 -3.300781 2.882812 -3.277344 C 2.882812 -3.25 2.847656 -3.234375 2.773438 -3.234375 L 1.863281 -3.234375 L 1.863281 -2.570312 C 2.15625 -2.464844 2.378906 -2.363281 2.527344 -2.269531 C 2.675781 -2.171875 2.75 -2.066406 2.75 -1.949219 C 2.75 -1.835938 2.726562 -1.734375 2.675781 -1.652344 C 2.625 -1.570312 2.574219 -1.53125 2.519531 -1.53125 C 2.425781 -1.53125 2.363281 -1.589844 2.332031 -1.703125 C 2.3125 -1.761719 2.261719 -1.855469 2.175781 -1.984375 C 2.09375 -2.117188 1.988281 -2.25 1.863281 -2.382812 L 1.863281 -0.304688 C 1.863281 0.0429688 1.867188 0.296875 1.871094 0.453125 L 1.886719 0.835938 C 1.886719 0.910156 1.816406 0.976562 1.683594 1.039062 C 1.546875 1.101562 1.460938 1.132812 1.417969 1.132812 C 1.378906 1.132812 1.359375 1.09375 1.359375 1.011719 L 1.378906 0.535156 C 1.382812 0.335938 1.386719 0.0546875 1.386719 -0.316406 Z "/>
</g>
<g id="glyph-0-9">
<path d="M 2.996094 -5.664062 C 3.308594 -5.546875 3.570312 -5.425781 3.78125 -5.296875 C 3.992188 -5.167969 4.09375 -5.015625 4.09375 -4.835938 C 4.09375 -4.65625 4.050781 -4.511719 3.964844 -4.410156 C 3.878906 -4.304688 3.769531 -4.253906 3.640625 -4.253906 C 3.53125 -4.253906 3.457031 -4.351562 3.421875 -4.542969 C 3.371094 -4.8125 3.308594 -5.007812 3.234375 -5.125 C 3.164062 -5.242188 3.046875 -5.386719 2.890625 -5.554688 Z M 3.191406 -2.679688 L 4.992188 -2.679688 L 5.238281 -2.996094 L 5.714844 -2.59375 C 5.777344 -2.554688 5.808594 -2.523438 5.808594 -2.503906 C 5.808594 -2.480469 5.777344 -2.449219 5.714844 -2.414062 L 5.488281 -2.246094 C 5.417969 -1.539062 5.351562 -0.988281 5.289062 -0.597656 C 5.230469 -0.203125 5.183594 0.0507812 5.148438 0.167969 C 5.117188 0.28125 5.058594 0.386719 4.976562 0.484375 C 4.894531 0.582031 4.757812 0.683594 4.566406 0.792969 C 4.378906 0.90625 4.253906 0.960938 4.199219 0.960938 C 4.144531 0.960938 4.113281 0.917969 4.109375 0.832031 C 4.101562 0.667969 4.039062 0.542969 3.929688 0.457031 C 3.820312 0.375 3.585938 0.277344 3.230469 0.171875 L 3.257812 0.0351562 C 3.71875 0.121094 4.042969 0.167969 4.230469 0.167969 C 4.414062 0.167969 4.539062 0.125 4.601562 0.0429688 C 4.664062 -0.0390625 4.726562 -0.269531 4.796875 -0.648438 C 4.863281 -1.03125 4.921875 -1.640625 4.96875 -2.476562 L 3.15625 -2.476562 C 2.972656 -1.5 2.6875 -0.757812 2.304688 -0.253906 C 1.917969 0.253906 1.265625 0.683594 0.339844 1.039062 L 0.28125 0.925781 C 1.167969 0.480469 1.777344 -0.0546875 2.117188 -0.6875 C 2.453125 -1.316406 2.695312 -2.375 2.847656 -3.863281 L 1.207031 -3.863281 C 1.007812 -3.863281 0.84375 -3.839844 0.714844 -3.792969 L 0.449219 -4.109375 C 0.632812 -4.085938 0.832031 -4.074219 1.046875 -4.074219 L 5.9375 -4.074219 L 6.378906 -4.601562 L 6.890625 -3.992188 C 6.925781 -3.953125 6.941406 -3.925781 6.941406 -3.898438 C 6.941406 -3.875 6.90625 -3.863281 6.839844 -3.863281 L 3.351562 -3.863281 C 3.328125 -3.511719 3.273438 -3.117188 3.191406 -2.679688 Z "/>
</g>
<g id="glyph-0-10">
<path d="M 3.90625 -3.683594 L 1.121094 -3.683594 C 0.921875 -3.683594 0.757812 -3.65625 0.628906 -3.605469 L 0.375 -3.945312 C 0.558594 -3.921875 0.757812 -3.90625 0.976562 -3.90625 L 3.886719 -3.90625 C 3.832031 -4.414062 3.785156 -4.960938 3.742188 -5.546875 L 4.476562 -5.300781 C 4.511719 -5.292969 4.527344 -5.277344 4.527344 -5.253906 C 4.527344 -5.234375 4.515625 -5.207031 4.484375 -5.179688 L 4.363281 -5.035156 C 4.351562 -4.648438 4.359375 -4.273438 4.382812 -3.90625 L 5.84375 -3.90625 L 6.277344 -4.449219 L 6.8125 -3.8125 C 6.839844 -3.769531 6.855469 -3.738281 6.855469 -3.714844 C 6.855469 -3.695312 6.820312 -3.683594 6.753906 -3.683594 L 4.398438 -3.683594 C 4.460938 -2.777344 4.578125 -2.054688 4.75 -1.507812 C 4.921875 -0.964844 5.175781 -0.503906 5.511719 -0.121094 C 5.847656 0.257812 6.054688 0.449219 6.132812 0.449219 C 6.195312 0.449219 6.261719 0.363281 6.335938 0.195312 C 6.410156 0.0273438 6.535156 -0.316406 6.710938 -0.832031 L 6.804688 -0.808594 C 6.71875 -0.277344 6.671875 0.109375 6.671875 0.359375 C 6.671875 0.605469 6.699219 0.777344 6.746094 0.878906 C 6.792969 0.976562 6.816406 1.054688 6.816406 1.113281 C 6.816406 1.171875 6.761719 1.199219 6.652344 1.199219 C 6.449219 1.199219 6.214844 1.117188 5.945312 0.949219 C 5.675781 0.785156 5.386719 0.511719 5.082031 0.132812 C 4.777344 -0.246094 4.535156 -0.695312 4.355469 -1.21875 C 4.175781 -1.746094 4.027344 -2.566406 3.90625 -3.683594 Z M 4.855469 -5.292969 C 5.214844 -5.261719 5.488281 -5.195312 5.667969 -5.101562 C 5.851562 -5.007812 5.945312 -4.890625 5.945312 -4.746094 C 5.945312 -4.601562 5.917969 -4.476562 5.859375 -4.375 C 5.804688 -4.273438 5.746094 -4.226562 5.683594 -4.226562 C 5.621094 -4.226562 5.566406 -4.246094 5.523438 -4.285156 C 5.476562 -4.328125 5.445312 -4.378906 5.425781 -4.441406 C 5.269531 -4.808594 5.066406 -5.058594 4.816406 -5.191406 Z M 1.980469 -2.203125 L 1.226562 -2.203125 C 1.019531 -2.203125 0.855469 -2.175781 0.730469 -2.125 L 0.492188 -2.449219 C 0.675781 -2.417969 0.875 -2.40625 1.089844 -2.40625 L 2.96875 -2.40625 L 3.351562 -2.882812 L 3.777344 -2.363281 C 3.8125 -2.320312 3.828125 -2.28125 3.828125 -2.25 C 3.828125 -2.21875 3.792969 -2.203125 3.726562 -2.203125 L 2.464844 -2.203125 L 2.464844 -0.261719 L 4.269531 -0.714844 L 4.296875 -0.59375 L 1.839844 0.339844 C 1.378906 0.519531 1.109375 0.625 1.03125 0.664062 C 0.957031 0.703125 0.890625 0.742188 0.839844 0.789062 C 0.789062 0.832031 0.757812 0.851562 0.738281 0.851562 C 0.71875 0.851562 0.699219 0.835938 0.679688 0.800781 L 0.367188 0.261719 L 1.980469 -0.144531 Z "/>
</g>
<g id="glyph-0-11">
<path d="M 3.609375 -3.804688 C 3.722656 -3.804688 3.8125 -3.769531 3.886719 -3.703125 C 3.957031 -3.632812 3.992188 -3.542969 3.992188 -3.429688 C 3.992188 -3.320312 3.957031 -3.230469 3.886719 -3.15625 C 3.8125 -3.085938 3.722656 -3.046875 3.609375 -3.046875 C 3.5 -3.046875 3.410156 -3.085938 3.335938 -3.15625 C 3.265625 -3.226562 3.230469 -3.320312 3.230469 -3.429688 C 3.230469 -3.542969 3.265625 -3.632812 3.335938 -3.703125 C 3.410156 -3.773438 3.5 -3.804688 3.609375 -3.804688 Z M 3.609375 -1.191406 C 3.722656 -1.191406 3.8125 -1.15625 3.886719 -1.082031 C 3.957031 -1.011719 3.992188 -0.917969 3.992188 -0.808594 C 3.992188 -0.699219 3.957031 -0.605469 3.886719 -0.535156 C 3.8125 -0.460938 3.722656 -0.425781 3.609375 -0.425781 C 3.5 -0.425781 3.410156 -0.460938 3.335938 -0.535156 C 3.265625 -0.605469 3.230469 -0.699219 3.230469 -0.808594 C 3.230469 -0.917969 3.265625 -1.011719 3.335938 -1.082031 C 3.410156 -1.15625 3.5 -1.191406 3.609375 -1.191406 Z "/>
</g>
<g id="glyph-0-12">
<path d="M 4.015625 -5.53125 C 4.265625 -5.480469 4.457031 -5.414062 4.582031 -5.335938 C 4.710938 -5.261719 4.773438 -5.160156 4.773438 -5.042969 C 4.773438 -4.765625 4.683594 -4.628906 4.507812 -4.628906 C 4.363281 -4.628906 4.269531 -4.734375 4.234375 -4.949219 C 4.195312 -5.160156 4.105469 -5.332031 3.964844 -5.460938 Z M 0.988281 -5.164062 C 1.25 -5.117188 1.476562 -5.019531 1.664062 -4.871094 C 1.855469 -4.726562 1.949219 -4.589844 1.949219 -4.46875 C 1.949219 -4.34375 1.914062 -4.230469 1.839844 -4.128906 C 1.769531 -4.023438 1.699219 -3.972656 1.632812 -3.972656 C 1.53125 -3.972656 1.464844 -4.042969 1.429688 -4.1875 C 1.386719 -4.417969 1.332031 -4.589844 1.261719 -4.703125 C 1.191406 -4.8125 1.082031 -4.929688 0.9375 -5.054688 Z M 2.789062 -4.363281 C 2.769531 -4.175781 2.714844 -4.011719 2.625 -3.871094 C 2.535156 -3.730469 2.429688 -3.660156 2.304688 -3.660156 C 2.257812 -3.660156 2.199219 -3.675781 2.132812 -3.707031 C 2.070312 -3.738281 2.035156 -3.792969 2.035156 -3.867188 C 2.035156 -3.941406 2.085938 -4.027344 2.179688 -4.117188 C 2.335938 -4.25 2.4375 -4.367188 2.492188 -4.460938 C 2.542969 -4.554688 2.589844 -4.675781 2.621094 -4.824219 L 2.75 -4.832031 C 2.773438 -4.722656 2.789062 -4.628906 2.789062 -4.558594 L 6.140625 -4.558594 L 6.433594 -4.902344 L 7.019531 -4.425781 C 7.0625 -4.394531 7.085938 -4.359375 7.085938 -4.328125 C 7.085938 -4.292969 7.03125 -4.273438 6.917969 -4.269531 C 6.683594 -4.253906 6.398438 -4.128906 6.058594 -3.894531 L 5.988281 -3.957031 L 6.285156 -4.363281 Z M 5.734375 -0.5625 L 3.113281 -0.5625 C 3.113281 -0.460938 3.097656 -0.390625 3.070312 -0.355469 C 3.039062 -0.316406 2.980469 -0.273438 2.890625 -0.222656 C 2.796875 -0.175781 2.730469 -0.152344 2.6875 -0.152344 C 2.640625 -0.152344 2.613281 -0.183594 2.613281 -0.242188 C 2.613281 -0.300781 2.617188 -0.410156 2.625 -0.570312 C 2.632812 -0.730469 2.636719 -0.984375 2.636719 -1.335938 L 2.636719 -2.324219 C 2.636719 -2.519531 2.628906 -2.734375 2.613281 -2.976562 L 3.171875 -2.652344 L 4.167969 -2.652344 L 4.167969 -3.429688 L 3.386719 -3.429688 C 3.199219 -3.429688 3.039062 -3.40625 2.902344 -3.359375 L 2.65625 -3.660156 C 2.835938 -3.636719 3.035156 -3.625 3.25 -3.625 L 5.410156 -3.625 L 5.777344 -4.066406 L 6.183594 -3.582031 C 6.210938 -3.542969 6.226562 -3.507812 6.226562 -3.476562 C 6.226562 -3.445312 6.195312 -3.429688 6.132812 -3.429688 L 4.617188 -3.429688 L 4.617188 -2.652344 L 5.640625 -2.652344 L 5.90625 -3.011719 L 6.390625 -2.652344 C 6.441406 -2.613281 6.464844 -2.582031 6.464844 -2.5625 C 6.464844 -2.554688 6.441406 -2.53125 6.390625 -2.492188 L 6.21875 -2.367188 L 6.21875 -1.421875 C 6.21875 -1.28125 6.222656 -1.144531 6.234375 -1.003906 L 6.261719 -0.636719 C 6.261719 -0.59375 6.246094 -0.554688 6.210938 -0.523438 C 6.175781 -0.492188 6.105469 -0.449219 5.996094 -0.390625 C 5.882812 -0.332031 5.8125 -0.304688 5.78125 -0.304688 C 5.75 -0.304688 5.734375 -0.335938 5.734375 -0.40625 Z M 4.617188 -1.746094 L 5.734375 -1.746094 L 5.734375 -2.46875 L 4.617188 -2.46875 Z M 3.113281 -1.746094 L 4.167969 -1.746094 L 4.167969 -2.46875 L 3.113281 -2.46875 Z M 5.734375 -1.566406 L 4.617188 -1.566406 L 4.617188 -0.738281 L 5.734375 -0.738281 Z M 4.167969 -1.566406 L 3.113281 -1.566406 L 3.113281 -0.738281 L 4.167969 -0.738281 Z M 0.492188 -3.546875 C 0.789062 -3.46875 1.015625 -3.375 1.171875 -3.269531 C 1.328125 -3.160156 1.410156 -3.046875 1.410156 -2.929688 C 1.410156 -2.8125 1.367188 -2.691406 1.289062 -2.574219 C 1.210938 -2.457031 1.148438 -2.398438 1.101562 -2.398438 C 1.054688 -2.398438 1.015625 -2.421875 0.984375 -2.464844 C 0.953125 -2.511719 0.933594 -2.582031 0.925781 -2.671875 C 0.914062 -2.765625 0.863281 -2.890625 0.773438 -3.046875 C 0.679688 -3.207031 0.566406 -3.34375 0.425781 -3.460938 Z M 2.289062 -3.308594 L 1.660156 -1.359375 C 1.574219 -1.097656 1.53125 -0.855469 1.53125 -0.632812 C 1.53125 -0.410156 1.546875 -0.144531 1.574219 0.15625 C 1.601562 0.457031 1.617188 0.613281 1.617188 0.628906 C 1.617188 0.773438 1.585938 0.886719 1.527344 0.96875 C 1.46875 1.050781 1.386719 1.089844 1.28125 1.089844 C 1.179688 1.089844 1.089844 1.050781 1.011719 0.972656 C 0.933594 0.890625 0.894531 0.800781 0.894531 0.699219 C 0.894531 0.597656 0.90625 0.511719 0.933594 0.433594 C 1.050781 0.046875 1.113281 -0.214844 1.113281 -0.355469 C 1.113281 -0.492188 1.070312 -0.605469 0.984375 -0.691406 C 0.902344 -0.773438 0.746094 -0.875 0.519531 -0.996094 L 0.542969 -1.113281 C 0.738281 -1.074219 0.882812 -1.054688 0.96875 -1.054688 C 1.054688 -1.054688 1.117188 -1.078125 1.160156 -1.121094 C 1.199219 -1.164062 1.246094 -1.246094 1.300781 -1.363281 L 2.167969 -3.335938 Z M 4.082031 0.109375 C 4.125 0.148438 4.144531 0.175781 4.144531 0.195312 C 4.144531 0.214844 4.113281 0.230469 4.042969 0.238281 C 3.976562 0.246094 3.832031 0.308594 3.609375 0.417969 C 2.976562 0.742188 2.3125 1.011719 1.617188 1.226562 L 1.582031 1.132812 C 2.394531 0.699219 3.109375 0.242188 3.71875 -0.238281 Z M 4.757812 -0.144531 C 5.304688 -0.0429688 5.722656 0.0664062 6.019531 0.179688 C 6.316406 0.296875 6.503906 0.390625 6.578125 0.46875 C 6.65625 0.546875 6.695312 0.632812 6.695312 0.730469 C 6.695312 0.824219 6.675781 0.921875 6.632812 1.015625 C 6.59375 1.109375 6.53125 1.15625 6.449219 1.15625 C 6.367188 1.15625 6.296875 1.117188 6.234375 1.039062 C 6.003906 0.765625 5.773438 0.550781 5.542969 0.402344 C 5.316406 0.25 5.035156 0.105469 4.703125 -0.0351562 Z "/>
</g>
<g id="glyph-0-13">
<path d="M 1.660156 -4.363281 C 1.308594 -3.976562 0.894531 -3.585938 0.410156 -3.191406 L 0.339844 -3.285156 C 0.949219 -3.945312 1.449219 -4.6875 1.835938 -5.511719 L 2.390625 -5.191406 C 2.453125 -5.152344 2.484375 -5.121094 2.484375 -5.09375 C 2.484375 -5.0625 2.4375 -5.039062 2.339844 -5.019531 C 2.242188 -5 2.160156 -4.945312 2.09375 -4.855469 C 2.027344 -4.761719 1.941406 -4.660156 1.835938 -4.550781 L 3.003906 -4.550781 L 3.386719 -5 L 3.828125 -4.472656 C 3.851562 -4.441406 3.863281 -4.417969 3.863281 -4.394531 C 3.863281 -4.375 3.835938 -4.363281 3.785156 -4.363281 L 2.441406 -4.363281 C 2.695312 -4.195312 2.824219 -4.027344 2.824219 -3.855469 C 2.824219 -3.785156 2.796875 -3.71875 2.742188 -3.65625 C 2.6875 -3.59375 2.628906 -3.5625 2.570312 -3.5625 C 2.488281 -3.5625 2.4375 -3.621094 2.417969 -3.742188 C 2.378906 -4 2.324219 -4.207031 2.246094 -4.363281 Z M 4.40625 -4.382812 C 4.101562 -4.027344 3.804688 -3.734375 3.511719 -3.503906 L 3.410156 -3.597656 C 3.867188 -4.140625 4.238281 -4.769531 4.527344 -5.480469 L 5.042969 -5.1875 C 5.105469 -5.148438 5.136719 -5.117188 5.136719 -5.09375 C 5.136719 -5.070312 5.105469 -5.050781 5.042969 -5.042969 C 4.921875 -5.023438 4.804688 -4.925781 4.6875 -4.753906 L 4.558594 -4.570312 L 5.871094 -4.570312 L 6.304688 -5.085938 L 6.773438 -4.535156 C 6.8125 -4.488281 6.832031 -4.449219 6.832031 -4.425781 C 6.832031 -4.398438 6.796875 -4.382812 6.722656 -4.382812 L 5.191406 -4.382812 C 5.292969 -4.296875 5.359375 -4.226562 5.386719 -4.171875 C 5.417969 -4.117188 5.429688 -4.054688 5.429688 -3.984375 C 5.429688 -3.914062 5.402344 -3.847656 5.347656 -3.789062 C 5.292969 -3.726562 5.230469 -3.699219 5.15625 -3.699219 C 5.085938 -3.699219 5.042969 -3.769531 5.03125 -3.914062 C 5.019531 -4.058594 4.980469 -4.214844 4.910156 -4.382812 Z M 5.035156 -1.386719 L 2.136719 -1.386719 C 2.136719 -1.28125 2.125 -1.207031 2.101562 -1.167969 C 2.078125 -1.125 2.011719 -1.082031 1.902344 -1.035156 C 1.792969 -0.992188 1.71875 -0.96875 1.675781 -0.96875 C 1.632812 -0.96875 1.609375 -0.988281 1.609375 -1.03125 C 1.609375 -1.074219 1.617188 -1.132812 1.625 -1.207031 C 1.664062 -1.472656 1.683594 -1.765625 1.683594 -2.085938 L 1.683594 -3.070312 C 1.683594 -3.296875 1.675781 -3.535156 1.660156 -3.792969 L 2.222656 -3.488281 L 4.96875 -3.488281 L 5.113281 -3.675781 L 5.605469 -3.429688 C 5.640625 -3.40625 5.65625 -3.382812 5.65625 -3.363281 C 5.65625 -3.339844 5.636719 -3.316406 5.605469 -3.285156 L 5.523438 -3.199219 L 5.523438 -2.296875 C 5.523438 -2.109375 5.53125 -1.949219 5.539062 -1.8125 L 5.570312 -1.472656 C 5.570312 -1.371094 5.5 -1.304688 5.363281 -1.265625 C 5.226562 -1.230469 5.140625 -1.214844 5.113281 -1.214844 C 5.085938 -1.214844 5.0625 -1.226562 5.050781 -1.25 C 5.039062 -1.273438 5.035156 -1.320312 5.035156 -1.386719 Z M 2.136719 -2.882812 L 5.035156 -2.882812 L 5.035156 -3.292969 L 2.136719 -3.292969 Z M 5.035156 -2.6875 L 2.136719 -2.6875 L 2.136719 -2.222656 L 5.035156 -2.222656 Z M 2.136719 -1.574219 L 5.035156 -1.574219 L 5.035156 -2.03125 L 2.136719 -2.03125 Z M 4.976562 -0.5 L 4.976562 0.0078125 C 4.976562 0.199219 4.984375 0.375 5 0.527344 L 5.042969 0.902344 C 5.042969 0.980469 4.96875 1.046875 4.824219 1.109375 C 4.679688 1.167969 4.585938 1.199219 4.542969 1.199219 C 4.5 1.199219 4.476562 1.140625 4.476562 1.019531 L 4.484375 0.121094 L 4.484375 -0.5 L 2.882812 -0.5 C 2.808594 0.0390625 2.589844 0.425781 2.226562 0.652344 C 1.863281 0.882812 1.226562 1.046875 0.3125 1.148438 L 0.296875 1.011719 C 0.996094 0.886719 1.507812 0.707031 1.835938 0.476562 C 2.164062 0.246094 2.351562 -0.078125 2.40625 -0.5 L 0.960938 -0.5 C 0.769531 -0.5 0.605469 -0.472656 0.476562 -0.425781 L 0.230469 -0.722656 C 0.410156 -0.695312 0.605469 -0.679688 0.824219 -0.679688 L 2.425781 -0.679688 C 2.445312 -0.851562 2.457031 -1.070312 2.464844 -1.335938 L 3.046875 -1.15625 C 3.125 -1.132812 3.164062 -1.105469 3.164062 -1.078125 C 3.164062 -1.046875 3.132812 -1.015625 3.070312 -0.980469 C 3.007812 -0.941406 2.953125 -0.84375 2.910156 -0.679688 L 4.484375 -0.679688 C 4.484375 -0.949219 4.476562 -1.152344 4.457031 -1.292969 L 5.011719 -1.097656 C 5.074219 -1.074219 5.105469 -1.050781 5.105469 -1.027344 C 5.105469 -1.003906 5.078125 -0.976562 5.027344 -0.945312 L 4.976562 -0.925781 L 4.976562 -0.679688 L 5.964844 -0.679688 L 6.433594 -1.242188 L 6.941406 -0.644531 C 6.976562 -0.609375 6.992188 -0.578125 6.992188 -0.546875 C 6.992188 -0.515625 6.960938 -0.5 6.90625 -0.5 Z "/>
</g>
<g id="glyph-0-14">
<path d="M 7.007812 -2.128906 C 7.09375 -2.035156 7.078125 -1.984375 6.960938 -1.984375 L 2.847656 -1.984375 C 2.734375 -1.984375 2.648438 -1.980469 2.582031 -1.96875 C 2.515625 -1.957031 2.449219 -1.9375 2.382812 -1.914062 L 2.136719 -2.21875 C 2.25 -2.203125 2.347656 -2.191406 2.429688 -2.1875 C 2.515625 -2.183594 2.605469 -2.179688 2.703125 -2.179688 L 4.101562 -2.179688 L 4.101562 -3.65625 L 3.402344 -3.65625 C 3.292969 -3.65625 3.203125 -3.648438 3.132812 -3.636719 C 3.066406 -3.625 3 -3.605469 2.933594 -3.582031 L 2.6875 -3.886719 C 2.796875 -3.871094 2.894531 -3.863281 2.984375 -3.855469 C 3.070312 -3.851562 3.164062 -3.851562 3.265625 -3.851562 L 4.101562 -3.851562 L 4.101562 -4.757812 C 4.101562 -5.019531 4.09375 -5.277344 4.082031 -5.53125 L 4.746094 -5.332031 C 4.8125 -5.308594 4.851562 -5.28125 4.863281 -5.253906 C 4.875 -5.226562 4.851562 -5.1875 4.789062 -5.136719 L 4.628906 -5.011719 L 4.628906 -3.851562 L 5.605469 -3.851562 L 5.996094 -4.339844 L 6.433594 -3.800781 C 6.515625 -3.703125 6.5 -3.65625 6.386719 -3.65625 L 4.628906 -3.65625 L 4.628906 -2.179688 L 6.117188 -2.179688 L 6.535156 -2.707031 Z M 6.449219 0.707031 C 6.339844 0.890625 6.234375 0.976562 6.140625 0.96875 C 6.042969 0.957031 5.964844 0.839844 5.90625 0.613281 C 5.882812 0.515625 5.859375 0.429688 5.835938 0.347656 C 5.8125 0.265625 5.78125 0.183594 5.742188 0.101562 L 3.597656 0.492188 C 3.542969 0.5 3.480469 0.515625 3.40625 0.535156 C 3.332031 0.554688 3.257812 0.574219 3.179688 0.597656 C 3.105469 0.621094 3.039062 0.648438 2.976562 0.671875 C 2.914062 0.695312 2.863281 0.714844 2.832031 0.730469 C 2.789062 0.753906 2.753906 0.761719 2.730469 0.757812 C 2.707031 0.753906 2.683594 0.726562 2.65625 0.671875 L 2.367188 0.117188 C 2.445312 0.117188 2.523438 0.117188 2.597656 0.117188 C 2.671875 0.117188 2.746094 0.113281 2.816406 0.109375 C 2.953125 -0.0703125 3.070312 -0.238281 3.179688 -0.394531 C 3.285156 -0.550781 3.386719 -0.707031 3.480469 -0.867188 C 3.578125 -1.027344 3.675781 -1.195312 3.773438 -1.371094 C 3.871094 -1.550781 3.984375 -1.75 4.109375 -1.972656 L 4.59375 -1.648438 C 4.714844 -1.5625 4.710938 -1.496094 4.585938 -1.457031 C 4.558594 -1.449219 4.523438 -1.433594 4.488281 -1.410156 C 4.453125 -1.390625 4.410156 -1.351562 4.363281 -1.300781 C 4.226562 -1.140625 4.109375 -1 4.003906 -0.875 C 3.902344 -0.75 3.804688 -0.632812 3.710938 -0.523438 C 3.621094 -0.414062 3.53125 -0.3125 3.449219 -0.214844 C 3.363281 -0.113281 3.277344 -0.0117188 3.183594 0.09375 L 5.667969 -0.0585938 C 5.597656 -0.191406 5.503906 -0.339844 5.382812 -0.496094 C 5.265625 -0.652344 5.105469 -0.839844 4.902344 -1.0625 L 4.960938 -1.164062 C 5.179688 -1.023438 5.367188 -0.898438 5.523438 -0.785156 C 5.683594 -0.671875 5.820312 -0.566406 5.929688 -0.464844 C 6.039062 -0.367188 6.132812 -0.273438 6.210938 -0.1875 C 6.289062 -0.101562 6.355469 -0.015625 6.40625 0.0703125 C 6.472656 0.175781 6.511719 0.289062 6.519531 0.40625 C 6.527344 0.527344 6.503906 0.625 6.449219 0.707031 Z M 1.890625 -1.777344 C 1.824219 -1.578125 1.769531 -1.402344 1.730469 -1.25 C 1.6875 -1.09375 1.660156 -0.9375 1.648438 -0.78125 C 1.632812 -0.621094 1.628906 -0.449219 1.636719 -0.261719 C 1.644531 -0.078125 1.660156 0.140625 1.683594 0.398438 C 1.710938 0.664062 1.699219 0.847656 1.648438 0.949219 C 1.59375 1.054688 1.515625 1.105469 1.414062 1.105469 C 1.289062 1.105469 1.203125 1.058594 1.148438 0.96875 C 1.09375 0.875 1.085938 0.703125 1.121094 0.449219 C 1.160156 0.164062 1.183594 -0.0625 1.191406 -0.226562 C 1.203125 -0.394531 1.1875 -0.519531 1.152344 -0.609375 C 1.117188 -0.699219 1.054688 -0.765625 0.96875 -0.804688 C 0.882812 -0.847656 0.761719 -0.882812 0.613281 -0.910156 L 0.628906 -1.027344 C 0.761719 -1.03125 0.871094 -1.039062 0.957031 -1.054688 C 1.042969 -1.070312 1.113281 -1.101562 1.171875 -1.148438 C 1.226562 -1.195312 1.28125 -1.265625 1.332031 -1.359375 C 1.382812 -1.449219 1.445312 -1.578125 1.515625 -1.742188 L 2.679688 -4.441406 L 2.808594 -4.390625 Z M 2.109375 -4.390625 C 2.109375 -4.257812 2.078125 -4.140625 2.011719 -4.042969 C 1.945312 -3.941406 1.878906 -3.894531 1.804688 -3.894531 C 1.738281 -3.894531 1.6875 -3.910156 1.652344 -3.941406 C 1.621094 -3.972656 1.589844 -4.035156 1.566406 -4.132812 C 1.535156 -4.238281 1.503906 -4.332031 1.472656 -4.414062 C 1.445312 -4.496094 1.410156 -4.570312 1.367188 -4.644531 C 1.328125 -4.714844 1.277344 -4.789062 1.214844 -4.859375 C 1.152344 -4.933594 1.074219 -5.015625 0.980469 -5.113281 L 1.027344 -5.199219 C 1.234375 -5.148438 1.40625 -5.089844 1.546875 -5.03125 C 1.6875 -4.96875 1.796875 -4.90625 1.882812 -4.839844 C 1.964844 -4.773438 2.023438 -4.699219 2.058594 -4.625 C 2.09375 -4.550781 2.109375 -4.472656 2.109375 -4.390625 Z M 1.558594 -2.773438 C 1.558594 -2.625 1.527344 -2.496094 1.457031 -2.382812 C 1.390625 -2.273438 1.324219 -2.21875 1.257812 -2.21875 C 1.191406 -2.21875 1.140625 -2.234375 1.117188 -2.269531 C 1.089844 -2.300781 1.070312 -2.371094 1.054688 -2.476562 C 1.046875 -2.578125 1.03125 -2.667969 1.011719 -2.742188 C 0.992188 -2.816406 0.964844 -2.890625 0.925781 -2.960938 C 0.886719 -3.035156 0.835938 -3.109375 0.773438 -3.183594 C 0.710938 -3.261719 0.628906 -3.351562 0.535156 -3.453125 L 0.585938 -3.5625 C 0.777344 -3.503906 0.9375 -3.441406 1.0625 -3.378906 C 1.1875 -3.316406 1.285156 -3.253906 1.363281 -3.1875 C 1.4375 -3.125 1.488281 -3.054688 1.515625 -2.988281 C 1.546875 -2.917969 1.558594 -2.847656 1.558594 -2.773438 Z "/>
</g>
<g id="glyph-0-15">
<path d="M 1.523438 -4.710938 L 1.523438 -0.519531 C 1.523438 -0.0546875 1.527344 0.277344 1.535156 0.476562 C 1.542969 0.675781 1.546875 0.78125 1.546875 0.800781 C 1.546875 0.894531 1.46875 0.980469 1.3125 1.058594 C 1.15625 1.136719 1.054688 1.175781 1.011719 1.175781 C 0.96875 1.175781 0.945312 1.125 0.945312 1.027344 L 0.980469 0.28125 C 1 -0.0429688 1.011719 -0.359375 1.011719 -0.679688 L 1.011719 -4.125 C 1.011719 -4.5625 1 -4.949219 0.976562 -5.285156 L 1.691406 -4.902344 L 5.597656 -4.902344 L 5.914062 -5.265625 L 6.390625 -4.789062 C 6.425781 -4.753906 6.441406 -4.726562 6.441406 -4.707031 C 6.441406 -4.683594 6.417969 -4.652344 6.371094 -4.617188 L 6.210938 -4.507812 L 6.210938 0.332031 C 6.210938 0.496094 6.1875 0.621094 6.144531 0.703125 C 6.097656 0.789062 5.988281 0.886719 5.8125 1 C 5.636719 1.113281 5.53125 1.171875 5.496094 1.171875 C 5.460938 1.171875 5.4375 1.132812 5.425781 1.0625 C 5.386719 0.894531 5.308594 0.773438 5.191406 0.699219 C 5.070312 0.628906 4.824219 0.550781 4.441406 0.46875 L 4.449219 0.367188 C 4.757812 0.382812 5.011719 0.390625 5.210938 0.390625 C 5.410156 0.390625 5.542969 0.367188 5.613281 0.324219 C 5.679688 0.28125 5.714844 0.191406 5.714844 0.0507812 L 5.714844 -4.710938 Z M 5.257812 -3.667969 C 5.292969 -3.628906 5.308594 -3.597656 5.308594 -3.566406 C 5.308594 -3.539062 5.277344 -3.523438 5.214844 -3.523438 L 2.507812 -3.523438 C 2.3125 -3.523438 2.15625 -3.5 2.03125 -3.445312 L 1.785156 -3.75 C 1.957031 -3.726562 2.152344 -3.710938 2.367188 -3.710938 L 4.507812 -3.710938 L 4.859375 -4.136719 Z M 4.21875 -0.824219 L 2.894531 -0.824219 L 2.894531 -0.535156 C 2.894531 -0.4375 2.878906 -0.371094 2.847656 -0.335938 C 2.816406 -0.300781 2.753906 -0.261719 2.65625 -0.21875 C 2.554688 -0.179688 2.484375 -0.160156 2.445312 -0.160156 C 2.402344 -0.160156 2.382812 -0.203125 2.382812 -0.289062 L 2.398438 -0.628906 C 2.402344 -0.769531 2.40625 -0.9375 2.40625 -1.140625 L 2.40625 -2.261719 C 2.40625 -2.410156 2.398438 -2.625 2.382812 -2.910156 L 2.953125 -2.59375 L 4.125 -2.59375 L 4.382812 -2.910156 L 4.875 -2.5625 C 4.914062 -2.542969 4.933594 -2.523438 4.933594 -2.503906 C 4.933594 -2.480469 4.914062 -2.457031 4.875 -2.433594 L 4.703125 -2.3125 L 4.703125 -1.421875 C 4.703125 -1.269531 4.707031 -1.125 4.714844 -0.988281 L 4.738281 -0.65625 C 4.738281 -0.585938 4.671875 -0.507812 4.539062 -0.429688 C 4.40625 -0.351562 4.320312 -0.3125 4.28125 -0.3125 C 4.238281 -0.3125 4.21875 -0.34375 4.21875 -0.40625 Z M 2.894531 -1.03125 L 4.21875 -1.03125 L 4.21875 -2.398438 L 2.894531 -2.398438 Z "/>
</g>
<g id="glyph-0-16">
<path d="M 2.875 -1.804688 C 2.878906 -1.679688 2.847656 -1.582031 2.78125 -1.511719 C 2.714844 -1.441406 2.644531 -1.410156 2.578125 -1.410156 C 2.550781 -1.410156 2.519531 -1.425781 2.492188 -1.457031 C 2.464844 -1.488281 2.445312 -1.53125 2.441406 -1.589844 C 2.4375 -1.652344 2.429688 -1.710938 2.425781 -1.761719 C 2.421875 -1.816406 2.414062 -1.867188 2.40625 -1.921875 C 2.15625 -1.847656 1.941406 -1.785156 1.765625 -1.726562 C 1.589844 -1.667969 1.441406 -1.617188 1.324219 -1.566406 C 1.207031 -1.519531 1.117188 -1.476562 1.050781 -1.445312 C 0.984375 -1.410156 0.9375 -1.382812 0.902344 -1.359375 C 0.878906 -1.339844 0.855469 -1.332031 0.835938 -1.332031 C 0.8125 -1.335938 0.789062 -1.359375 0.765625 -1.402344 L 0.460938 -1.878906 C 0.535156 -1.878906 0.601562 -1.878906 0.664062 -1.882812 C 0.726562 -1.882812 0.792969 -1.890625 0.859375 -1.898438 C 1.0625 -2.1875 1.242188 -2.460938 1.40625 -2.710938 C 1.566406 -2.964844 1.703125 -3.1875 1.8125 -3.378906 C 1.523438 -3.285156 1.300781 -3.207031 1.144531 -3.152344 C 0.988281 -3.097656 0.867188 -3.046875 0.789062 -2.996094 C 0.75 -2.964844 0.71875 -2.949219 0.699219 -2.953125 C 0.679688 -2.957031 0.660156 -2.976562 0.636719 -3.011719 L 0.417969 -3.421875 C 0.472656 -3.421875 0.523438 -3.425781 0.574219 -3.425781 C 0.625 -3.429688 0.671875 -3.433594 0.714844 -3.4375 C 0.960938 -3.90625 1.15625 -4.304688 1.296875 -4.636719 C 1.4375 -4.96875 1.535156 -5.246094 1.582031 -5.46875 L 2.136719 -5.105469 C 2.1875 -5.066406 2.207031 -5.035156 2.199219 -5.007812 C 2.191406 -4.980469 2.160156 -4.964844 2.109375 -4.953125 C 2.0625 -4.945312 2.015625 -4.917969 1.96875 -4.867188 C 1.921875 -4.820312 1.878906 -4.765625 1.839844 -4.710938 C 1.714844 -4.527344 1.585938 -4.332031 1.449219 -4.132812 C 1.3125 -3.929688 1.164062 -3.707031 1.003906 -3.460938 L 1.914062 -3.566406 C 1.984375 -3.699219 2.054688 -3.835938 2.121094 -3.980469 C 2.183594 -4.125 2.242188 -4.265625 2.296875 -4.40625 L 2.757812 -4.066406 C 2.835938 -4.007812 2.871094 -3.96875 2.867188 -3.949219 C 2.863281 -3.929688 2.828125 -3.914062 2.757812 -3.894531 C 2.714844 -3.878906 2.664062 -3.839844 2.601562 -3.773438 C 2.539062 -3.707031 2.488281 -3.648438 2.449219 -3.597656 C 2.308594 -3.371094 2.128906 -3.109375 1.902344 -2.808594 C 1.679688 -2.511719 1.445312 -2.21875 1.207031 -1.929688 L 2.375 -2.035156 C 2.34375 -2.148438 2.300781 -2.25 2.253906 -2.34375 C 2.207031 -2.4375 2.144531 -2.535156 2.074219 -2.636719 L 2.117188 -2.722656 C 2.390625 -2.554688 2.585938 -2.390625 2.699219 -2.230469 C 2.8125 -2.074219 2.871094 -1.929688 2.875 -1.804688 Z M 6.898438 0.597656 C 6.964844 0.695312 6.949219 0.742188 6.847656 0.742188 L 3.230469 0.742188 C 3.105469 0.742188 3.007812 0.75 2.941406 0.765625 C 2.871094 0.78125 2.804688 0.800781 2.738281 0.824219 L 2.492188 0.511719 C 2.601562 0.527344 2.703125 0.535156 2.789062 0.542969 C 2.875 0.546875 2.96875 0.550781 3.070312 0.550781 L 4.441406 0.550781 L 4.441406 -0.988281 L 3.734375 -0.988281 C 3.625 -0.988281 3.535156 -0.984375 3.46875 -0.972656 C 3.398438 -0.960938 3.332031 -0.9375 3.265625 -0.902344 L 2.996094 -1.234375 C 3.117188 -1.214844 3.222656 -1.203125 3.308594 -1.199219 C 3.394531 -1.195312 3.492188 -1.191406 3.597656 -1.191406 L 5.734375 -1.191406 L 6.101562 -1.640625 L 6.5 -1.148438 C 6.5625 -1.042969 6.546875 -0.988281 6.449219 -0.988281 L 4.953125 -0.988281 L 4.953125 0.550781 L 6.082031 0.550781 L 6.457031 0.0585938 Z M 5.335938 -2.125 C 5.355469 -2.050781 5.363281 -1.980469 5.355469 -1.910156 C 5.347656 -1.839844 5.332031 -1.777344 5.300781 -1.722656 C 5.273438 -1.667969 5.234375 -1.621094 5.191406 -1.585938 C 5.144531 -1.550781 5.09375 -1.53125 5.042969 -1.53125 C 5.003906 -1.53125 4.972656 -1.542969 4.953125 -1.5625 C 4.933594 -1.585938 4.910156 -1.644531 4.875 -1.742188 C 4.847656 -1.828125 4.808594 -1.910156 4.765625 -1.992188 C 4.722656 -2.074219 4.667969 -2.160156 4.605469 -2.25 C 4.539062 -2.339844 4.460938 -2.433594 4.367188 -2.53125 C 4.273438 -2.628906 4.160156 -2.742188 4.03125 -2.867188 C 4.199219 -3.164062 4.34375 -3.457031 4.464844 -3.742188 C 4.585938 -4.027344 4.667969 -4.269531 4.714844 -4.472656 L 5.285156 -4.261719 C 5.347656 -4.242188 5.378906 -4.21875 5.375 -4.195312 C 5.371094 -4.171875 5.332031 -4.152344 5.265625 -4.132812 L 5.171875 -4.101562 C 5.125 -4.03125 5.066406 -3.945312 5 -3.847656 C 4.929688 -3.746094 4.859375 -3.640625 4.78125 -3.527344 C 4.703125 -3.414062 4.628906 -3.300781 4.550781 -3.1875 C 4.472656 -3.074219 4.402344 -2.972656 4.332031 -2.875 C 4.527344 -2.769531 4.683594 -2.679688 4.808594 -2.605469 C 4.929688 -2.53125 5.027344 -2.464844 5.09375 -2.414062 C 5.164062 -2.359375 5.21875 -2.308594 5.25 -2.265625 C 5.285156 -2.21875 5.3125 -2.171875 5.335938 -2.125 Z M 6.527344 -2.144531 C 6.546875 -2.085938 6.558594 -2.027344 6.554688 -1.960938 C 6.550781 -1.894531 6.542969 -1.835938 6.523438 -1.78125 C 6.503906 -1.726562 6.476562 -1.679688 6.441406 -1.644531 C 6.410156 -1.609375 6.371094 -1.589844 6.328125 -1.589844 C 6.285156 -1.589844 6.246094 -1.601562 6.21875 -1.625 C 6.191406 -1.648438 6.164062 -1.695312 6.140625 -1.761719 C 6.027344 -1.984375 5.90625 -2.183594 5.773438 -2.363281 C 5.640625 -2.539062 5.476562 -2.726562 5.28125 -2.925781 C 5.367188 -3.070312 5.445312 -3.207031 5.515625 -3.335938 C 5.585938 -3.464844 5.648438 -3.59375 5.703125 -3.722656 C 5.757812 -3.851562 5.804688 -3.976562 5.847656 -4.101562 C 5.886719 -4.226562 5.925781 -4.359375 5.957031 -4.492188 L 6.449219 -4.238281 C 6.554688 -4.1875 6.546875 -4.132812 6.429688 -4.074219 L 6.335938 -4.03125 C 6.238281 -3.875 6.125 -3.707031 5.992188 -3.515625 C 5.859375 -3.328125 5.71875 -3.132812 5.570312 -2.925781 C 5.746094 -2.820312 5.894531 -2.726562 6.007812 -2.652344 C 6.125 -2.574219 6.21875 -2.507812 6.289062 -2.449219 C 6.359375 -2.390625 6.410156 -2.335938 6.445312 -2.289062 C 6.480469 -2.242188 6.511719 -2.191406 6.527344 -2.144531 Z M 4.074219 -4.328125 C 4.125 -4.292969 4.148438 -4.265625 4.140625 -4.242188 C 4.132812 -4.222656 4.105469 -4.203125 4.050781 -4.1875 L 3.972656 -4.167969 C 3.832031 -3.933594 3.699219 -3.707031 3.570312 -3.496094 C 3.445312 -3.285156 3.308594 -3.070312 3.171875 -2.859375 C 3.40625 -2.691406 3.59375 -2.535156 3.738281 -2.394531 C 3.878906 -2.253906 3.964844 -2.128906 3.992188 -2.03125 C 4.015625 -1.945312 4.027344 -1.863281 4.015625 -1.792969 C 4.007812 -1.71875 3.984375 -1.65625 3.953125 -1.601562 C 3.921875 -1.546875 3.882812 -1.503906 3.839844 -1.472656 C 3.792969 -1.445312 3.75 -1.429688 3.707031 -1.429688 C 3.664062 -1.429688 3.628906 -1.449219 3.609375 -1.492188 C 3.585938 -1.53125 3.5625 -1.601562 3.539062 -1.699219 C 3.515625 -1.789062 3.484375 -1.886719 3.441406 -1.992188 C 3.402344 -2.097656 3.351562 -2.203125 3.296875 -2.308594 C 3.242188 -2.410156 3.179688 -2.511719 3.113281 -2.605469 C 3.046875 -2.703125 2.976562 -2.789062 2.910156 -2.867188 C 3.054688 -3.109375 3.1875 -3.378906 3.308594 -3.675781 C 3.429688 -3.976562 3.519531 -4.269531 3.582031 -4.558594 Z M 6.804688 -4.859375 C 6.882812 -4.757812 6.863281 -4.710938 6.746094 -4.710938 L 3.5625 -4.710938 C 3.445312 -4.710938 3.355469 -4.703125 3.285156 -4.691406 C 3.21875 -4.679688 3.148438 -4.65625 3.070312 -4.621094 L 2.824219 -4.953125 C 2.933594 -4.933594 3.035156 -4.921875 3.128906 -4.917969 C 3.21875 -4.914062 3.316406 -4.910156 3.417969 -4.910156 L 5.980469 -4.910156 L 6.371094 -5.386719 Z M 0.960938 -1.003906 C 1.03125 -0.570312 1.054688 -0.210938 1.027344 0.0742188 C 0.996094 0.363281 0.925781 0.5625 0.808594 0.671875 C 0.730469 0.75 0.644531 0.789062 0.546875 0.789062 C 0.445312 0.792969 0.378906 0.761719 0.339844 0.699219 C 0.300781 0.640625 0.285156 0.582031 0.289062 0.519531 C 0.292969 0.457031 0.328125 0.382812 0.398438 0.296875 C 0.527344 0.117188 0.625 -0.0742188 0.695312 -0.285156 C 0.761719 -0.496094 0.804688 -0.734375 0.824219 -1.003906 Z M 3.046875 -0.367188 C 3.058594 -0.238281 3.039062 -0.125 2.988281 -0.0273438 C 2.9375 0.0664062 2.871094 0.117188 2.796875 0.117188 C 2.738281 0.117188 2.695312 0.101562 2.664062 0.0703125 C 2.636719 0.0429688 2.613281 -0.0078125 2.601562 -0.078125 C 2.550781 -0.324219 2.484375 -0.539062 2.398438 -0.71875 C 2.3125 -0.898438 2.207031 -1.070312 2.085938 -1.234375 L 2.167969 -1.308594 C 2.441406 -1.144531 2.65625 -0.972656 2.804688 -0.796875 C 2.957031 -0.621094 3.039062 -0.480469 3.046875 -0.367188 Z M 2.074219 -0.0664062 C 2.074219 0.0585938 2.039062 0.171875 1.96875 0.265625 C 1.898438 0.363281 1.816406 0.410156 1.71875 0.410156 C 1.675781 0.410156 1.640625 0.390625 1.609375 0.355469 C 1.582031 0.316406 1.570312 0.253906 1.582031 0.167969 C 1.605469 -0.0273438 1.605469 -0.230469 1.582031 -0.441406 C 1.558594 -0.652344 1.511719 -0.847656 1.445312 -1.027344 L 1.515625 -1.070312 C 1.726562 -0.851562 1.875 -0.660156 1.953125 -0.496094 C 2.03125 -0.328125 2.074219 -0.183594 2.074219 -0.0664062 Z "/>
</g>
<g id="glyph-0-17">
<path d="M 1.308594 -1.703125 C 1.308594 -1.632812 1.292969 -1.578125 1.265625 -1.542969 C 1.242188 -1.507812 1.179688 -1.46875 1.078125 -1.429688 C 0.980469 -1.390625 0.910156 -1.371094 0.871094 -1.371094 C 0.828125 -1.371094 0.808594 -1.398438 0.808594 -1.449219 C 0.808594 -1.5 0.8125 -1.550781 0.816406 -1.601562 C 0.855469 -1.953125 0.875 -2.363281 0.875 -2.824219 L 0.875 -4.3125 C 0.875 -4.628906 0.867188 -4.921875 0.851562 -5.191406 L 1.285156 -4.882812 L 2.585938 -4.882812 L 2.925781 -5.265625 L 3.335938 -4.816406 C 3.375 -4.777344 3.394531 -4.746094 3.394531 -4.71875 C 3.394531 -4.691406 3.363281 -4.679688 3.300781 -4.679688 L 2.347656 -4.679688 L 2.347656 -3.855469 L 2.511719 -3.855469 L 2.824219 -4.238281 L 3.199219 -3.785156 C 3.226562 -3.742188 3.242188 -3.707031 3.242188 -3.6875 C 3.242188 -3.664062 3.210938 -3.65625 3.140625 -3.65625 L 2.347656 -3.65625 L 2.347656 -2.910156 L 2.5625 -2.910156 L 2.847656 -3.25 L 2.945312 -3.132812 C 3.722656 -3.875 4.316406 -4.683594 4.730469 -5.5625 L 5.25 -5.25 C 5.296875 -5.21875 5.324219 -5.1875 5.324219 -5.15625 C 5.324219 -5.128906 5.300781 -5.109375 5.257812 -5.105469 C 5.214844 -5.101562 5.179688 -5.09375 5.148438 -5.085938 C 5.460938 -4.640625 5.773438 -4.316406 6.078125 -4.105469 C 6.382812 -3.894531 6.730469 -3.761719 7.121094 -3.699219 L 7.121094 -3.582031 C 6.996094 -3.574219 6.890625 -3.546875 6.808594 -3.5 C 6.722656 -3.453125 6.671875 -3.398438 6.652344 -3.332031 C 6.632812 -3.269531 6.605469 -3.234375 6.574219 -3.234375 C 6.5 -3.234375 6.289062 -3.382812 5.941406 -3.671875 C 5.59375 -3.964844 5.28125 -4.40625 5.011719 -5 C 4.984375 -4.976562 4.933594 -4.914062 4.859375 -4.816406 C 4.457031 -4.28125 4.101562 -3.878906 3.800781 -3.605469 C 3.964844 -3.589844 4.125 -3.582031 4.289062 -3.582031 L 5.0625 -3.582031 L 5.394531 -3.980469 L 5.785156 -3.511719 C 5.824219 -3.46875 5.84375 -3.4375 5.84375 -3.417969 C 5.84375 -3.398438 5.808594 -3.386719 5.742188 -3.386719 L 4.441406 -3.386719 C 4.257812 -3.386719 4.09375 -3.359375 3.949219 -3.308594 L 3.742188 -3.554688 C 3.605469 -3.429688 3.371094 -3.25 3.035156 -3.019531 L 3.191406 -2.832031 C 3.222656 -2.792969 3.234375 -2.761719 3.234375 -2.742188 C 3.234375 -2.71875 3.203125 -2.707031 3.132812 -2.707031 L 2.347656 -2.707031 L 2.347656 -1.898438 L 2.550781 -1.898438 L 2.765625 -2.175781 L 3.179688 -1.839844 C 3.226562 -1.800781 3.25 -1.773438 3.25 -1.746094 C 3.25 -1.722656 3.222656 -1.699219 3.164062 -1.667969 L 3.054688 -1.601562 C 3.035156 -0.972656 3.003906 -0.488281 2.964844 -0.152344 C 2.925781 0.183594 2.875 0.410156 2.8125 0.519531 C 2.753906 0.628906 2.644531 0.730469 2.488281 0.820312 C 2.332031 0.910156 2.230469 0.953125 2.1875 0.953125 C 2.144531 0.953125 2.117188 0.925781 2.109375 0.867188 C 2.097656 0.757812 2.046875 0.664062 1.953125 0.59375 C 1.859375 0.519531 1.726562 0.453125 1.554688 0.390625 L 1.589844 0.265625 C 1.84375 0.324219 2.03125 0.355469 2.15625 0.355469 C 2.277344 0.355469 2.367188 0.316406 2.417969 0.238281 C 2.472656 0.160156 2.523438 -0.0390625 2.570312 -0.363281 C 2.617188 -0.6875 2.640625 -1.136719 2.628906 -1.703125 Z M 1.308594 -4.679688 L 1.308594 -3.855469 L 1.898438 -3.855469 L 1.898438 -4.679688 Z M 1.308594 -3.65625 L 1.308594 -2.910156 L 1.898438 -2.910156 L 1.898438 -3.65625 Z M 1.308594 -2.707031 L 1.308594 -1.898438 L 1.898438 -1.898438 L 1.898438 -2.707031 Z M 5.496094 -2.757812 L 6.039062 -2.757812 L 6.21875 -3.011719 L 6.59375 -2.738281 C 6.636719 -2.703125 6.660156 -2.671875 6.660156 -2.648438 C 6.660156 -2.621094 6.640625 -2.597656 6.609375 -2.578125 L 6.492188 -2.535156 L 6.492188 -2.03125 C 6.492188 -1.917969 6.5 -1.792969 6.511719 -1.648438 C 6.523438 -1.507812 6.527344 -1.433594 6.527344 -1.421875 C 6.527344 -1.335938 6.46875 -1.261719 6.351562 -1.199219 C 6.234375 -1.136719 6.160156 -1.105469 6.125 -1.105469 C 6.089844 -1.105469 6.074219 -1.140625 6.074219 -1.207031 L 6.074219 -1.445312 L 5.53125 -1.445312 C 5.53125 -1.351562 5.523438 -1.289062 5.5 -1.25 C 5.476562 -1.210938 5.425781 -1.175781 5.335938 -1.140625 C 5.25 -1.105469 5.191406 -1.089844 5.164062 -1.089844 C 5.109375 -1.089844 5.085938 -1.121094 5.085938 -1.183594 C 5.085938 -1.246094 5.089844 -1.34375 5.09375 -1.476562 C 5.101562 -1.609375 5.105469 -1.765625 5.105469 -1.949219 L 5.105469 -2.347656 C 5.105469 -2.539062 5.097656 -2.765625 5.085938 -3.019531 Z M 6.074219 -1.648438 L 6.074219 -2.558594 L 5.53125 -2.558594 L 5.53125 -1.648438 Z M 3.800781 -2.75 L 4.320312 -2.75 L 4.515625 -3.011719 L 4.875 -2.765625 C 4.914062 -2.742188 4.933594 -2.71875 4.933594 -2.699219 C 4.933594 -2.675781 4.917969 -2.65625 4.882812 -2.636719 L 4.789062 -2.585938 L 4.789062 -2.222656 C 4.789062 -2.054688 4.792969 -1.90625 4.804688 -1.769531 L 4.824219 -1.421875 C 4.824219 -1.332031 4.769531 -1.257812 4.660156 -1.203125 C 4.546875 -1.148438 4.472656 -1.121094 4.433594 -1.121094 C 4.394531 -1.121094 4.375 -1.152344 4.375 -1.214844 L 4.375 -1.410156 L 3.828125 -1.410156 C 3.828125 -1.332031 3.816406 -1.277344 3.789062 -1.242188 C 3.761719 -1.207031 3.707031 -1.171875 3.617188 -1.136719 C 3.53125 -1.101562 3.46875 -1.082031 3.429688 -1.082031 C 3.390625 -1.082031 3.371094 -1.109375 3.371094 -1.167969 C 3.371094 -1.222656 3.378906 -1.308594 3.390625 -1.425781 C 3.402344 -1.542969 3.410156 -1.6875 3.410156 -1.855469 L 3.410156 -2.339844 C 3.410156 -2.53125 3.402344 -2.757812 3.386719 -3.011719 Z M 4.375 -1.609375 L 4.375 -2.550781 L 3.828125 -2.550781 L 3.828125 -1.609375 Z M 1.992188 -1.445312 C 2.363281 -1.222656 2.550781 -0.984375 2.550781 -0.730469 C 2.550781 -0.65625 2.53125 -0.597656 2.5 -0.550781 C 2.464844 -0.5 2.425781 -0.476562 2.382812 -0.476562 C 2.339844 -0.476562 2.308594 -0.492188 2.289062 -0.523438 C 2.269531 -0.554688 2.257812 -0.605469 2.246094 -0.679688 C 2.21875 -0.902344 2.117188 -1.132812 1.941406 -1.378906 Z M 1.507812 -1.359375 C 1.707031 -1.210938 1.855469 -1.058594 1.953125 -0.910156 C 2.050781 -0.761719 2.101562 -0.636719 2.101562 -0.542969 C 2.101562 -0.445312 2.074219 -0.367188 2.019531 -0.304688 C 1.964844 -0.242188 1.90625 -0.210938 1.847656 -0.210938 C 1.777344 -0.210938 1.742188 -0.292969 1.742188 -0.460938 C 1.742188 -0.574219 1.710938 -0.710938 1.648438 -0.871094 C 1.589844 -1.03125 1.511719 -1.171875 1.414062 -1.285156 Z M 1.121094 -1.242188 C 1.402344 -0.9375 1.546875 -0.625 1.546875 -0.304688 C 1.546875 -0.226562 1.515625 -0.15625 1.457031 -0.0898438 C 1.394531 -0.0234375 1.339844 0.0078125 1.289062 0.0078125 C 1.238281 0.0078125 1.203125 -0.015625 1.179688 -0.0664062 C 1.160156 -0.113281 1.152344 -0.171875 1.164062 -0.246094 C 1.171875 -0.316406 1.175781 -0.398438 1.175781 -0.484375 C 1.175781 -0.777344 1.128906 -1.011719 1.03125 -1.191406 Z M 4.136719 -0.46875 C 3.859375 0.0859375 3.433594 0.597656 2.859375 1.078125 L 2.75 0.980469 C 3.296875 0.378906 3.703125 -0.347656 3.972656 -1.199219 L 4.476562 -0.960938 C 4.546875 -0.921875 4.578125 -0.890625 4.578125 -0.867188 C 4.578125 -0.84375 4.53125 -0.808594 4.429688 -0.769531 C 4.332031 -0.726562 4.257812 -0.667969 4.210938 -0.59375 C 4.460938 -0.511719 4.628906 -0.429688 4.710938 -0.355469 C 4.796875 -0.277344 4.839844 -0.1875 4.839844 -0.0859375 C 4.839844 0.015625 4.820312 0.09375 4.78125 0.15625 C 4.742188 0.214844 4.699219 0.246094 4.648438 0.246094 C 4.597656 0.246094 4.558594 0.230469 4.535156 0.195312 C 4.511719 0.160156 4.488281 0.101562 4.464844 0.015625 C 4.414062 -0.140625 4.308594 -0.300781 4.136719 -0.46875 Z M 0.835938 -1.175781 C 0.875 -0.898438 0.894531 -0.640625 0.894531 -0.402344 C 0.894531 -0.164062 0.851562 0.0273438 0.761719 0.171875 C 0.671875 0.316406 0.5625 0.390625 0.433594 0.390625 C 0.394531 0.390625 0.355469 0.378906 0.3125 0.355469 C 0.269531 0.332031 0.246094 0.289062 0.246094 0.226562 C 0.246094 0.167969 0.296875 0.078125 0.394531 -0.0429688 C 0.492188 -0.164062 0.574219 -0.324219 0.636719 -0.527344 C 0.699219 -0.730469 0.730469 -0.941406 0.730469 -1.164062 Z M 5.65625 -0.273438 C 5.34375 0.222656 4.941406 0.683594 4.449219 1.113281 L 4.332031 1.027344 C 4.632812 0.683594 4.871094 0.355469 5.046875 0.0390625 C 5.222656 -0.277344 5.394531 -0.679688 5.5625 -1.171875 L 6.066406 -0.925781 C 6.125 -0.902344 6.152344 -0.875 6.152344 -0.84375 C 6.152344 -0.816406 6.117188 -0.789062 6.042969 -0.769531 C 5.96875 -0.746094 5.863281 -0.625 5.734375 -0.40625 C 6.25 -0.144531 6.5625 0.0546875 6.667969 0.191406 C 6.773438 0.328125 6.824219 0.457031 6.824219 0.578125 C 6.824219 0.699219 6.800781 0.789062 6.753906 0.847656 C 6.707031 0.910156 6.648438 0.9375 6.582031 0.9375 C 6.519531 0.9375 6.460938 0.867188 6.410156 0.71875 C 6.359375 0.570312 6.265625 0.40625 6.128906 0.222656 C 5.992188 0.0390625 5.832031 -0.125 5.65625 -0.273438 Z "/>
</g>
</g>
<image id="source-175" x="0" y="0" width="0" height="0"/>
<mask id="mask-0">
<use xlink:href="#source-175"/>
</mask>
</defs>
<g fill="rgb(50.588235%, 78.039216%, 51.764706%)" fill-opacity="1">
<use xlink:href="#glyph-0-0" x="30" y="27.65625"/>
<use xlink:href="#glyph-0-1" x="33" y="27.65625"/>
<use xlink:href="#glyph-0-1" x="35" y="27.65625"/>
<use xlink:href="#glyph-0-2" x="37" y="27.65625"/>
<use xlink:href="#glyph-0-3" x="44" y="27.65625"/>
<use xlink:href="#glyph-0-4" x="51" y="27.65625"/>
<use xlink:href="#glyph-0-5" x="58" y="27.65625"/>
<use xlink:href="#glyph-0-6" x="65" y="27.65625"/>
<use xlink:href="#glyph-0-7" x="72" y="27.65625"/>
<use xlink:href="#glyph-0-8" x="79" y="27.65625"/>
<use xlink:href="#glyph-0-9" x="86" y="27.65625"/>
<use xlink:href="#glyph-0-10" x="93" y="27.65625"/>
<use xlink:href="#glyph-0-11" x="100" y="27.65625"/>
<use xlink:href="#glyph-0-12" x="107" y="27.65625"/>
<use xlink:href="#glyph-0-13" x="114" y="27.65625"/>
<use xlink:href="#glyph-0-14" x="121" y="27.65625"/>
<use xlink:href="#glyph-0-15" x="128" y="27.65625"/>
<use xlink:href="#glyph-0-16" x="135" y="27.65625"/>
<use xlink:href="#glyph-0-17" x="142" y="27.65625"/>
</g>
</svg>
