<?xml version="1.0" encoding="UTF-8"?>
<svg xmlns="http://www.w3.org/2000/svg" xmlns:xlink="http://www.w3.org/1999/xlink" width="1920" height="1080" viewBox="0 0 1920 1080">
<defs>
<g>
<g id="glyph-0-0">
<path d="M 14.015625 -9.878906 C 13.964844 -9.515625 13.925781 -9.207031 13.898438 -8.953125 C 13.871094 -8.699219 13.839844 -8.4375 13.796875 -8.167969 C 13.726562 -7.773438 13.589844 -7.464844 13.394531 -7.242188 C 13.195312 -7.019531 12.859375 -6.824219 12.382812 -6.65625 C 12.277344 -6.625 12.207031 -6.617188 12.171875 -6.632812 C 12.136719 -6.648438 12.113281 -6.710938 12.101562 -6.8125 C 12.082031 -6.957031 11.953125 -7.128906 11.722656 -7.328125 C 11.488281 -7.523438 11.164062 -7.695312 10.75 -7.839844 L 10.8125 -8.089844 C 11.238281 -8.007812 11.574219 -7.945312 11.824219 -7.910156 C 12.070312 -7.875 12.265625 -7.875 12.40625 -7.917969 C 12.546875 -7.960938 12.644531 -8.035156 12.703125 -8.152344 C 12.757812 -8.265625 12.8125 -8.425781 12.863281 -8.632812 C 12.886719 -8.714844 12.90625 -8.871094 12.925781 -9.09375 C 12.945312 -9.316406 12.984375 -9.664062 13.035156 -10.140625 L 10.765625 -10.140625 C 10.683594 -9.59375 10.582031 -9.117188 10.46875 -8.71875 C 10.355469 -8.320312 10.199219 -7.964844 10.003906 -7.652344 C 9.804688 -7.34375 9.558594 -7.058594 9.261719 -6.804688 C 8.96875 -6.550781 8.597656 -6.285156 8.152344 -6.003906 L 8.011719 -6.222656 C 8.300781 -6.554688 8.550781 -6.867188 8.757812 -7.164062 C 8.964844 -7.460938 9.140625 -7.757812 9.277344 -8.066406 C 9.417969 -8.371094 9.527344 -8.691406 9.605469 -9.03125 C 9.683594 -9.367188 9.742188 -9.738281 9.785156 -10.140625 L 9.007812 -10.140625 C 8.769531 -10.140625 8.574219 -10.128906 8.421875 -10.101562 C 8.273438 -10.078125 8.125 -10.035156 7.980469 -9.972656 L 7.4375 -10.65625 C 7.675781 -10.613281 7.890625 -10.589844 8.082031 -10.578125 C 8.273438 -10.566406 8.476562 -10.5625 8.695312 -10.5625 L 12.832031 -10.5625 L 13.394531 -11.214844 L 14.40625 -10.40625 C 14.589844 -10.25 14.589844 -10.136719 14.40625 -10.066406 Z M 8.058594 -7.824219 C 8.140625 -7.75 8.175781 -7.695312 8.167969 -7.652344 C 8.15625 -7.613281 8.105469 -7.558594 8.011719 -7.496094 L 7.792969 -7.390625 L 7.792969 0.328125 C 7.792969 0.503906 7.78125 0.652344 7.753906 0.777344 C 7.726562 0.902344 7.683594 1.023438 7.621094 1.136719 C 7.558594 1.25 7.472656 1.359375 7.367188 1.46875 C 7.257812 1.578125 7.121094 1.707031 6.953125 1.851562 C 6.839844 1.933594 6.746094 1.960938 6.671875 1.9375 C 6.601562 1.910156 6.554688 1.839844 6.535156 1.726562 C 6.503906 1.519531 6.398438 1.324219 6.222656 1.144531 C 6.046875 0.960938 5.800781 0.824219 5.492188 0.730469 L 5.523438 0.464844 C 5.8125 0.496094 6.039062 0.515625 6.207031 0.519531 C 6.371094 0.527344 6.496094 0.511719 6.578125 0.480469 C 6.664062 0.449219 6.71875 0.398438 6.742188 0.320312 C 6.769531 0.242188 6.78125 0.140625 6.78125 0.015625 L 6.78125 -2.488281 L 3.019531 -2.488281 C 2.988281 -1.90625 2.917969 -1.390625 2.816406 -0.933594 C 2.710938 -0.476562 2.566406 -0.0585938 2.378906 0.328125 C 2.191406 0.710938 1.960938 1.058594 1.6875 1.375 C 1.414062 1.691406 1.089844 1.996094 0.714844 2.285156 L 0.511719 2.179688 C 0.8125 1.753906 1.058594 1.371094 1.253906 1.035156 C 1.445312 0.699219 1.59375 0.363281 1.703125 0.03125 C 1.8125 -0.300781 1.894531 -0.660156 1.945312 -1.042969 C 1.996094 -1.425781 2.03125 -1.878906 2.054688 -2.394531 C 2.085938 -3.121094 2.105469 -3.859375 2.117188 -4.613281 C 2.125 -5.363281 2.121094 -6.195312 2.101562 -7.109375 C 1.925781 -6.871094 1.746094 -6.660156 1.5625 -6.480469 C 1.382812 -6.296875 1.183594 -6.101562 0.964844 -5.894531 L 0.761719 -6.066406 C 1.105469 -6.554688 1.425781 -7.0625 1.726562 -7.589844 C 2.027344 -8.121094 2.300781 -8.644531 2.550781 -9.171875 C 2.800781 -9.695312 3.019531 -10.203125 3.203125 -10.695312 C 3.390625 -11.1875 3.535156 -11.636719 3.640625 -12.039062 L 4.976562 -11.527344 C 5.089844 -11.484375 5.136719 -11.433594 5.117188 -11.371094 C 5.097656 -11.308594 5.03125 -11.261719 4.914062 -11.230469 C 4.832031 -11.210938 4.734375 -11.140625 4.621094 -11.019531 C 4.507812 -10.902344 4.40625 -10.773438 4.324219 -10.640625 C 4.261719 -10.527344 4.199219 -10.414062 4.128906 -10.304688 C 4.0625 -10.195312 4.003906 -10.085938 3.949219 -9.972656 L 5.722656 -9.972656 L 6.441406 -10.5625 L 7.296875 -9.722656 C 7.535156 -9.515625 7.507812 -9.402344 7.21875 -9.378906 C 7.09375 -9.371094 6.984375 -9.351562 6.890625 -9.324219 C 6.796875 -9.300781 6.6875 -9.234375 6.558594 -9.132812 C 6.425781 -9.027344 6.265625 -8.871094 6.074219 -8.664062 C 5.882812 -8.457031 5.632812 -8.175781 5.320312 -7.824219 L 6.640625 -7.824219 L 7.234375 -8.539062 Z M 14.949219 -1.898438 C 15.074219 -1.722656 15.046875 -1.632812 14.871094 -1.632812 L 11.945312 -1.632812 L 11.945312 -1.136719 C 11.945312 -0.515625 11.949219 0.0195312 11.953125 0.457031 C 11.960938 0.898438 11.972656 1.308594 11.992188 1.679688 C 12.003906 1.835938 11.984375 1.953125 11.9375 2.039062 C 11.890625 2.121094 11.738281 2.21875 11.480469 2.332031 C 11.160156 2.476562 10.957031 2.53125 10.875 2.488281 C 10.789062 2.445312 10.765625 2.265625 10.796875 1.945312 C 10.804688 1.777344 10.820312 1.59375 10.835938 1.382812 C 10.851562 1.175781 10.863281 0.929688 10.875 0.644531 C 10.882812 0.359375 10.890625 0.03125 10.898438 -0.34375 C 10.902344 -0.714844 10.90625 -1.144531 10.90625 -1.632812 L 9.410156 -1.632812 C 9.160156 -1.632812 8.960938 -1.621094 8.8125 -1.59375 C 8.660156 -1.566406 8.515625 -1.523438 8.367188 -1.460938 L 7.824219 -2.132812 C 8.0625 -2.089844 8.277344 -2.0625 8.46875 -2.054688 C 8.660156 -2.042969 8.871094 -2.039062 9.101562 -2.039062 L 10.90625 -2.039062 L 10.90625 -4.152344 L 9.441406 -4.152344 C 9.316406 -3.851562 9.164062 -3.535156 8.984375 -3.203125 C 8.800781 -2.871094 8.59375 -2.53125 8.351562 -2.179688 L 8.089844 -2.269531 C 8.214844 -2.59375 8.324219 -2.898438 8.421875 -3.1875 C 8.519531 -3.480469 8.605469 -3.773438 8.671875 -4.066406 C 8.738281 -4.363281 8.796875 -4.671875 8.84375 -4.992188 C 8.890625 -5.316406 8.929688 -5.664062 8.960938 -6.035156 L 10.035156 -5.648438 C 10.179688 -5.59375 10.242188 -5.539062 10.226562 -5.484375 C 10.210938 -5.425781 10.148438 -5.363281 10.035156 -5.289062 C 9.949219 -5.238281 9.871094 -5.152344 9.800781 -5.03125 C 9.726562 -4.914062 9.65625 -4.765625 9.582031 -4.589844 L 10.90625 -4.589844 C 10.90625 -4.910156 10.898438 -5.238281 10.890625 -5.578125 C 10.878906 -5.914062 10.863281 -6.226562 10.84375 -6.519531 L 12.132812 -6.113281 C 12.269531 -6.070312 12.335938 -6.03125 12.335938 -5.988281 C 12.335938 -5.945312 12.269531 -5.875 12.132812 -5.769531 L 11.945312 -5.632812 L 11.945312 -4.589844 L 12.972656 -4.589844 L 13.75 -5.539062 L 14.652344 -4.417969 C 14.714844 -4.304688 14.738281 -4.230469 14.722656 -4.199219 C 14.707031 -4.167969 14.644531 -4.152344 14.527344 -4.152344 L 11.945312 -4.152344 L 11.945312 -2.039062 L 13.222656 -2.039062 L 14.03125 -3.003906 Z M 3.703125 -9.550781 C 3.527344 -9.25 3.363281 -8.980469 3.21875 -8.742188 C 3.074219 -8.503906 2.933594 -8.285156 2.800781 -8.089844 L 3.25 -7.824219 L 4.792969 -7.824219 L 5.722656 -9.550781 Z M 6.78125 -7.40625 L 5.320312 -7.40625 L 5.320312 -5.445312 L 6.78125 -5.445312 Z M 4.339844 -7.40625 L 3.078125 -7.40625 L 3.078125 -5.445312 L 4.339844 -5.445312 Z M 6.78125 -5.007812 L 5.320312 -5.007812 L 5.320312 -2.925781 L 6.78125 -2.925781 Z M 4.339844 -5.007812 L 3.066406 -5.007812 C 3.066406 -4.574219 3.0625 -4.175781 3.058594 -3.8125 C 3.050781 -3.449219 3.042969 -3.152344 3.035156 -2.925781 L 4.339844 -2.925781 Z "/>
</g>
<g id="glyph-0-1">
<path d="M 10.078125 -4.027344 C 10.402344 -2.804688 10.996094 -1.75 11.859375 -0.863281 C 12.726562 0.0234375 13.761719 0.621094 14.964844 0.933594 L 14.996094 1.167969 C 14.3125 1.238281 13.851562 1.484375 13.609375 1.898438 C 13.558594 1.992188 13.496094 2.039062 13.425781 2.039062 C 13.3125 2.039062 12.929688 1.757812 12.28125 1.199219 C 11.632812 0.636719 11.089844 -0.0585938 10.648438 -0.886719 C 10.207031 -1.714844 9.871094 -2.765625 9.644531 -4.027344 L 8.992188 -4.027344 C 8.730469 -2.410156 8.199219 -1.097656 7.398438 -0.09375 C 6.59375 0.914062 5.402344 1.773438 3.828125 2.488281 L 3.71875 2.253906 C 5.078125 1.425781 6.046875 0.550781 6.632812 -0.375 C 7.21875 -1.296875 7.628906 -2.515625 7.855469 -4.027344 L 6.378906 -4.027344 C 5.695312 -4.027344 5.210938 -3.972656 4.929688 -3.859375 L 4.371094 -4.527344 C 4.652344 -4.476562 5.269531 -4.449219 6.222656 -4.449219 L 7.917969 -4.449219 C 8.042969 -5.425781 8.125 -6.695312 8.167969 -8.261719 L 7.28125 -8.261719 C 6.855469 -8.261719 6.496094 -8.203125 6.207031 -8.089844 L 5.664062 -8.757812 C 6.109375 -8.707031 6.519531 -8.679688 6.890625 -8.679688 L 8.167969 -8.679688 C 8.175781 -9.34375 8.144531 -10.410156 8.074219 -11.882812 L 9.582031 -11.277344 C 9.726562 -11.214844 9.800781 -11.152344 9.800781 -11.089844 C 9.800781 -11.027344 9.742188 -10.960938 9.621094 -10.890625 C 9.5 -10.816406 9.421875 -10.730469 9.378906 -10.632812 C 9.339844 -10.535156 9.3125 -10.351562 9.300781 -10.085938 C 9.292969 -9.824219 9.28125 -9.355469 9.269531 -8.679688 L 11.511719 -8.679688 L 12.179688 -9.519531 L 13.222656 -8.695312 C 13.296875 -8.621094 13.332031 -8.5625 13.332031 -8.515625 C 13.332031 -8.46875 13.289062 -8.414062 13.207031 -8.351562 L 12.707031 -8.011719 L 12.707031 -4.449219 L 13.207031 -4.449219 L 14.09375 -5.476562 L 15.042969 -4.308594 C 15.09375 -4.226562 15.121094 -4.160156 15.121094 -4.105469 C 15.121094 -4.054688 15.058594 -4.027344 14.933594 -4.027344 Z M 11.667969 -4.449219 L 11.667969 -8.261719 L 9.269531 -8.261719 C 9.207031 -6.375 9.136719 -5.101562 9.054688 -4.449219 Z M 1.648438 -11.433594 C 3.152344 -11.019531 3.90625 -10.480469 3.90625 -9.816406 C 3.90625 -9.585938 3.828125 -9.371094 3.671875 -9.171875 C 3.515625 -8.96875 3.335938 -8.867188 3.132812 -8.867188 C 2.933594 -8.867188 2.808594 -8.980469 2.769531 -9.207031 C 2.5625 -10.101562 2.148438 -10.773438 1.523438 -11.230469 Z M 5.523438 -9.347656 L 3.65625 -3.140625 C 3.488281 -2.5625 3.40625 -1.980469 3.40625 -1.398438 C 3.40625 -0.820312 3.4375 -0.28125 3.5 0.21875 C 3.5625 0.714844 3.59375 1.015625 3.59375 1.121094 C 3.59375 1.722656 3.351562 2.023438 2.863281 2.023438 C 2.550781 2.023438 2.332031 1.957031 2.207031 1.828125 C 2.082031 1.699219 2.023438 1.519531 2.023438 1.292969 C 2.023438 1.0625 2.058594 0.714844 2.132812 0.25 C 2.203125 -0.21875 2.238281 -0.636719 2.238281 -1.011719 C 2.238281 -1.382812 2.140625 -1.652344 1.945312 -1.8125 C 1.746094 -1.972656 1.375 -2.101562 0.824219 -2.191406 L 0.902344 -2.457031 C 1.222656 -2.425781 1.523438 -2.410156 1.796875 -2.410156 C 2.070312 -2.410156 2.277344 -2.464844 2.417969 -2.566406 C 2.558594 -2.671875 2.6875 -2.871094 2.800781 -3.171875 L 5.242188 -9.410156 Z M 1.167969 -8.167969 C 1.707031 -7.992188 2.132812 -7.792969 2.441406 -7.574219 C 2.753906 -7.355469 2.910156 -7.082031 2.910156 -6.742188 C 2.910156 -6.40625 2.847656 -6.140625 2.730469 -5.941406 C 2.609375 -5.746094 2.425781 -5.648438 2.179688 -5.648438 C 1.929688 -5.648438 1.800781 -5.785156 1.789062 -6.066406 C 1.757812 -6.617188 1.683594 -7 1.570312 -7.21875 C 1.457031 -7.4375 1.28125 -7.667969 1.042969 -7.917969 Z "/>
</g>
<g id="glyph-0-2">
<path d="M 3.078125 -6.253906 L 3.078125 -1.136719 C 3.078125 -0.183594 3.085938 0.535156 3.101562 1.019531 C 3.117188 1.5 3.125 1.757812 3.125 1.789062 C 3.125 2.007812 2.996094 2.1875 2.738281 2.324219 C 2.480469 2.464844 2.277344 2.535156 2.140625 2.535156 C 2 2.535156 1.929688 2.410156 1.929688 2.164062 L 2.007812 0.808594 C 2.039062 0.300781 2.054688 -0.464844 2.054688 -1.492188 L 2.054688 -9.195312 C 2.054688 -10.003906 2.03125 -10.863281 1.992188 -11.777344 L 3.34375 -10.796875 L 5.570312 -10.796875 L 6.050781 -11.433594 L 7.03125 -10.75 C 7.125 -10.675781 7.171875 -10.605469 7.171875 -10.539062 C 7.171875 -10.472656 7.128906 -10.410156 7.046875 -10.359375 L 6.6875 -10.140625 L 6.6875 -7.839844 C 6.6875 -7.476562 6.699219 -7.144531 6.71875 -6.84375 L 6.765625 -6.128906 C 6.765625 -5.953125 6.617188 -5.777344 6.316406 -5.609375 C 6.015625 -5.4375 5.832031 -5.351562 5.769531 -5.351562 C 5.707031 -5.351562 5.679688 -5.429688 5.679688 -5.585938 L 5.679688 -6.253906 Z M 3.078125 -10.359375 L 3.078125 -8.851562 L 5.679688 -8.851562 L 5.679688 -10.359375 Z M 3.078125 -8.414062 L 3.078125 -6.6875 L 5.679688 -6.6875 L 5.679688 -8.414062 Z M 9.988281 -10.78125 L 12.507812 -10.78125 L 12.988281 -11.496094 L 14.09375 -10.6875 C 14.1875 -10.625 14.234375 -10.566406 14.234375 -10.515625 C 14.234375 -10.464844 14.171875 -10.40625 14.046875 -10.34375 L 13.75 -10.171875 L 13.75 0.464844 C 13.75 0.964844 13.707031 1.320312 13.617188 1.539062 C 13.53125 1.757812 13.3125 1.960938 12.964844 2.15625 C 12.617188 2.347656 12.378906 2.441406 12.242188 2.441406 C 12.160156 2.441406 12.109375 2.371094 12.085938 2.222656 C 12.035156 1.921875 11.890625 1.695312 11.652344 1.539062 C 11.414062 1.382812 10.910156 1.191406 10.140625 0.964844 L 10.171875 0.714844 C 10.929688 0.839844 11.460938 0.902344 11.761719 0.902344 C 12.0625 0.902344 12.285156 0.863281 12.4375 0.785156 C 12.585938 0.707031 12.664062 0.492188 12.664062 0.140625 L 12.664062 -6.285156 L 9.785156 -6.285156 L 9.785156 -6.003906 C 9.785156 -5.871094 9.757812 -5.769531 9.699219 -5.699219 C 9.640625 -5.632812 9.496094 -5.546875 9.261719 -5.4375 C 9.03125 -5.328125 8.863281 -5.273438 8.765625 -5.273438 C 8.667969 -5.273438 8.632812 -5.433594 8.664062 -5.753906 C 8.726562 -6.335938 8.757812 -6.804688 8.757812 -7.15625 L 8.757812 -10.171875 C 8.757812 -10.578125 8.742188 -11.058594 8.710938 -11.621094 Z M 12.664062 -8.882812 L 12.664062 -10.34375 L 9.785156 -10.34375 L 9.785156 -8.882812 Z M 12.664062 -6.734375 L 12.664062 -8.445312 L 9.785156 -8.445312 L 9.785156 -6.734375 Z M 6.59375 -4.214844 L 9.132812 -4.214844 L 9.597656 -4.820312 L 10.53125 -4.167969 C 10.636719 -4.105469 10.6875 -4.050781 10.6875 -3.996094 C 10.6875 -3.945312 10.628906 -3.890625 10.515625 -3.828125 L 10.265625 -3.671875 L 10.265625 -2.007812 C 10.265625 -1.707031 10.277344 -1.4375 10.296875 -1.199219 L 10.375 -0.589844 C 10.375 -0.464844 10.226562 -0.328125 9.925781 -0.171875 C 9.625 -0.015625 9.433594 0.0625 9.355469 0.0625 C 9.277344 0.0625 9.238281 -0.0117188 9.238281 -0.15625 L 9.238281 -0.730469 L 6.394531 -0.730469 L 6.394531 -0.015625 C 6.394531 0.121094 6.367188 0.21875 6.316406 0.289062 C 6.265625 0.355469 6.132812 0.441406 5.917969 0.542969 C 5.707031 0.648438 5.546875 0.699219 5.4375 0.699219 C 5.328125 0.699219 5.292969 0.550781 5.335938 0.25 C 5.386719 -0.351562 5.414062 -0.871094 5.414062 -1.308594 L 5.414062 -3.40625 C 5.414062 -3.820312 5.398438 -4.304688 5.367188 -4.851562 Z M 9.238281 -1.167969 L 9.238281 -3.765625 L 6.394531 -3.765625 L 6.394531 -1.167969 Z "/>
</g>
<g id="glyph-0-3">
<path d="M 9.394531 -8.867188 L 9.957031 -8.867188 C 10.132812 -9.386719 10.257812 -9.910156 10.328125 -10.4375 L 8.804688 -10.4375 C 8.359375 -10.4375 8 -10.378906 7.730469 -10.265625 L 7.171875 -10.953125 C 7.566406 -10.890625 8 -10.859375 8.476562 -10.859375 L 13.113281 -10.859375 L 13.890625 -11.730469 L 14.699219 -10.765625 C 14.78125 -10.671875 14.824219 -10.59375 14.824219 -10.53125 C 14.824219 -10.46875 14.746094 -10.4375 14.589844 -10.4375 L 11.386719 -10.4375 C 11.066406 -9.824219 10.753906 -9.300781 10.453125 -8.867188 L 12.335938 -8.867188 L 12.769531 -9.410156 L 13.75 -8.726562 C 13.863281 -8.644531 13.921875 -8.578125 13.921875 -8.53125 C 13.921875 -8.484375 13.867188 -8.425781 13.75 -8.351562 L 13.441406 -8.152344 L 13.441406 -4.574219 C 13.441406 -4.230469 13.449219 -3.914062 13.472656 -3.625 L 13.535156 -2.894531 C 13.535156 -2.726562 13.386719 -2.570312 13.089844 -2.417969 C 12.792969 -2.269531 12.609375 -2.191406 12.53125 -2.191406 C 12.453125 -2.191406 12.414062 -2.265625 12.414062 -2.410156 L 12.414062 -2.800781 L 9.410156 -2.800781 C 9.429688 -2.570312 9.300781 -2.402344 9.015625 -2.292969 C 8.730469 -2.183594 8.546875 -2.132812 8.46875 -2.132812 C 8.390625 -2.132812 8.335938 -2.164062 8.308594 -2.230469 C 8.277344 -2.300781 8.285156 -2.570312 8.335938 -3.050781 C 8.390625 -3.527344 8.414062 -4.035156 8.414062 -4.574219 L 8.414062 -7.605469 C 8.414062 -8.289062 8.398438 -8.921875 8.367188 -9.503906 Z M 12.414062 -7.015625 L 12.414062 -8.429688 L 9.410156 -8.429688 L 9.410156 -7.015625 Z M 12.414062 -5.132812 L 12.414062 -6.578125 L 9.410156 -6.578125 L 9.410156 -5.132812 Z M 12.414062 -3.234375 L 12.414062 -4.699219 L 9.410156 -4.699219 L 9.410156 -3.234375 Z M 3.203125 -10.859375 L 5.507812 -10.859375 L 5.910156 -11.386719 L 6.953125 -10.6875 C 7.035156 -10.644531 7.078125 -10.601562 7.078125 -10.554688 C 7.078125 -10.507812 7.03125 -10.453125 6.9375 -10.390625 L 6.640625 -10.15625 L 6.640625 -7.902344 C 6.640625 -7.582031 6.652344 -7.28125 6.671875 -7 L 6.734375 -6.285156 C 6.734375 -6.109375 6.59375 -5.953125 6.308594 -5.816406 C 6.023438 -5.683594 5.839844 -5.617188 5.753906 -5.617188 C 5.671875 -5.617188 5.632812 -5.683594 5.632812 -5.816406 L 5.632812 -6.269531 L 3.003906 -6.269531 L 3.003906 -5.863281 C 3.003906 -5.800781 2.972656 -5.75 2.910156 -5.707031 C 2.847656 -5.667969 2.71875 -5.601562 2.519531 -5.507812 C 2.324219 -5.414062 2.1875 -5.367188 2.109375 -5.367188 C 2.03125 -5.367188 1.992188 -5.453125 1.992188 -5.632812 L 2.039062 -6.410156 C 2.046875 -6.710938 2.054688 -7.179688 2.054688 -7.824219 L 2.054688 -10.09375 C 2.054688 -10.5 2.03125 -10.976562 1.992188 -11.527344 Z M 5.632812 -8.773438 L 5.632812 -10.421875 L 3.003906 -10.421875 L 3.003906 -8.773438 Z M 5.632812 -6.703125 L 5.632812 -8.335938 L 3.003906 -8.335938 L 3.003906 -6.703125 Z M 2.410156 -0.996094 C 2.246094 -0.25 2.039062 0.34375 1.796875 0.785156 C 1.554688 1.226562 1.152344 1.769531 0.589844 2.410156 L 0.4375 2.269531 C 0.945312 1.390625 1.304688 0.53125 1.515625 -0.304688 C 1.730469 -1.136719 1.878906 -2.246094 1.960938 -3.625 L 3.066406 -3.140625 C 3.21875 -3.078125 3.296875 -3.019531 3.296875 -2.964844 C 3.296875 -2.90625 3.230469 -2.847656 3.09375 -2.785156 C 2.886719 -2.679688 2.703125 -2.277344 2.535156 -1.570312 C 2.992188 -0.730469 3.496094 -0.148438 4.042969 0.171875 L 4.042969 -4.308594 L 2.148438 -4.308594 C 1.703125 -4.308594 1.34375 -4.25 1.074219 -4.136719 L 0.511719 -4.808594 C 0.90625 -4.753906 1.347656 -4.730469 1.835938 -4.730469 L 6.269531 -4.730469 L 7.015625 -5.601562 L 7.839844 -4.636719 C 7.921875 -4.53125 7.964844 -4.453125 7.964844 -4.394531 C 7.964844 -4.335938 7.890625 -4.308594 7.746094 -4.308594 L 5.070312 -4.308594 L 5.070312 -2.472656 L 6.003906 -2.472656 L 6.65625 -3.328125 L 7.449219 -2.378906 C 7.542969 -2.277344 7.589844 -2.191406 7.589844 -2.132812 C 7.589844 -2.070312 7.507812 -2.039062 7.34375 -2.039062 L 5.070312 -2.039062 L 5.070312 0.605469 C 6.054688 0.886719 7.585938 1.027344 9.660156 1.027344 C 11.734375 1.027344 13.550781 0.902344 15.105469 0.652344 L 15.105469 0.902344 C 14.792969 0.984375 14.546875 1.117188 14.367188 1.300781 C 14.183594 1.480469 14.085938 1.644531 14.070312 1.796875 C 14.054688 1.945312 14.019531 2.03125 13.96875 2.054688 C 13.917969 2.074219 13.828125 2.085938 13.703125 2.085938 C 9.285156 2.085938 6.480469 1.933594 5.28125 1.632812 C 4.082031 1.332031 3.125 0.457031 2.410156 -0.996094 Z M 9.738281 -2.148438 L 10.453125 -1.445312 C 10.566406 -1.351562 10.625 -1.277344 10.625 -1.222656 C 10.625 -1.164062 10.601562 -1.128906 10.554688 -1.113281 C 10.507812 -1.097656 10.457031 -1.089844 10.398438 -1.097656 C 10.339844 -1.101562 10.304688 -1.105469 10.28125 -1.105469 C 10.136719 -1.105469 9.972656 -1.046875 9.785156 -0.933594 C 8.757812 -0.34375 7.644531 0.15625 6.441406 0.558594 L 6.378906 0.34375 C 7.644531 -0.28125 8.761719 -1.109375 9.738281 -2.148438 Z M 11.042969 -1.929688 C 11.65625 -1.824219 12.175781 -1.722656 12.601562 -1.617188 C 13.027344 -1.515625 13.363281 -1.402344 13.617188 -1.285156 C 13.871094 -1.164062 14.046875 -1.039062 14.140625 -0.910156 C 14.234375 -0.78125 14.28125 -0.601562 14.28125 -0.375 C 14.28125 0.0195312 14.140625 0.21875 13.859375 0.21875 C 13.703125 0.21875 13.539062 0.109375 13.363281 -0.109375 C 12.800781 -0.730469 12 -1.261719 10.953125 -1.695312 Z "/>
</g>
</g>
</defs>
<g fill="rgb(30.980392%, 76.470588%, 96.862745%)" fill-opacity="1">
<use xlink:href="#glyph-0-0" x="30" y="36.489258"/>
<use xlink:href="#glyph-0-1" x="46" y="36.489258"/>
<use xlink:href="#glyph-0-2" x="62" y="36.489258"/>
<use xlink:href="#glyph-0-3" x="78" y="36.489258"/>
</g>
</svg>
