<?xml version="1.0" encoding="UTF-8"?>
<svg xmlns="http://www.w3.org/2000/svg" xmlns:xlink="http://www.w3.org/1999/xlink" width="1920" height="1080" viewBox="0 0 1920 1080">
<defs>
<g>
<g id="glyph-0-0">
<path d="M 9.300781 -0.632812 C 8.609375 -0.65625 8.046875 -0.667969 7.609375 -0.667969 L 7.367188 -0.667969 C 7.175781 -0.667969 6.96875 -0.664062 6.753906 -0.65625 C 6.539062 -0.648438 6.304688 -0.640625 6.042969 -0.632812 L 6.042969 -0.832031 L 6.710938 -0.964844 C 6.882812 -1.003906 6.988281 -1.058594 7.03125 -1.132812 C 7.078125 -1.207031 7.097656 -1.351562 7.097656 -1.566406 L 7.097656 -6.675781 L 4.589844 -0.578125 L 1.632812 -7.089844 L 1.632812 -1.5 C 1.632812 -1.152344 1.746094 -0.964844 1.964844 -0.945312 L 2.988281 -0.832031 L 2.988281 -0.632812 C 2.542969 -0.65625 2.097656 -0.667969 1.648438 -0.667969 C 1.203125 -0.667969 0.683594 -0.65625 0.101562 -0.632812 L 0.101562 -0.832031 L 0.710938 -0.945312 C 0.851562 -0.96875 0.960938 -0.992188 1.039062 -1.023438 C 1.117188 -1.050781 1.175781 -1.085938 1.214844 -1.128906 C 1.257812 -1.167969 1.28125 -1.21875 1.289062 -1.277344 C 1.296875 -1.335938 1.300781 -1.410156 1.300781 -1.5 L 1.300781 -7.320312 L 0.289062 -7.445312 L 0.289062 -7.644531 C 0.40625 -7.621094 0.742188 -7.609375 1.289062 -7.609375 C 1.84375 -7.609375 2.21875 -7.621094 2.410156 -7.644531 L 4.878906 -2.222656 L 7.132812 -7.644531 C 7.496094 -7.621094 7.867188 -7.609375 8.25 -7.609375 C 8.632812 -7.609375 8.976562 -7.621094 9.289062 -7.644531 L 9.289062 -7.445312 L 8.597656 -7.300781 C 8.382812 -7.253906 8.238281 -7.1875 8.15625 -7.097656 C 8.074219 -7.011719 8.03125 -6.859375 8.03125 -6.644531 L 8.03125 -1.644531 C 8.03125 -1.414062 8.054688 -1.261719 8.09375 -1.183594 C 8.132812 -1.105469 8.222656 -1.050781 8.355469 -1.023438 L 9.300781 -0.832031 Z "/>
</g>
<g id="glyph-0-1">
<path d="M 2.746094 -0.488281 C 2.410156 -0.488281 2.105469 -0.546875 1.820312 -0.660156 C 1.539062 -0.777344 1.296875 -0.933594 1.089844 -1.140625 C 0.882812 -1.34375 0.71875 -1.585938 0.601562 -1.867188 C 0.480469 -2.148438 0.421875 -2.457031 0.421875 -2.789062 C 0.421875 -3.128906 0.480469 -3.441406 0.601562 -3.722656 C 0.71875 -4.003906 0.886719 -4.246094 1.101562 -4.449219 C 1.316406 -4.652344 1.570312 -4.8125 1.859375 -4.925781 C 2.152344 -5.042969 2.476562 -5.101562 2.832031 -5.101562 C 3.195312 -5.101562 3.523438 -5.039062 3.816406 -4.917969 C 4.109375 -4.792969 4.359375 -4.628906 4.566406 -4.417969 C 4.773438 -4.207031 4.933594 -3.957031 5.050781 -3.671875 C 5.164062 -3.386719 5.222656 -3.085938 5.222656 -2.765625 C 5.222656 -2.441406 5.160156 -2.140625 5.039062 -1.867188 C 4.917969 -1.59375 4.746094 -1.351562 4.527344 -1.144531 C 4.308594 -0.9375 4.046875 -0.777344 3.746094 -0.660156 C 3.441406 -0.546875 3.105469 -0.488281 2.746094 -0.488281 Z M 1.300781 -2.699219 C 1.300781 -2.085938 1.4375 -1.601562 1.710938 -1.25 C 1.984375 -0.898438 2.34375 -0.722656 2.789062 -0.722656 C 3.011719 -0.722656 3.21875 -0.769531 3.410156 -0.867188 C 3.601562 -0.964844 3.769531 -1.101562 3.90625 -1.285156 C 4.042969 -1.464844 4.148438 -1.679688 4.226562 -1.933594 C 4.304688 -2.183594 4.34375 -2.464844 4.34375 -2.777344 C 4.34375 -3.089844 4.308594 -3.371094 4.238281 -3.628906 C 4.167969 -3.882812 4.066406 -4.101562 3.933594 -4.289062 C 3.800781 -4.472656 3.636719 -4.617188 3.445312 -4.714844 C 3.253906 -4.816406 3.035156 -4.867188 2.800781 -4.867188 C 2.332031 -4.867188 1.964844 -4.683594 1.699219 -4.320312 C 1.433594 -3.957031 1.300781 -3.417969 1.300781 -2.699219 Z "/>
</g>
<g id="glyph-0-2">
<path d="M 5.644531 -0.632812 C 4.859375 -0.675781 4.078125 -0.675781 3.300781 -0.632812 L 3.300781 -0.820312 L 3.886719 -0.910156 C 4.050781 -0.933594 4.132812 -1.078125 4.132812 -1.34375 L 4.132812 -3.222656 C 4.132812 -3.628906 4.066406 -3.953125 3.933594 -4.195312 C 3.800781 -4.433594 3.535156 -4.554688 3.144531 -4.554688 C 2.691406 -4.554688 2.246094 -4.332031 1.800781 -3.886719 L 1.800781 -1.222656 C 1.800781 -1.105469 1.890625 -1.023438 2.066406 -0.976562 L 2.6875 -0.820312 L 2.6875 -0.632812 C 2.578125 -0.640625 2.453125 -0.648438 2.316406 -0.65625 C 2.179688 -0.664062 2.019531 -0.667969 1.832031 -0.667969 L 1.464844 -0.667969 C 1.207031 -0.667969 0.976562 -0.664062 0.773438 -0.660156 C 0.570312 -0.65625 0.398438 -0.648438 0.265625 -0.632812 L 0.265625 -0.820312 L 0.84375 -0.933594 C 0.992188 -0.957031 1.066406 -1.066406 1.066406 -1.265625 L 1.066406 -3.464844 C 1.066406 -3.695312 1.019531 -3.851562 0.925781 -3.933594 C 0.835938 -4.015625 0.671875 -4.074219 0.433594 -4.109375 L 0.433594 -4.3125 C 0.671875 -4.371094 0.890625 -4.480469 1.09375 -4.636719 C 1.296875 -4.796875 1.46875 -5.019531 1.609375 -5.300781 L 1.800781 -5.300781 L 1.800781 -4.289062 C 2.082031 -4.539062 2.386719 -4.738281 2.714844 -4.882812 C 3.046875 -5.027344 3.339844 -5.101562 3.601562 -5.101562 C 4.460938 -5.101562 4.886719 -4.59375 4.886719 -3.578125 L 4.886719 -1.378906 C 4.886719 -1.238281 4.90625 -1.128906 4.945312 -1.054688 C 4.980469 -0.980469 5.054688 -0.933594 5.167969 -0.910156 L 5.644531 -0.820312 Z "/>
</g>
<g id="glyph-0-3">
<path d="M 1.734375 -6.023438 L 1.878906 -6.023438 C 1.878906 -5.824219 1.878906 -5.625 1.882812 -5.425781 C 1.886719 -5.230469 1.890625 -5.03125 1.890625 -4.832031 L 3.378906 -4.867188 L 3.378906 -4.457031 L 1.890625 -4.410156 L 1.890625 -2.175781 C 1.890625 -1.738281 1.921875 -1.414062 1.984375 -1.199219 C 2.046875 -0.984375 2.222656 -0.886719 2.511719 -0.898438 C 2.621094 -0.898438 2.75 -0.925781 2.894531 -0.972656 C 3.039062 -1.019531 3.199219 -1.097656 3.378906 -1.199219 L 3.476562 -1.042969 C 3.328125 -0.867188 3.148438 -0.730469 2.9375 -0.632812 C 2.726562 -0.535156 2.4375 -0.488281 2.066406 -0.488281 C 1.875 -0.488281 1.71875 -0.511719 1.601562 -0.554688 C 1.480469 -0.601562 1.386719 -0.675781 1.3125 -0.777344 C 1.238281 -0.882812 1.1875 -1.023438 1.160156 -1.207031 C 1.136719 -1.386719 1.121094 -1.613281 1.121094 -1.890625 L 1.121094 -4.386719 C 1.019531 -4.386719 0.917969 -4.386719 0.820312 -4.382812 C 0.726562 -4.378906 0.625 -4.378906 0.523438 -4.378906 C 0.417969 -4.378906 0.367188 -4.40625 0.367188 -4.464844 C 0.367188 -4.523438 0.414062 -4.578125 0.511719 -4.621094 C 0.828125 -4.761719 1.0625 -4.914062 1.210938 -5.078125 C 1.285156 -5.160156 1.371094 -5.277344 1.464844 -5.4375 C 1.5625 -5.597656 1.652344 -5.792969 1.734375 -6.023438 Z "/>
</g>
<g id="glyph-0-4">
<path d="M 2.210938 0.488281 C 2.078125 0.835938 1.914062 1.097656 1.722656 1.265625 C 1.53125 1.4375 1.324219 1.523438 1.109375 1.523438 C 0.984375 1.523438 0.886719 1.480469 0.8125 1.398438 C 0.738281 1.316406 0.691406 1.234375 0.675781 1.144531 C 0.667969 1.0625 0.691406 0.988281 0.738281 0.921875 C 0.785156 0.855469 0.867188 0.820312 0.976562 0.8125 C 1.058594 0.78125 1.136719 0.769531 1.210938 0.777344 C 1.285156 0.785156 1.355469 0.792969 1.421875 0.800781 C 1.488281 0.816406 1.546875 0.824219 1.601562 0.828125 C 1.652344 0.832031 1.695312 0.820312 1.734375 0.789062 C 1.753906 0.773438 1.78125 0.757812 1.804688 0.746094 C 1.832031 0.730469 1.855469 0.703125 1.882812 0.660156 C 1.910156 0.621094 1.9375 0.566406 1.964844 0.496094 C 1.996094 0.425781 2.03125 0.324219 2.078125 0.199219 C 2.160156 -0.0429688 2.199219 -0.214844 2.199219 -0.3125 C 2.183594 -0.445312 2.140625 -0.605469 2.066406 -0.789062 L 0.699219 -4.332031 C 0.640625 -4.503906 0.542969 -4.605469 0.410156 -4.644531 L 0.0234375 -4.765625 L 0.0234375 -4.957031 C 0.488281 -4.917969 0.902344 -4.898438 1.261719 -4.898438 C 1.621094 -4.898438 1.957031 -4.917969 2.265625 -4.957031 L 2.265625 -4.765625 C 2.183594 -4.75 2.09375 -4.738281 1.996094 -4.726562 C 1.894531 -4.714844 1.804688 -4.699219 1.722656 -4.675781 C 1.640625 -4.65625 1.578125 -4.617188 1.539062 -4.566406 C 1.5 -4.515625 1.492188 -4.445312 1.523438 -4.355469 L 2.632812 -1.265625 L 3.644531 -4.042969 C 3.679688 -4.148438 3.699219 -4.261719 3.695312 -4.382812 C 3.691406 -4.503906 3.625 -4.585938 3.5 -4.621094 L 2.878906 -4.777344 L 2.878906 -4.957031 C 3.210938 -4.917969 3.519531 -4.898438 3.804688 -4.898438 C 4.089844 -4.898438 4.417969 -4.917969 4.789062 -4.957031 L 4.789062 -4.777344 L 4.433594 -4.675781 C 4.375 -4.660156 4.324219 -4.640625 4.28125 -4.617188 C 4.242188 -4.589844 4.203125 -4.550781 4.160156 -4.492188 C 4.121094 -4.4375 4.078125 -4.367188 4.039062 -4.277344 C 3.996094 -4.1875 3.953125 -4.074219 3.898438 -3.933594 Z "/>
</g>
<g id="glyph-0-5">
<rect x="0" y="0" width="0" height="0" mask="url(#mask-0)"/>
</g>
<g id="glyph-0-6">
<path d="M 6.222656 -6.964844 C 6.222656 -7.113281 6.203125 -7.21875 6.167969 -7.28125 C 6.128906 -7.34375 6.066406 -7.382812 5.976562 -7.386719 L 5.398438 -7.453125 L 5.398438 -7.644531 C 5.539062 -7.628906 5.726562 -7.617188 5.960938 -7.609375 C 6.195312 -7.601562 6.46875 -7.597656 6.789062 -7.597656 C 7.105469 -7.597656 7.382812 -7.601562 7.617188 -7.609375 C 7.851562 -7.617188 8.03125 -7.628906 8.167969 -7.644531 L 8.167969 -7.453125 L 7.386719 -7.34375 C 7.292969 -7.328125 7.230469 -7.296875 7.199219 -7.242188 C 7.167969 -7.191406 7.15625 -7.097656 7.15625 -6.957031 L 7.15625 -1.433594 C 7.15625 -1.277344 7.171875 -1.167969 7.203125 -1.101562 C 7.238281 -1.035156 7.320312 -0.988281 7.453125 -0.964844 L 8.300781 -0.8125 L 8.300781 -0.621094 C 8.113281 -0.636719 7.898438 -0.648438 7.648438 -0.65625 C 7.402344 -0.664062 7.125 -0.667969 6.820312 -0.667969 C 6.523438 -0.667969 6.25 -0.664062 5.992188 -0.65625 C 5.738281 -0.648438 5.515625 -0.636719 5.320312 -0.621094 L 5.320312 -0.8125 L 6 -0.921875 C 6.089844 -0.9375 6.148438 -0.980469 6.175781 -1.054688 C 6.207031 -1.128906 6.222656 -1.253906 6.222656 -1.433594 L 6.222656 -3.976562 L 2.300781 -3.976562 L 2.300781 -1.433594 C 2.300781 -1.25 2.316406 -1.121094 2.34375 -1.050781 C 2.375 -0.980469 2.4375 -0.9375 2.53125 -0.921875 L 3.210938 -0.8125 L 3.210938 -0.621094 C 3.019531 -0.636719 2.792969 -0.648438 2.539062 -0.65625 C 2.285156 -0.664062 2.003906 -0.667969 1.699219 -0.667969 C 1.402344 -0.667969 1.132812 -0.664062 0.882812 -0.65625 C 0.636719 -0.648438 0.417969 -0.636719 0.234375 -0.621094 L 0.234375 -0.8125 L 1.078125 -0.964844 C 1.195312 -0.988281 1.273438 -1.035156 1.3125 -1.101562 C 1.347656 -1.167969 1.367188 -1.277344 1.367188 -1.433594 L 1.367188 -6.964844 C 1.367188 -7.113281 1.347656 -7.21875 1.3125 -7.28125 C 1.273438 -7.34375 1.210938 -7.382812 1.121094 -7.386719 L 0.542969 -7.453125 L 0.542969 -7.644531 C 0.683594 -7.628906 0.875 -7.617188 1.109375 -7.609375 C 1.347656 -7.601562 1.632812 -7.597656 1.964844 -7.597656 C 2.300781 -7.597656 2.582031 -7.601562 2.816406 -7.609375 C 3.050781 -7.617188 3.234375 -7.628906 3.367188 -7.644531 L 3.367188 -7.453125 L 2.53125 -7.34375 C 2.4375 -7.328125 2.375 -7.296875 2.34375 -7.242188 C 2.316406 -7.191406 2.300781 -7.097656 2.300781 -6.957031 L 2.300781 -4.320312 L 6.222656 -4.320312 Z "/>
</g>
<g id="glyph-0-7">
<path d="M 2.234375 -0.542969 C 1.929688 -0.542969 1.664062 -0.597656 1.433594 -0.707031 C 1.203125 -0.8125 1.015625 -0.960938 0.867188 -1.144531 C 0.71875 -1.328125 0.605469 -1.546875 0.535156 -1.800781 C 0.460938 -2.050781 0.421875 -2.320312 0.421875 -2.609375 C 0.421875 -3.003906 0.488281 -3.351562 0.621094 -3.648438 C 0.753906 -3.949219 0.929688 -4.199219 1.144531 -4.398438 C 1.359375 -4.597656 1.601562 -4.75 1.871094 -4.855469 C 2.140625 -4.960938 2.417969 -5.011719 2.699219 -5.011719 C 2.847656 -5.011719 2.984375 -4.996094 3.105469 -4.964844 C 3.226562 -4.9375 3.339844 -4.902344 3.445312 -4.867188 C 3.554688 -4.828125 3.664062 -4.785156 3.765625 -4.734375 L 4.386719 -5.054688 L 4.488281 -5.023438 C 4.488281 -4.445312 4.492188 -3.867188 4.492188 -3.292969 C 4.496094 -2.71875 4.5 -2.144531 4.5 -1.566406 C 4.5 -1.269531 4.625 -1.128906 4.878906 -1.144531 C 4.9375 -1.144531 4.984375 -1.152344 5.023438 -1.171875 C 5.058594 -1.191406 5.097656 -1.210938 5.132812 -1.234375 C 5.164062 -1.261719 5.195312 -1.289062 5.234375 -1.3125 L 5.34375 -1.246094 C 5.292969 -1.113281 5.226562 -0.992188 5.144531 -0.890625 C 5.070312 -0.800781 4.976562 -0.71875 4.867188 -0.648438 C 4.753906 -0.578125 4.625 -0.542969 4.476562 -0.542969 C 4.226562 -0.542969 4.046875 -0.625 3.945312 -0.785156 C 3.839844 -0.941406 3.789062 -1.164062 3.789062 -1.445312 L 3.789062 -1.777344 C 3.746094 -1.621094 3.679688 -1.46875 3.59375 -1.320312 C 3.507812 -1.171875 3.402344 -1.042969 3.277344 -0.925781 C 3.152344 -0.8125 3.003906 -0.71875 2.832031 -0.648438 C 2.664062 -0.578125 2.460938 -0.542969 2.234375 -0.542969 Z M 3.789062 -3 C 3.789062 -3.25 3.769531 -3.480469 3.726562 -3.6875 C 3.6875 -3.894531 3.617188 -4.070312 3.523438 -4.214844 C 3.425781 -4.359375 3.300781 -4.472656 3.148438 -4.550781 C 2.996094 -4.628906 2.808594 -4.667969 2.578125 -4.667969 C 2.421875 -4.667969 2.257812 -4.636719 2.082031 -4.570312 C 1.910156 -4.507812 1.75 -4.40625 1.609375 -4.261719 C 1.46875 -4.117188 1.355469 -3.929688 1.261719 -3.707031 C 1.167969 -3.480469 1.121094 -3.207031 1.121094 -2.890625 C 1.121094 -2.644531 1.152344 -2.410156 1.214844 -2.183594 C 1.277344 -1.957031 1.371094 -1.757812 1.488281 -1.589844 C 1.605469 -1.417969 1.75 -1.285156 1.921875 -1.183594 C 2.09375 -1.082031 2.289062 -1.035156 2.511719 -1.035156 C 2.6875 -1.035156 2.851562 -1.078125 3.003906 -1.167969 C 3.15625 -1.257812 3.289062 -1.378906 3.398438 -1.539062 C 3.511719 -1.699219 3.601562 -1.886719 3.671875 -2.101562 C 3.742188 -2.316406 3.78125 -2.546875 3.789062 -2.800781 Z "/>
</g>
<g id="glyph-0-8">
<path d="M 2.753906 -0.632812 C 2.578125 -0.640625 2.382812 -0.648438 2.167969 -0.65625 C 1.953125 -0.664062 1.734375 -0.667969 1.511719 -0.667969 C 1.289062 -0.667969 1.070312 -0.664062 0.855469 -0.65625 C 0.640625 -0.648438 0.445312 -0.640625 0.265625 -0.632812 L 0.265625 -0.820312 L 0.933594 -0.957031 C 1.03125 -0.976562 1.097656 -1.007812 1.132812 -1.042969 C 1.171875 -1.082031 1.1875 -1.15625 1.1875 -1.265625 L 1.1875 -6.886719 C 1.1875 -7.042969 1.144531 -7.160156 1.054688 -7.234375 C 0.964844 -7.308594 0.769531 -7.386719 0.464844 -7.476562 L 0.464844 -7.632812 C 0.605469 -7.664062 0.785156 -7.707031 1 -7.765625 C 1.214844 -7.824219 1.441406 -7.902344 1.675781 -8 L 1.933594 -8 L 1.933594 -1.289062 C 1.933594 -1.148438 1.949219 -1.058594 1.976562 -1.015625 C 2.007812 -0.976562 2.078125 -0.945312 2.1875 -0.921875 L 2.753906 -0.820312 Z "/>
</g>
<g id="glyph-0-9">
<path d="M 2.199219 -4.464844 L 2.199219 -0.8125 C 2.199219 -0.128906 2.207031 0.382812 2.214844 0.726562 C 2.226562 1.070312 2.234375 1.253906 2.234375 1.277344 C 2.234375 1.433594 2.140625 1.5625 1.957031 1.660156 C 1.769531 1.761719 1.628906 1.8125 1.527344 1.8125 C 1.425781 1.8125 1.378906 1.722656 1.378906 1.542969 L 1.433594 0.578125 C 1.457031 0.214844 1.464844 -0.332031 1.464844 -1.066406 L 1.464844 -6.566406 C 1.464844 -7.144531 1.453125 -7.757812 1.421875 -8.410156 L 2.390625 -7.710938 L 3.976562 -7.710938 L 4.320312 -8.167969 L 5.023438 -7.675781 C 5.089844 -7.625 5.121094 -7.574219 5.121094 -7.527344 C 5.121094 -7.480469 5.09375 -7.4375 5.03125 -7.398438 L 4.777344 -7.242188 L 4.777344 -5.601562 C 4.777344 -5.339844 4.785156 -5.101562 4.800781 -4.886719 L 4.832031 -4.378906 C 4.832031 -4.253906 4.726562 -4.128906 4.511719 -4.003906 C 4.296875 -3.882812 4.167969 -3.820312 4.121094 -3.820312 C 4.078125 -3.820312 4.054688 -3.878906 4.054688 -3.988281 L 4.054688 -4.464844 Z M 2.199219 -7.398438 L 2.199219 -6.320312 L 4.054688 -6.320312 L 4.054688 -7.398438 Z M 2.199219 -6.011719 L 2.199219 -4.777344 L 4.054688 -4.777344 L 4.054688 -6.011719 Z M 7.132812 -7.699219 L 8.933594 -7.699219 L 9.277344 -8.210938 L 10.066406 -7.632812 C 10.132812 -7.589844 10.164062 -7.546875 10.164062 -7.511719 C 10.164062 -7.472656 10.121094 -7.433594 10.03125 -7.386719 L 9.820312 -7.265625 L 9.820312 0.332031 C 9.820312 0.6875 9.789062 0.945312 9.726562 1.101562 C 9.664062 1.257812 9.507812 1.402344 9.261719 1.539062 C 9.011719 1.675781 8.839844 1.746094 8.742188 1.746094 C 8.683594 1.746094 8.648438 1.691406 8.632812 1.589844 C 8.597656 1.375 8.492188 1.210938 8.320312 1.101562 C 8.152344 0.988281 7.792969 0.851562 7.242188 0.6875 L 7.265625 0.511719 C 7.808594 0.601562 8.183594 0.644531 8.398438 0.644531 C 8.613281 0.644531 8.773438 0.617188 8.882812 0.5625 C 8.988281 0.507812 9.042969 0.351562 9.042969 0.101562 L 9.042969 -4.488281 L 6.988281 -4.488281 L 6.988281 -4.289062 C 6.988281 -4.191406 6.96875 -4.121094 6.925781 -4.070312 C 6.886719 -4.023438 6.78125 -3.960938 6.617188 -3.882812 C 6.449219 -3.804688 6.332031 -3.765625 6.261719 -3.765625 C 6.191406 -3.765625 6.167969 -3.882812 6.1875 -4.109375 C 6.234375 -4.523438 6.253906 -4.859375 6.253906 -5.109375 L 6.253906 -7.265625 C 6.253906 -7.554688 6.242188 -7.898438 6.222656 -8.300781 Z M 9.042969 -6.34375 L 9.042969 -7.386719 L 6.988281 -7.386719 L 6.988281 -6.34375 Z M 9.042969 -4.8125 L 9.042969 -6.03125 L 6.988281 -6.03125 L 6.988281 -4.8125 Z M 4.710938 -3.011719 L 6.523438 -3.011719 L 6.855469 -3.445312 L 7.523438 -2.976562 C 7.597656 -2.933594 7.632812 -2.890625 7.632812 -2.855469 C 7.632812 -2.820312 7.59375 -2.777344 7.511719 -2.734375 L 7.332031 -2.621094 L 7.332031 -1.433594 C 7.332031 -1.21875 7.339844 -1.027344 7.355469 -0.855469 L 7.410156 -0.421875 C 7.410156 -0.332031 7.304688 -0.234375 7.089844 -0.121094 C 6.875 -0.0117188 6.738281 0.0429688 6.683594 0.0429688 C 6.628906 0.0429688 6.597656 -0.0078125 6.597656 -0.109375 L 6.597656 -0.523438 L 4.566406 -0.523438 L 4.566406 -0.0117188 C 4.566406 0.0859375 4.546875 0.15625 4.511719 0.207031 C 4.472656 0.253906 4.378906 0.316406 4.226562 0.390625 C 4.074219 0.464844 3.960938 0.5 3.882812 0.5 C 3.804688 0.5 3.78125 0.390625 3.8125 0.179688 C 3.847656 -0.25 3.867188 -0.621094 3.867188 -0.933594 L 3.867188 -2.433594 C 3.867188 -2.730469 3.855469 -3.074219 3.832031 -3.464844 Z M 6.597656 -0.832031 L 6.597656 -2.6875 L 4.566406 -2.6875 L 4.566406 -0.832031 Z "/>
</g>
<g id="glyph-0-10">
<path d="M 6.710938 -6.332031 L 7.109375 -6.332031 C 7.234375 -6.703125 7.324219 -7.078125 7.378906 -7.453125 L 6.289062 -7.453125 C 5.96875 -7.453125 5.714844 -7.414062 5.523438 -7.332031 L 5.121094 -7.820312 C 5.402344 -7.777344 5.714844 -7.753906 6.054688 -7.753906 L 9.367188 -7.753906 L 9.921875 -8.378906 L 10.5 -7.6875 C 10.558594 -7.621094 10.589844 -7.566406 10.589844 -7.523438 C 10.589844 -7.476562 10.53125 -7.453125 10.421875 -7.453125 L 8.132812 -7.453125 C 7.902344 -7.015625 7.679688 -6.644531 7.464844 -6.332031 L 8.808594 -6.332031 L 9.121094 -6.722656 L 9.820312 -6.234375 C 9.902344 -6.175781 9.945312 -6.128906 9.945312 -6.09375 C 9.945312 -6.0625 9.902344 -6.019531 9.820312 -5.964844 L 9.597656 -5.820312 L 9.597656 -3.265625 C 9.597656 -3.023438 9.605469 -2.796875 9.621094 -2.589844 L 9.664062 -2.066406 C 9.664062 -1.949219 9.558594 -1.835938 9.347656 -1.726562 C 9.136719 -1.621094 9.003906 -1.566406 8.949219 -1.566406 C 8.894531 -1.566406 8.867188 -1.617188 8.867188 -1.722656 L 8.867188 -2 L 6.722656 -2 C 6.738281 -1.835938 6.640625 -1.714844 6.4375 -1.640625 C 6.234375 -1.5625 6.105469 -1.523438 6.050781 -1.523438 C 5.996094 -1.523438 5.957031 -1.546875 5.933594 -1.59375 C 5.910156 -1.640625 5.917969 -1.835938 5.957031 -2.175781 C 5.992188 -2.519531 6.011719 -2.882812 6.011719 -3.265625 L 6.011719 -5.433594 C 6.011719 -5.921875 6 -6.375 5.976562 -6.789062 Z M 8.867188 -5.011719 L 8.867188 -6.023438 L 6.722656 -6.023438 L 6.722656 -5.011719 Z M 8.867188 -3.667969 L 8.867188 -4.699219 L 6.722656 -4.699219 L 6.722656 -3.667969 Z M 8.867188 -2.3125 L 8.867188 -3.355469 L 6.722656 -3.355469 L 6.722656 -2.3125 Z M 2.289062 -7.753906 L 3.933594 -7.753906 L 4.222656 -8.132812 L 4.964844 -7.632812 C 5.023438 -7.601562 5.054688 -7.570312 5.054688 -7.539062 C 5.054688 -7.503906 5.023438 -7.464844 4.957031 -7.421875 L 4.742188 -7.253906 L 4.742188 -5.644531 C 4.742188 -5.414062 4.75 -5.199219 4.765625 -5 L 4.8125 -4.488281 C 4.8125 -4.363281 4.707031 -4.25 4.503906 -4.15625 C 4.300781 -4.058594 4.171875 -4.011719 4.109375 -4.011719 C 4.050781 -4.011719 4.023438 -4.058594 4.023438 -4.15625 L 4.023438 -4.476562 L 2.144531 -4.476562 L 2.144531 -4.1875 C 2.144531 -4.144531 2.121094 -4.105469 2.078125 -4.078125 C 2.035156 -4.046875 1.941406 -4 1.800781 -3.933594 C 1.660156 -3.867188 1.5625 -3.832031 1.503906 -3.832031 C 1.449219 -3.832031 1.421875 -3.894531 1.421875 -4.023438 L 1.457031 -4.578125 C 1.464844 -4.792969 1.464844 -5.128906 1.464844 -5.589844 L 1.464844 -7.210938 C 1.464844 -7.5 1.453125 -7.839844 1.421875 -8.234375 Z M 4.023438 -6.265625 L 4.023438 -7.445312 L 2.144531 -7.445312 L 2.144531 -6.265625 Z M 4.023438 -4.789062 L 4.023438 -5.957031 L 2.144531 -5.957031 L 2.144531 -4.789062 Z M 1.722656 -0.710938 C 1.605469 -0.175781 1.457031 0.246094 1.285156 0.5625 C 1.109375 0.875 0.820312 1.261719 0.421875 1.722656 L 0.3125 1.621094 C 0.675781 0.992188 0.929688 0.378906 1.082031 -0.214844 C 1.234375 -0.8125 1.339844 -1.605469 1.398438 -2.589844 L 2.1875 -2.246094 C 2.300781 -2.199219 2.355469 -2.15625 2.355469 -2.117188 C 2.355469 -2.074219 2.308594 -2.03125 2.210938 -1.988281 C 2.0625 -1.914062 1.929688 -1.625 1.8125 -1.121094 C 2.136719 -0.523438 2.496094 -0.105469 2.890625 0.121094 L 2.890625 -3.078125 L 1.535156 -3.078125 C 1.214844 -3.078125 0.960938 -3.035156 0.765625 -2.957031 L 0.367188 -3.433594 C 0.648438 -3.394531 0.964844 -3.378906 1.3125 -3.378906 L 4.476562 -3.378906 L 5.011719 -4 L 5.601562 -3.3125 C 5.660156 -3.238281 5.6875 -3.179688 5.6875 -3.140625 C 5.6875 -3.097656 5.636719 -3.078125 5.53125 -3.078125 L 3.621094 -3.078125 L 3.621094 -1.765625 L 4.289062 -1.765625 L 4.753906 -2.378906 L 5.320312 -1.699219 C 5.386719 -1.625 5.421875 -1.566406 5.421875 -1.523438 C 5.421875 -1.476562 5.363281 -1.457031 5.242188 -1.457031 L 3.621094 -1.457031 L 3.621094 0.433594 C 4.324219 0.632812 5.417969 0.734375 6.898438 0.734375 C 8.378906 0.734375 9.675781 0.644531 10.789062 0.464844 L 10.789062 0.644531 C 10.566406 0.703125 10.390625 0.796875 10.261719 0.925781 C 10.132812 1.058594 10.058594 1.175781 10.050781 1.285156 C 10.039062 1.390625 10.015625 1.453125 9.976562 1.464844 C 9.941406 1.480469 9.878906 1.488281 9.789062 1.488281 C 6.632812 1.488281 4.628906 1.382812 3.773438 1.167969 C 2.917969 0.953125 2.234375 0.324219 1.722656 -0.710938 Z M 6.957031 -1.535156 L 7.464844 -1.035156 C 7.546875 -0.96875 7.589844 -0.914062 7.589844 -0.871094 C 7.589844 -0.832031 7.570312 -0.804688 7.539062 -0.792969 C 7.503906 -0.78125 7.46875 -0.78125 7.425781 -0.785156 C 7.386719 -0.789062 7.359375 -0.789062 7.34375 -0.789062 C 7.238281 -0.789062 7.121094 -0.75 6.988281 -0.667969 C 6.253906 -0.246094 5.457031 0.109375 4.601562 0.398438 L 4.554688 0.246094 C 5.457031 -0.199219 6.257812 -0.792969 6.957031 -1.535156 Z M 7.886719 -1.378906 C 8.324219 -1.304688 8.695312 -1.230469 9 -1.15625 C 9.304688 -1.082031 9.546875 -1 9.726562 -0.917969 C 9.910156 -0.832031 10.03125 -0.742188 10.097656 -0.648438 C 10.164062 -0.558594 10.199219 -0.429688 10.199219 -0.265625 C 10.199219 0.015625 10.097656 0.15625 9.898438 0.15625 C 9.789062 0.15625 9.667969 0.078125 9.542969 -0.078125 C 9.144531 -0.523438 8.570312 -0.898438 7.820312 -1.210938 Z "/>
</g>
</g>
<image id="source-260" x="0" y="0" width="0" height="0"/>
<mask id="mask-0">
<use xlink:href="#source-260"/>
</mask>
</defs>
<g fill="rgb(30.980392%, 76.470588%, 96.862745%)" fill-opacity="1">
<use xlink:href="#glyph-0-0" x="30" y="31.777344"/>
<use xlink:href="#glyph-0-1" x="39" y="31.777344"/>
<use xlink:href="#glyph-0-2" x="45" y="31.777344"/>
<use xlink:href="#glyph-0-3" x="51" y="31.777344"/>
<use xlink:href="#glyph-0-4" x="55" y="31.777344"/>
<use xlink:href="#glyph-0-5" x="60" y="31.777344"/>
<use xlink:href="#glyph-0-6" x="63" y="31.777344"/>
<use xlink:href="#glyph-0-7" x="72" y="31.777344"/>
<use xlink:href="#glyph-0-8" x="78" y="31.777344"/>
<use xlink:href="#glyph-0-8" x="81" y="31.777344"/>
<use xlink:href="#glyph-0-5" x="84" y="31.777344"/>
</g>
<g fill="rgb(30.980392%, 76.470588%, 96.862745%)" fill-opacity="1">
<use xlink:href="#glyph-0-9" x="87" y="31.777344"/>
<use xlink:href="#glyph-0-10" x="98" y="31.777344"/>
</g>
</svg>
