<?xml version="1.0" encoding="UTF-8"?>
<svg xmlns="http://www.w3.org/2000/svg" xmlns:xlink="http://www.w3.org/1999/xlink" width="1920" height="1080" viewBox="0 0 1920 1080">
<defs>
<g>
<g id="glyph-0-0">
<path d="M 5.265625 -5.46875 L 5.265625 -3.546875 L 2.703125 -3.546875 L 2.703125 -5.46875 Z M 6.078125 -5.46875 L 8.734375 -5.46875 L 8.734375 -3.546875 L 6.078125 -3.546875 Z M 6.640625 -7.609375 C 6.328125 -7.140625 5.90625 -6.625 5.484375 -6.25 L 2.546875 -6.25 C 2.984375 -6.671875 3.375 -7.125 3.75 -7.609375 Z M 3.9375 -9.359375 C 3.15625 -7.859375 1.796875 -6.515625 0.4375 -5.671875 C 0.59375 -5.5 0.828125 -5.078125 0.90625 -4.90625 C 1.234375 -5.125 1.5625 -5.375 1.890625 -5.65625 L 1.890625 -0.90625 C 1.890625 0.40625 2.4375 0.703125 4.203125 0.703125 C 4.59375 0.703125 8.046875 0.703125 8.5 0.703125 C 10.15625 0.703125 10.5 0.203125 10.703125 -1.53125 C 10.453125 -1.578125 10.109375 -1.703125 9.890625 -1.84375 C 9.765625 -0.375 9.59375 -0.0625 8.484375 -0.0625 C 7.734375 -0.0625 4.734375 -0.0625 4.140625 -0.0625 C 2.921875 -0.0625 2.703125 -0.21875 2.703125 -0.890625 L 2.703125 -2.75 L 8.734375 -2.75 L 8.734375 -2.25 L 9.5625 -2.25 L 9.5625 -6.25 L 6.5 -6.25 C 7.015625 -6.78125 7.53125 -7.4375 7.90625 -8.015625 L 7.359375 -8.40625 L 7.203125 -8.359375 L 4.25 -8.359375 C 4.40625 -8.59375 4.5625 -8.84375 4.6875 -9.09375 Z "/>
</g>
<g id="glyph-0-1">
<path d="M 0.828125 -0.15625 L 0.828125 0.640625 L 10.34375 0.640625 L 10.34375 -0.15625 L 6.015625 -0.15625 L 6.015625 -2.5625 L 9.28125 -2.5625 L 9.28125 -3.328125 L 1.828125 -3.328125 L 1.828125 -2.5625 L 5.15625 -2.5625 L 5.15625 -0.15625 Z M 4.65625 -9.15625 C 4.84375 -8.828125 5.046875 -8.40625 5.203125 -8.046875 L 0.84375 -8.046875 L 0.84375 -5.546875 L 1.671875 -5.546875 L 1.671875 -7.28125 L 4.09375 -7.28125 C 3.953125 -5.671875 3.46875 -4.9375 0.984375 -4.59375 C 1.140625 -4.421875 1.328125 -4.125 1.375 -3.921875 C 4.140625 -4.375 4.765625 -5.3125 4.953125 -7.28125 L 6.359375 -7.28125 L 6.359375 -5.5 C 6.359375 -4.625 6.625 -4.328125 7.546875 -4.328125 C 7.78125 -4.328125 9.203125 -4.328125 9.515625 -4.328125 C 9.890625 -4.328125 10.28125 -4.328125 10.46875 -4.390625 C 10.4375 -4.578125 10.390625 -4.90625 10.390625 -5.125 C 10.171875 -5.078125 9.75 -5.0625 9.46875 -5.0625 C 9.171875 -5.0625 7.84375 -5.0625 7.5625 -5.0625 C 7.25 -5.0625 7.1875 -5.171875 7.1875 -5.484375 L 7.1875 -7.28125 L 9.375 -7.28125 L 9.375 -5.8125 L 10.234375 -5.8125 L 10.234375 -8.046875 L 6.203125 -8.046875 C 6.046875 -8.453125 5.765625 -9 5.515625 -9.40625 Z "/>
</g>
<g id="glyph-0-2">
<path d="M 6.828125 -1.875 L 6.828125 -0.796875 L 4.21875 -0.796875 L 4.21875 -1.875 Z M 6.828125 -2.515625 L 4.21875 -2.515625 L 4.21875 -3.546875 L 6.828125 -3.546875 Z M 3.46875 -4.203125 L 3.46875 0.421875 L 4.21875 0.421875 L 4.21875 -0.140625 L 7.609375 -0.140625 L 7.609375 -4.203125 Z M 4.25 -6.671875 L 4.25 -5.671875 L 1.828125 -5.671875 L 1.828125 -6.671875 Z M 4.25 -7.28125 L 1.828125 -7.28125 L 1.828125 -8.203125 L 4.25 -8.203125 Z M 9.328125 -6.671875 L 9.328125 -5.671875 L 6.828125 -5.671875 L 6.828125 -6.671875 Z M 9.328125 -7.28125 L 6.828125 -7.28125 L 6.828125 -8.203125 L 9.328125 -8.203125 Z M 9.75 -8.859375 L 6.046875 -8.859375 L 6.046875 -5.015625 L 9.328125 -5.015625 L 9.328125 -0.21875 C 9.328125 -0.015625 9.265625 0.03125 9.078125 0.046875 C 8.875 0.046875 8.203125 0.0625 7.515625 0.03125 C 7.640625 0.265625 7.765625 0.65625 7.8125 0.890625 C 8.734375 0.890625 9.328125 0.875 9.6875 0.734375 C 10.046875 0.59375 10.171875 0.328125 10.171875 -0.21875 L 10.171875 -8.859375 Z M 1 -8.859375 L 1 0.90625 L 1.828125 0.90625 L 1.828125 -5.046875 L 5.03125 -5.046875 L 5.03125 -8.859375 Z "/>
</g>
</g>
</defs>
<g fill="rgb(30.980392%, 76.470588%, 96.862745%)" fill-opacity="1">
<use xlink:href="#glyph-0-0" x="30" y="32.887695"/>
<use xlink:href="#glyph-0-1" x="41" y="32.887695"/>
<use xlink:href="#glyph-0-2" x="52" y="32.887695"/>
</g>
</svg>
