<?xml version="1.0" encoding="UTF-8"?>
<svg xmlns="http://www.w3.org/2000/svg" xmlns:xlink="http://www.w3.org/1999/xlink" width="1920" height="1080" viewBox="0 0 1920 1080">
<defs>
<g>
<g id="glyph-0-0">
<path d="M 0.53125 0 L 3 0 L 3 -0.46875 L 2.09375 -0.46875 L 2.09375 -4.484375 L 1.671875 -4.484375 C 1.421875 -4.34375 1.140625 -4.234375 0.734375 -4.15625 L 0.734375 -3.8125 L 1.546875 -3.8125 L 1.546875 -0.46875 L 0.53125 -0.46875 Z "/>
</g>
<g id="glyph-0-1">
<path d="M 1.703125 0.078125 C 2.546875 0.078125 3.09375 -0.6875 3.09375 -2.25 C 3.09375 -3.8125 2.546875 -4.5625 1.703125 -4.5625 C 0.84375 -4.5625 0.3125 -3.8125 0.3125 -2.25 C 0.3125 -0.6875 0.84375 0.078125 1.703125 0.078125 Z M 1.703125 -0.375 C 1.1875 -0.375 0.84375 -0.9375 0.84375 -2.25 C 0.84375 -3.5625 1.1875 -4.125 1.703125 -4.125 C 2.203125 -4.125 2.546875 -3.5625 2.546875 -2.25 C 2.546875 -0.9375 2.203125 -0.375 1.703125 -0.375 Z "/>
</g>
<g id="glyph-0-2">
<path d="M 0.359375 -2.6875 L 2.1875 -2.6875 L 2.1875 -3.0625 L 1.0625 -3.0625 C 1.625 -3.640625 2.046875 -4.0625 2.046875 -4.578125 C 2.046875 -5.140625 1.6875 -5.4375 1.15625 -5.4375 C 0.796875 -5.4375 0.46875 -5.234375 0.28125 -4.921875 L 0.53125 -4.6875 C 0.671875 -4.90625 0.875 -5.078125 1.109375 -5.078125 C 1.421875 -5.078125 1.625 -4.859375 1.625 -4.515625 C 1.625 -4.109375 1.1875 -3.6875 0.359375 -2.9375 Z "/>
</g>
<g id="glyph-1-0">
<path d="M 0.375 -3.015625 C 0.375 -3.347656 0.453125 -3.628906 0.609375 -3.859375 C 0.753906 -4.085938 0.929688 -4.203125 1.140625 -4.203125 C 1.359375 -4.203125 1.539062 -4.085938 1.6875 -3.859375 C 1.832031 -3.628906 1.90625 -3.347656 1.90625 -3.015625 C 1.90625 -2.691406 1.832031 -2.414062 1.6875 -2.1875 C 1.539062 -1.957031 1.359375 -1.84375 1.140625 -1.84375 C 0.929688 -1.84375 0.753906 -1.957031 0.609375 -2.1875 C 0.453125 -2.414062 0.375 -2.691406 0.375 -3.015625 Z M 0.6875 -3.015625 C 0.6875 -2.742188 0.726562 -2.507812 0.8125 -2.3125 C 0.90625 -2.113281 1.015625 -2.015625 1.140625 -2.015625 C 1.273438 -2.015625 1.382812 -2.113281 1.46875 -2.3125 C 1.5625 -2.507812 1.609375 -2.742188 1.609375 -3.015625 C 1.609375 -3.296875 1.5625 -3.535156 1.46875 -3.734375 C 1.382812 -3.929688 1.273438 -4.03125 1.140625 -4.03125 C 1.015625 -4.03125 0.90625 -3.929688 0.8125 -3.734375 C 0.726562 -3.535156 0.6875 -3.296875 0.6875 -3.015625 Z "/>
</g>
</g>
</defs>
<g fill="rgb(100%, 71.764706%, 30.196078%)" fill-opacity="1">
<use xlink:href="#glyph-0-0" x="30" y="27.087891"/>
<use xlink:href="#glyph-0-1" x="33" y="27.087891"/>
<use xlink:href="#glyph-0-2" x="36" y="27.087891"/>
</g>
<g fill="rgb(100%, 71.764706%, 30.196078%)" fill-opacity="1">
<use xlink:href="#glyph-1-0" x="39" y="27.087891"/>
</g>
</svg>
