<?xml version="1.0" encoding="UTF-8"?>
<svg xmlns="http://www.w3.org/2000/svg" xmlns:xlink="http://www.w3.org/1999/xlink" width="1920" height="1080" viewBox="0 0 1920 1080">
<defs>
<g>
<g id="glyph-0-0">
<path d="M 7.796875 -3.90625 L 7.796875 -0.4375 C 7.796875 0.390625 7.96875 0.640625 8.75 0.640625 C 8.890625 0.640625 9.5625 0.640625 9.703125 0.640625 C 10.390625 0.640625 10.59375 0.21875 10.65625 -1.3125 C 10.453125 -1.359375 10.109375 -1.5 9.9375 -1.640625 C 9.921875 -0.296875 9.875 -0.09375 9.625 -0.09375 C 9.5 -0.09375 8.96875 -0.09375 8.859375 -0.09375 C 8.625 -0.09375 8.578125 -0.140625 8.578125 -0.4375 L 8.578125 -3.90625 Z M 5.796875 -3.921875 C 5.734375 -1.671875 5.515625 -0.421875 3.78125 0.28125 C 3.953125 0.4375 4.1875 0.75 4.28125 0.9375 C 6.1875 0.09375 6.515625 -1.390625 6.59375 -3.921875 Z M 2.0625 -2.09375 C 2.203125 -1.328125 2.328125 -0.296875 2.359375 0.375 L 2.984375 0.25 C 2.953125 -0.421875 2.828125 -1.421875 2.671875 -2.203125 Z M 0.9375 -2.1875 C 0.828125 -1.265625 0.65625 -0.25 0.390625 0.4375 C 0.5625 0.5 0.890625 0.59375 1.03125 0.671875 C 1.265625 -0.015625 1.484375 -1.09375 1.59375 -2.0625 Z M 3.140625 -2.3125 C 3.359375 -1.703125 3.59375 -0.890625 3.6875 -0.359375 L 4.296875 -0.5625 C 4.203125 -1.09375 3.9375 -1.875 3.703125 -2.484375 Z M 6.5 -9.125 C 6.703125 -8.75 6.921875 -8.25 7.078125 -7.859375 L 4.5625 -7.859375 L 4.5625 -7.109375 L 6.5625 -7.109375 C 6.125 -6.453125 5.46875 -5.515625 5.25 -5.28125 C 5.046875 -5.09375 4.765625 -5.015625 4.578125 -4.953125 C 4.65625 -4.78125 4.8125 -4.375 4.84375 -4.171875 C 5.125 -4.28125 5.578125 -4.359375 9.390625 -4.71875 C 9.578125 -4.421875 9.734375 -4.140625 9.84375 -3.921875 L 10.515625 -4.296875 C 10.1875 -4.9375 9.46875 -5.984375 8.859375 -6.75 L 8.234375 -6.4375 C 8.46875 -6.109375 8.75 -5.734375 8.984375 -5.359375 L 6.109375 -5.125 C 6.53125 -5.703125 7.09375 -6.484375 7.5 -7.109375 L 10.453125 -7.109375 L 10.453125 -7.859375 L 7.9375 -7.859375 C 7.78125 -8.265625 7.484375 -8.875 7.234375 -9.34375 Z M 0.734375 -2.671875 C 0.953125 -2.78125 1.28125 -2.859375 3.71875 -3.21875 C 3.78125 -2.984375 3.828125 -2.78125 3.859375 -2.59375 L 4.5625 -2.828125 C 4.4375 -3.421875 4.125 -4.40625 3.828125 -5.125 L 3.15625 -4.953125 C 3.28125 -4.625 3.421875 -4.25 3.53125 -3.859375 L 1.75 -3.625 C 2.65625 -4.640625 3.546875 -5.921875 4.28125 -7.203125 L 3.5625 -7.609375 C 3.328125 -7.125 3.046875 -6.625 2.75 -6.171875 L 1.53125 -6.0625 C 2.15625 -6.90625 2.78125 -7.984375 3.25 -9.03125 L 2.484375 -9.359375 C 2.015625 -8.15625 1.25 -6.890625 1.015625 -6.5625 C 0.78125 -6.21875 0.578125 -5.984375 0.390625 -5.9375 C 0.484375 -5.734375 0.609375 -5.34375 0.65625 -5.171875 C 0.828125 -5.25 1.0625 -5.296875 2.265625 -5.4375 C 1.84375 -4.828125 1.484375 -4.359375 1.296875 -4.171875 C 0.953125 -3.765625 0.703125 -3.484375 0.46875 -3.4375 C 0.5625 -3.21875 0.6875 -2.828125 0.734375 -2.671875 Z "/>
</g>
<g id="glyph-0-1">
<path d="M 1.203125 -5.984375 L 1.203125 -5.3125 L 4.828125 -5.3125 L 4.828125 -5.984375 Z M 1.203125 -4.515625 L 1.203125 -3.859375 L 4.8125 -3.859375 L 4.8125 -4.515625 Z M 0.71875 -7.4375 L 0.71875 -6.75 L 5.3125 -6.75 L 5.3125 -7.4375 Z M 2.015625 -9.046875 C 2.328125 -8.59375 2.6875 -7.953125 2.859375 -7.546875 L 3.53125 -7.9375 C 3.359375 -8.34375 3 -8.9375 2.671875 -9.375 Z M 1.28125 -3.03125 L 1.28125 0.75 L 2.015625 0.75 L 2.015625 0.21875 L 4.828125 0.21875 L 4.828125 -3.03125 Z M 2.015625 -2.328125 L 4.09375 -2.328125 L 4.09375 -0.484375 L 2.015625 -0.484375 Z M 7.46875 -9.125 L 7.46875 -5.484375 L 5.28125 -5.484375 L 5.28125 -4.671875 L 7.46875 -4.671875 L 7.46875 0.890625 L 8.328125 0.890625 L 8.328125 -4.671875 L 10.609375 -4.671875 L 10.609375 -5.484375 L 8.328125 -5.484375 L 8.328125 -9.125 Z "/>
</g>
<g id="glyph-0-2">
<path d="M 7.125 -8.96875 C 7.4375 -8.46875 7.75 -7.78125 7.90625 -7.34375 L 5.6875 -7.34375 C 5.9375 -7.90625 6.171875 -8.484375 6.359375 -9.0625 L 5.578125 -9.265625 C 5.078125 -7.625 4.234375 -6.015625 3.25 -4.984375 C 3.40625 -4.859375 3.65625 -4.609375 3.796875 -4.453125 L 2.6875 -4.109375 L 2.6875 -6.34375 L 3.9375 -6.34375 L 3.9375 -7.125 L 2.6875 -7.125 L 2.6875 -9.328125 L 1.875 -9.328125 L 1.875 -7.125 L 0.4375 -7.125 L 0.4375 -6.34375 L 1.875 -6.34375 L 1.875 -3.859375 L 0.359375 -3.40625 L 0.5625 -2.59375 L 1.875 -3.015625 L 1.875 -0.140625 C 1.875 0.015625 1.8125 0.0625 1.671875 0.0625 C 1.546875 0.078125 1.109375 0.078125 0.640625 0.0625 C 0.75 0.296875 0.859375 0.65625 0.875 0.859375 C 1.59375 0.859375 2.015625 0.84375 2.296875 0.703125 C 2.578125 0.5625 2.6875 0.328125 2.6875 -0.140625 L 2.6875 -3.28125 L 3.953125 -3.703125 L 3.84375 -4.40625 L 3.875 -4.375 C 4.1875 -4.75 4.5 -5.171875 4.78125 -5.625 L 4.78125 0.890625 L 5.59375 0.890625 L 5.59375 0.125 L 10.59375 0.125 L 10.59375 -0.65625 L 8.25 -0.65625 L 8.25 -2.171875 L 10.203125 -2.171875 L 10.203125 -2.90625 L 8.25 -2.90625 L 8.25 -4.375 L 10.203125 -4.375 L 10.203125 -5.125 L 8.25 -5.125 L 8.25 -6.578125 L 10.375 -6.578125 L 10.375 -7.34375 L 8.015625 -7.34375 L 8.671875 -7.625 C 8.515625 -8.0625 8.171875 -8.734375 7.84375 -9.25 Z M 5.59375 -4.375 L 7.46875 -4.375 L 7.46875 -2.90625 L 5.59375 -2.90625 Z M 5.59375 -5.125 L 5.59375 -6.578125 L 7.46875 -6.578125 L 7.46875 -5.125 Z M 5.59375 -2.171875 L 7.46875 -2.171875 L 7.46875 -0.65625 L 5.59375 -0.65625 Z "/>
</g>
<g id="glyph-0-3">
<path d="M 0.84375 -5.984375 L 0.84375 -5.3125 L 3.546875 -5.3125 L 3.546875 -5.984375 Z M 0.84375 -4.515625 L 0.84375 -3.859375 L 3.546875 -3.859375 L 3.546875 -4.515625 Z M 0.453125 -7.4375 L 0.453125 -6.75 L 3.859375 -6.75 L 3.859375 -7.4375 Z M 1.390625 -9.046875 C 1.703125 -8.59375 2.0625 -7.953125 2.234375 -7.546875 L 2.90625 -7.9375 C 2.734375 -8.34375 2.375 -8.9375 2.046875 -9.375 Z M 4.375 -4.5625 L 4.375 0.9375 L 5.078125 0.9375 L 5.078125 -1.65625 L 6.0625 -1.65625 L 6.0625 0.640625 L 6.6875 0.640625 L 6.6875 -1.65625 L 7.703125 -1.65625 L 7.703125 0.640625 L 8.3125 0.640625 L 8.3125 -1.65625 L 9.34375 -1.65625 L 9.34375 0.015625 C 9.34375 0.09375 9.328125 0.140625 9.25 0.140625 C 9.171875 0.140625 8.90625 0.140625 8.625 0.140625 C 8.71875 0.328125 8.796875 0.640625 8.828125 0.828125 C 9.265625 0.828125 9.5625 0.828125 9.78125 0.71875 C 10.015625 0.59375 10.046875 0.375 10.046875 0.015625 L 10.046875 -4.5625 Z M 5.078125 -2.359375 L 5.078125 -3.859375 L 6.0625 -3.859375 L 6.0625 -2.359375 Z M 6.6875 -2.359375 L 6.6875 -3.859375 L 7.703125 -3.859375 L 7.703125 -2.359375 Z M 8.3125 -2.359375 L 8.3125 -3.859375 L 9.34375 -3.859375 L 9.34375 -2.359375 Z M 7.140625 -9.375 C 6.40625 -8.03125 4.90625 -6.609375 3.5625 -5.9375 C 3.75 -5.75 3.9375 -5.40625 4.0625 -5.171875 C 4.453125 -5.40625 4.875 -5.6875 5.28125 -6.015625 L 5.28125 -5.515625 L 9.09375 -5.515625 L 9.09375 -5.96875 C 9.4375 -5.703125 9.796875 -5.484375 10.171875 -5.328125 C 10.296875 -5.546875 10.578125 -5.90625 10.765625 -6.09375 C 9.546875 -6.546875 8.296875 -7.5625 7.59375 -8.609375 L 7.78125 -8.9375 Z M 5.546875 -6.25 C 6.125 -6.765625 6.6875 -7.359375 7.15625 -7.96875 C 7.578125 -7.34375 8.125 -6.75 8.703125 -6.25 Z M 0.78125 -3.03125 L 0.78125 0.75 L 1.484375 0.75 L 1.484375 0.21875 L 3.625 0.21875 L 3.625 -3.03125 Z M 1.484375 -2.328125 L 2.921875 -2.328125 L 2.921875 -0.484375 L 1.484375 -0.484375 Z "/>
</g>
<g id="glyph-0-4">
<path d="M 4.5625 -1.734375 L 4.5625 -0.171875 C 4.5625 0.59375 4.8125 0.8125 5.8125 0.8125 C 6.015625 0.8125 7.40625 0.8125 7.609375 0.8125 C 8.375 0.8125 8.625 0.546875 8.703125 -0.5625 C 8.5 -0.609375 8.171875 -0.71875 8.015625 -0.84375 C 7.96875 0 7.90625 0.109375 7.53125 0.109375 C 7.234375 0.109375 6.109375 0.109375 5.875 0.109375 C 5.40625 0.109375 5.328125 0.0625 5.328125 -0.171875 L 5.328125 -1.734375 Z M 5.53125 -2.0625 C 6.1875 -1.75 6.984375 -1.265625 7.359375 -0.90625 L 7.875 -1.4375 C 7.484375 -1.78125 6.671875 -2.25 6.015625 -2.53125 Z M 8.34375 -1.578125 C 8.96875 -0.921875 9.640625 -0.015625 9.90625 0.59375 L 10.59375 0.25 C 10.296875 -0.359375 9.609375 -1.25 8.96875 -1.890625 Z M 3.21875 -1.765625 C 2.984375 -1.0625 2.5625 -0.25 1.9375 0.21875 L 2.578125 0.625 C 3.25 0.09375 3.625 -0.75 3.90625 -1.515625 Z M 7.5625 -5.03125 L 7.5625 -4.421875 L 5.84375 -4.421875 L 5.84375 -5.03125 Z M 7.125 -7.484375 C 7.328125 -7.25 7.546875 -6.9375 7.703125 -6.671875 L 6.015625 -6.671875 C 6.171875 -6.9375 6.3125 -7.21875 6.4375 -7.5 L 5.734375 -7.703125 C 5.328125 -6.734375 4.671875 -5.78125 3.953125 -5.125 L 3.953125 -6.265625 C 4.21875 -6.65625 4.453125 -7.0625 4.65625 -7.484375 L 3.953125 -7.671875 C 3.484375 -6.703125 2.75 -5.75 1.984375 -5.0625 L 1.984375 -7.765625 L 10.578125 -7.765625 L 10.578125 -8.46875 L 6.546875 -8.46875 C 6.40625 -8.8125 6.125 -9.21875 5.875 -9.546875 L 5.15625 -9.296875 C 5.34375 -9.046875 5.515625 -8.75 5.671875 -8.46875 L 1.203125 -8.46875 L 1.203125 -5.125 C 1.203125 -3.484375 1.140625 -1.203125 0.328125 0.40625 C 0.5 0.5 0.828125 0.75 0.96875 0.90625 C 1.796875 -0.734375 1.96875 -3.125 1.984375 -4.84375 C 2.125 -4.703125 2.296875 -4.515625 2.390625 -4.421875 C 2.671875 -4.671875 2.953125 -4.984375 3.234375 -5.3125 L 3.234375 -2.375 L 3.953125 -2.375 L 3.953125 -5.109375 C 4.125 -5 4.40625 -4.78125 4.53125 -4.640625 C 4.734375 -4.84375 4.9375 -5.078125 5.125 -5.328125 L 5.125 -2.390625 L 5.84375 -2.390625 L 5.84375 -2.71875 L 10.390625 -2.71875 L 10.390625 -3.28125 L 8.28125 -3.28125 L 8.28125 -3.9375 L 9.9375 -3.9375 L 9.9375 -4.421875 L 8.28125 -4.421875 L 8.28125 -5.03125 L 9.90625 -5.03125 L 9.90625 -5.515625 L 8.28125 -5.515625 L 8.28125 -6.125 L 10.203125 -6.125 L 10.203125 -6.671875 L 8.140625 -6.671875 L 8.40625 -6.8125 C 8.28125 -7.0625 7.96875 -7.453125 7.703125 -7.75 Z M 7.5625 -5.515625 L 5.84375 -5.515625 L 5.84375 -6.125 L 7.5625 -6.125 Z M 7.5625 -3.9375 L 7.5625 -3.28125 L 5.84375 -3.28125 L 5.84375 -3.9375 Z "/>
</g>
<g id="glyph-0-5">
<path d="M 1.703125 -8.546875 L 1.703125 -4.515625 C 1.703125 -2.953125 1.59375 -0.984375 0.359375 0.40625 C 0.546875 0.5 0.875 0.78125 1 0.9375 C 1.859375 0 2.234375 -1.28125 2.40625 -2.515625 L 5.1875 -2.515625 L 5.1875 0.78125 L 6.03125 0.78125 L 6.03125 -2.515625 L 9.03125 -2.515625 L 9.03125 -0.25 C 9.03125 -0.046875 8.953125 0.015625 8.734375 0.03125 C 8.515625 0.046875 7.765625 0.0625 6.984375 0.015625 C 7.09375 0.25 7.234375 0.609375 7.28125 0.828125 C 8.328125 0.828125 8.96875 0.828125 9.34375 0.6875 C 9.71875 0.5625 9.859375 0.296875 9.859375 -0.25 L 9.859375 -8.546875 Z M 2.515625 -7.75 L 5.1875 -7.75 L 5.1875 -5.96875 L 2.515625 -5.96875 Z M 9.03125 -7.75 L 9.03125 -5.96875 L 6.03125 -5.96875 L 6.03125 -7.75 Z M 2.515625 -5.171875 L 5.1875 -5.171875 L 5.1875 -3.3125 L 2.484375 -3.3125 C 2.515625 -3.734375 2.515625 -4.140625 2.515625 -4.515625 Z M 9.03125 -5.171875 L 9.03125 -3.3125 L 6.03125 -3.3125 L 6.03125 -5.171875 Z "/>
</g>
<g id="glyph-0-6">
<path d="M 6.703125 -4.6875 C 7.53125 -4.125 8.59375 -3.34375 9.09375 -2.84375 L 9.671875 -3.484375 C 9.140625 -3.984375 8.046875 -4.75 7.234375 -5.25 Z M 6.015625 -1.40625 C 7.28125 -0.765625 8.84375 0.234375 9.59375 0.90625 L 10.171875 0.171875 C 9.375 -0.484375 7.78125 -1.4375 6.546875 -2.03125 Z M 2.015625 -9.125 C 2.390625 -8.625 2.78125 -7.96875 2.9375 -7.53125 L 3.703125 -7.859375 C 3.546875 -8.28125 3.140625 -8.9375 2.75 -9.40625 Z M 0.484375 -7.5 L 0.484375 -6.71875 L 1.828125 -6.71875 C 1.78125 -3.90625 1.65625 -1.1875 0.296875 0.296875 C 0.515625 0.421875 0.796875 0.703125 0.9375 0.890625 C 2.03125 -0.359375 2.40625 -2.296875 2.5625 -4.484375 L 4.09375 -4.484375 C 4.015625 -1.484375 3.921875 -0.421875 3.71875 -0.171875 C 3.625 -0.046875 3.546875 -0.015625 3.40625 -0.015625 C 3.21875 -0.015625 2.84375 -0.015625 2.40625 -0.0625 C 2.546875 0.140625 2.625 0.484375 2.640625 0.71875 C 3.078125 0.75 3.515625 0.75 3.78125 0.71875 C 4.0625 0.6875 4.25 0.59375 4.4375 0.359375 C 4.71875 -0.03125 4.8125 -1.265625 4.90625 -4.875 C 4.90625 -4.984375 4.90625 -5.25 4.90625 -5.25 L 2.609375 -5.25 L 2.65625 -6.71875 L 5.3125 -6.71875 L 5.3125 -7.5 Z M 6.96875 -9.375 C 6.5625 -7.8125 5.765625 -6.203125 4.90625 -5.296875 C 5.125 -5.171875 5.40625 -4.90625 5.546875 -4.71875 C 6 -5.21875 6.40625 -5.859375 6.765625 -6.5625 L 10.71875 -6.5625 L 10.71875 -7.34375 L 7.125 -7.34375 C 7.375 -7.921875 7.59375 -8.53125 7.78125 -9.140625 Z "/>
</g>
<g id="glyph-0-7">
<path d="M 2.640625 -6.671875 L 2.640625 -6.0625 L 6.75 -6.0625 L 6.75 -6.671875 Z M 3.328125 -2.171875 L 3.328125 -0.140625 C 3.328125 0.5625 3.53125 0.75 4.34375 0.75 C 4.515625 0.75 5.484375 0.75 5.671875 0.75 C 6.359375 0.75 6.53125 0.421875 6.609375 -0.875 C 6.421875 -0.921875 6.140625 -1.015625 6 -1.140625 C 5.96875 -0.015625 5.90625 0.140625 5.59375 0.140625 C 5.375 0.140625 4.578125 0.140625 4.4375 0.140625 C 4.09375 0.140625 4.03125 0.09375 4.03125 -0.15625 L 4.03125 -2.171875 Z M 4.203125 -2.5625 C 4.5625 -2.03125 5 -1.328125 5.203125 -0.90625 L 5.765625 -1.1875 C 5.546875 -1.59375 5.09375 -2.28125 4.75 -2.796875 Z M 6.4375 -1.875 C 6.796875 -1.140625 7.21875 -0.15625 7.421875 0.421875 L 8.046875 0.140625 C 7.84375 -0.40625 7.40625 -1.359375 7.03125 -2.09375 Z M 2.453125 -2.015625 C 2.34375 -1.3125 2.109375 -0.375 1.828125 0.1875 L 2.390625 0.484375 C 2.6875 -0.140625 2.90625 -1.09375 3.015625 -1.828125 Z M 3.5625 -4.703125 L 5.859375 -4.703125 L 5.859375 -3.4375 L 3.5625 -3.4375 Z M 2.859375 -5.3125 L 2.859375 -2.84375 L 6.40625 -2.84375 L 6.296875 -2.78125 C 6.484375 -2.640625 6.765625 -2.359375 6.890625 -2.21875 C 7.21875 -2.484375 7.546875 -2.75 7.859375 -3.078125 C 8.28125 -0.765625 8.9375 0.84375 9.765625 0.84375 C 10.46875 0.84375 10.734375 0.3125 10.859375 -1.484375 C 10.640625 -1.5625 10.375 -1.734375 10.203125 -1.90625 C 10.171875 -0.5625 10.046875 0.0625 9.875 0.0625 C 9.4375 0.0625 8.890625 -1.5 8.515625 -3.8125 C 9.171875 -4.625 9.734375 -5.578125 10.125 -6.625 L 9.40625 -6.828125 C 9.125 -6.109375 8.78125 -5.4375 8.359375 -4.828125 C 8.25 -5.65625 8.171875 -6.53125 8.125 -7.46875 L 10.515625 -7.46875 L 10.515625 -8.171875 L 9.609375 -8.171875 L 10.09375 -8.5625 C 9.796875 -8.796875 9.25 -9.1875 8.84375 -9.4375 L 8.328125 -9.0625 C 8.734375 -8.8125 9.25 -8.421875 9.53125 -8.171875 L 8.09375 -8.171875 L 8.078125 -9.328125 L 7.28125 -9.328125 L 7.328125 -8.171875 L 1.328125 -8.171875 L 1.328125 -5.828125 C 1.328125 -4.0625 1.25 -1.4375 0.359375 0.453125 C 0.515625 0.515625 0.875 0.765625 1.015625 0.90625 C 1.9375 -1.078125 2.09375 -3.96875 2.09375 -5.828125 L 2.09375 -7.46875 L 7.359375 -7.46875 C 7.4375 -6.25 7.546875 -5.0625 7.703125 -4 C 7.34375 -3.59375 6.953125 -3.25 6.53125 -2.9375 L 6.53125 -5.3125 Z "/>
</g>
<g id="glyph-0-8">
<path d="M 6.078125 -8.359375 L 6.078125 0.5625 L 6.890625 0.5625 L 6.890625 -0.3125 L 9.25 -0.3125 L 9.25 0.4375 L 10.09375 0.4375 L 10.09375 -8.359375 Z M 6.890625 -1.09375 L 6.890625 -7.578125 L 9.25 -7.578125 L 9.25 -1.09375 Z M 1.75 -9.34375 C 1.484375 -7.96875 1.015625 -6.65625 0.359375 -5.796875 C 0.5625 -5.671875 0.90625 -5.4375 1.046875 -5.3125 C 1.375 -5.78125 1.6875 -6.40625 1.9375 -7.0625 L 2.796875 -7.0625 L 2.796875 -4.84375 L 0.5 -4.84375 L 0.5 -4.046875 L 2.75 -4.046875 C 2.59375 -2.5625 2.0625 -0.96875 0.375 0.234375 C 0.546875 0.359375 0.859375 0.6875 0.953125 0.859375 C 2.234375 -0.0625 2.90625 -1.25 3.265625 -2.4375 C 3.859375 -1.75 4.75 -0.703125 5.125 -0.15625 L 5.6875 -0.859375 C 5.359375 -1.25 4 -2.765625 3.46875 -3.28125 C 3.515625 -3.546875 3.5625 -3.796875 3.578125 -4.046875 L 5.71875 -4.046875 L 5.71875 -4.84375 L 3.625 -4.84375 L 3.625 -7.0625 L 5.40625 -7.0625 L 5.40625 -7.84375 L 2.203125 -7.84375 C 2.34375 -8.28125 2.453125 -8.71875 2.5625 -9.171875 Z "/>
</g>
</g>
</defs>
<g fill="rgb(30.980392%, 76.470588%, 96.862745%)" fill-opacity="1">
<use xlink:href="#glyph-0-0" x="30" y="32.887695"/>
<use xlink:href="#glyph-0-1" x="41" y="32.887695"/>
<use xlink:href="#glyph-0-2" x="52" y="32.887695"/>
<use xlink:href="#glyph-0-3" x="63" y="32.887695"/>
<use xlink:href="#glyph-0-4" x="74" y="32.887695"/>
<use xlink:href="#glyph-0-5" x="85" y="32.887695"/>
<use xlink:href="#glyph-0-6" x="96" y="32.887695"/>
<use xlink:href="#glyph-0-7" x="107" y="32.887695"/>
<use xlink:href="#glyph-0-8" x="118" y="32.887695"/>
</g>
</svg>
