<?xml version="1.0" encoding="UTF-8"?>
<svg xmlns="http://www.w3.org/2000/svg" xmlns:xlink="http://www.w3.org/1999/xlink" width="1920" height="1080" viewBox="0 0 1920 1080">
<defs>
<g>
<g id="glyph-0-0">
<path d="M 5.9375 -9.328125 C 5.5625 -7.640625 4.90625 -6.046875 3.96875 -5.046875 C 4.15625 -4.9375 4.484375 -4.703125 4.609375 -4.5625 C 5.09375 -5.125 5.515625 -5.859375 5.890625 -6.6875 L 6.84375 -6.6875 C 6.328125 -4.90625 5.34375 -3.03125 4.171875 -2.09375 C 4.390625 -1.984375 4.65625 -1.78125 4.828125 -1.609375 C 6.046875 -2.671875 7.046875 -4.765625 7.5625 -6.6875 L 8.46875 -6.6875 C 7.90625 -3.875 6.703125 -1.109375 4.859375 0.203125 C 5.09375 0.3125 5.40625 0.53125 5.5625 0.703125 C 7.40625 -0.765625 8.640625 -3.75 9.203125 -6.6875 L 9.734375 -6.6875 C 9.515625 -2.25 9.265625 -0.59375 8.90625 -0.203125 C 8.78125 -0.0625 8.671875 -0.015625 8.484375 -0.015625 C 8.28125 -0.015625 7.828125 -0.03125 7.328125 -0.078125 C 7.46875 0.15625 7.546875 0.515625 7.5625 0.75 C 8.046875 0.78125 8.53125 0.78125 8.828125 0.75 C 9.171875 0.71875 9.390625 0.625 9.609375 0.3125 C 10.046875 -0.234375 10.296875 -1.984375 10.546875 -7.046875 C 10.546875 -7.15625 10.5625 -7.46875 10.5625 -7.46875 L 6.203125 -7.46875 C 6.390625 -8.015625 6.5625 -8.59375 6.703125 -9.1875 Z M 1.09375 -8.6875 C 0.953125 -7.328125 0.734375 -5.90625 0.328125 -4.984375 C 0.5 -4.90625 0.828125 -4.703125 0.953125 -4.59375 C 1.140625 -5.0625 1.3125 -5.625 1.4375 -6.25 L 2.46875 -6.25 L 2.46875 -3.75 C 1.6875 -3.515625 0.953125 -3.3125 0.390625 -3.171875 L 0.609375 -2.359375 L 2.46875 -2.9375 L 2.46875 0.890625 L 3.25 0.890625 L 3.25 -3.1875 L 4.640625 -3.625 L 4.53125 -4.359375 L 3.25 -3.984375 L 3.25 -6.25 L 4.390625 -6.25 L 4.390625 -7.046875 L 3.25 -7.046875 L 3.25 -9.328125 L 2.46875 -9.328125 L 2.46875 -7.046875 L 1.59375 -7.046875 C 1.671875 -7.546875 1.75 -8.0625 1.8125 -8.578125 Z "/>
</g>
<g id="glyph-0-1">
<path d="M 5.28125 -6 L 6.984375 -6 L 6.984375 -4.5625 L 5.28125 -4.5625 Z M 7.703125 -6 L 9.40625 -6 L 9.40625 -4.5625 L 7.703125 -4.5625 Z M 5.28125 -8.09375 L 6.984375 -8.09375 L 6.984375 -6.671875 L 5.28125 -6.671875 Z M 7.703125 -8.09375 L 9.40625 -8.09375 L 9.40625 -6.671875 L 7.703125 -6.671875 Z M 3.53125 -0.25 L 3.53125 0.515625 L 10.75 0.515625 L 10.75 -0.25 L 7.78125 -0.25 L 7.78125 -1.78125 L 10.359375 -1.78125 L 10.359375 -2.53125 L 7.78125 -2.53125 L 7.78125 -3.84375 L 10.203125 -3.84375 L 10.203125 -8.828125 L 4.515625 -8.828125 L 4.515625 -3.84375 L 6.921875 -3.84375 L 6.921875 -2.53125 L 4.390625 -2.53125 L 4.390625 -1.78125 L 6.921875 -1.78125 L 6.921875 -0.25 Z M 0.390625 -1.109375 L 0.59375 -0.265625 C 1.578125 -0.59375 2.859375 -1.015625 4.0625 -1.421875 L 3.90625 -2.234375 L 2.6875 -1.828125 L 2.6875 -4.59375 L 3.8125 -4.59375 L 3.8125 -5.359375 L 2.6875 -5.359375 L 2.6875 -7.796875 L 3.984375 -7.796875 L 3.984375 -8.578125 L 0.515625 -8.578125 L 0.515625 -7.796875 L 1.890625 -7.796875 L 1.890625 -5.359375 L 0.625 -5.359375 L 0.625 -4.59375 L 1.890625 -4.59375 L 1.890625 -1.5625 C 1.328125 -1.390625 0.8125 -1.234375 0.390625 -1.109375 Z "/>
</g>
<g id="glyph-0-2">
<path d="M 0.921875 -8.96875 C 1.375 -8.40625 1.953125 -7.640625 2.234375 -7.171875 L 2.890625 -7.59375 C 2.609375 -8.0625 2.046875 -8.78125 1.5625 -9.328125 Z M 4.8125 -4.125 L 6.484375 -4.125 L 6.484375 -3.359375 L 4.8125 -3.359375 Z M 7.28125 -4.125 L 9 -4.125 L 9 -3.359375 L 7.28125 -3.359375 Z M 4.8125 -5.40625 L 6.484375 -5.40625 L 6.484375 -4.671875 L 4.8125 -4.671875 Z M 7.28125 -5.40625 L 9 -5.40625 L 9 -4.671875 L 7.28125 -4.671875 Z M 3.546875 -2.09375 L 3.546875 -1.4375 L 6.484375 -1.4375 L 6.484375 -0.515625 L 7.28125 -0.515625 L 7.28125 -1.4375 L 10.375 -1.4375 L 10.375 -2.09375 L 7.28125 -2.09375 L 7.28125 -2.796875 L 9.71875 -2.796875 L 9.71875 -5.984375 L 7.28125 -5.984375 L 7.28125 -6.640625 L 9.453125 -6.640625 L 9.453125 -6.9375 L 10.25 -6.9375 L 10.25 -8.9375 L 3.484375 -8.9375 L 3.484375 -6.9375 L 4.25 -6.9375 L 4.25 -8.28125 L 9.4375 -8.28125 L 9.4375 -7.265625 L 7.28125 -7.265625 L 7.28125 -7.84375 L 6.484375 -7.84375 L 6.484375 -7.265625 L 4.34375 -7.265625 L 4.34375 -6.640625 L 6.484375 -6.640625 L 6.484375 -5.984375 L 4.109375 -5.984375 L 4.109375 -2.796875 L 6.484375 -2.796875 L 6.484375 -2.09375 Z M 0.671875 -3.15625 C 0.765625 -3.25 1.0625 -3.328125 1.328125 -3.328125 L 2.40625 -3.328125 C 2.0625 -1.59375 1.328125 -0.359375 0.328125 0.328125 C 0.5 0.4375 0.78125 0.734375 0.90625 0.90625 C 1.4375 0.5 1.90625 -0.0625 2.296875 -0.78125 C 3.171875 0.484375 4.59375 0.71875 6.84375 0.71875 C 8.0625 0.71875 9.46875 0.6875 10.515625 0.625 C 10.5625 0.40625 10.671875 0.015625 10.796875 -0.171875 C 9.65625 -0.0625 8.015625 -0.015625 6.859375 -0.015625 C 4.75 -0.015625 3.34375 -0.1875 2.625 -1.4375 C 2.90625 -2.140625 3.125 -2.9375 3.25 -3.859375 L 2.875 -4.015625 L 2.734375 -4 L 1.578125 -4 C 2.171875 -4.75 2.984375 -5.90625 3.421875 -6.5625 L 2.859375 -6.828125 L 2.71875 -6.75 L 0.515625 -6.75 L 0.515625 -6.046875 L 2.21875 -6.046875 C 1.765625 -5.359375 1.140625 -4.484375 0.90625 -4.25 C 0.71875 -4.03125 0.53125 -3.953125 0.359375 -3.90625 C 0.453125 -3.75 0.625 -3.359375 0.671875 -3.15625 Z "/>
</g>
<g id="glyph-0-3">
<path d="M 7.28125 -9.1875 C 7.28125 -8.34375 7.28125 -7.515625 7.25 -6.734375 L 5.9375 -6.734375 L 5.9375 -5.96875 L 7.234375 -5.96875 C 7.125 -3.859375 6.84375 -2.0625 5.875 -0.734375 L 5.875 -0.78125 L 3.640625 -0.546875 L 3.640625 -1.4375 L 5.828125 -1.4375 L 5.828125 -2.078125 L 3.640625 -2.078125 L 3.640625 -2.75 L 5.8125 -2.75 L 5.8125 -6.078125 L 3.640625 -6.078125 L 3.640625 -6.78125 L 6.015625 -6.78125 L 6.015625 -7.4375 L 3.640625 -7.4375 L 3.640625 -8.25 C 4.453125 -8.34375 5.21875 -8.4375 5.828125 -8.578125 L 5.40625 -9.21875 C 4.25 -8.953125 2.234375 -8.75 0.59375 -8.671875 C 0.671875 -8.5 0.75 -8.234375 0.78125 -8.046875 C 1.4375 -8.078125 2.171875 -8.125 2.875 -8.171875 L 2.875 -7.4375 L 0.46875 -7.4375 L 0.46875 -6.78125 L 2.875 -6.78125 L 2.875 -6.078125 L 0.796875 -6.078125 L 0.796875 -2.75 L 2.875 -2.75 L 2.875 -2.078125 L 0.765625 -2.078125 L 0.765625 -1.4375 L 2.875 -1.4375 L 2.875 -0.46875 L 0.46875 -0.25 L 0.578125 0.484375 C 1.828125 0.359375 3.5625 0.15625 5.265625 -0.046875 C 5.125 0.09375 4.953125 0.21875 4.78125 0.34375 C 4.984375 0.484375 5.28125 0.75 5.40625 0.9375 C 7.390625 -0.53125 7.890625 -2.984375 8.03125 -5.96875 L 9.609375 -5.96875 C 9.5 -1.90625 9.359375 -0.421875 9.09375 -0.09375 C 9 0.0625 8.890625 0.078125 8.703125 0.078125 C 8.5 0.078125 8 0.078125 7.453125 0.03125 C 7.59375 0.25 7.671875 0.59375 7.703125 0.828125 C 8.21875 0.859375 8.75 0.859375 9.0625 0.828125 C 9.40625 0.78125 9.625 0.703125 9.8125 0.40625 C 10.1875 -0.0625 10.296875 -1.625 10.421875 -6.328125 C 10.421875 -6.421875 10.421875 -6.734375 10.421875 -6.734375 L 8.046875 -6.734375 C 8.078125 -7.515625 8.09375 -8.34375 8.09375 -9.1875 Z M 1.484375 -4.140625 L 2.875 -4.140625 L 2.875 -3.328125 L 1.484375 -3.328125 Z M 3.640625 -4.140625 L 5.09375 -4.140625 L 5.09375 -3.328125 L 3.640625 -3.328125 Z M 1.484375 -5.5 L 2.875 -5.5 L 2.875 -4.703125 L 1.484375 -4.703125 Z M 3.640625 -5.5 L 5.09375 -5.5 L 5.09375 -4.703125 L 3.640625 -4.703125 Z "/>
</g>
</g>
</defs>
<g fill="rgb(30.980392%, 76.470588%, 96.862745%)" fill-opacity="1">
<use xlink:href="#glyph-0-0" x="30" y="32.887695"/>
<use xlink:href="#glyph-0-1" x="41" y="32.887695"/>
<use xlink:href="#glyph-0-2" x="52" y="32.887695"/>
<use xlink:href="#glyph-0-3" x="63" y="32.887695"/>
</g>
</svg>
