<?xml version="1.0" encoding="UTF-8"?>
<svg xmlns="http://www.w3.org/2000/svg" xmlns:xlink="http://www.w3.org/1999/xlink" width="1920" height="1080" viewBox="0 0 1920 1080">
<defs>
<g>
<g id="glyph-0-0">
<path d="M 5.265625 -4.6875 C 5.765625 -4.359375 6.34375 -3.84375 6.609375 -3.484375 L 7.15625 -3.90625 C 6.890625 -4.265625 6.296875 -4.75 5.78125 -5.078125 Z M 5.90625 -0.90625 C 7.34375 -0.390625 9.21875 0.40625 10.171875 0.921875 L 10.71875 0.34375 C 9.703125 -0.171875 7.8125 -0.9375 6.40625 -1.40625 Z M 5.09375 -3.328125 L 5.09375 -2.65625 C 5.09375 -2.515625 5.09375 -2.375 5.0625 -2.21875 L 0.546875 -2.21875 L 0.546875 -1.515625 L 4.703125 -1.515625 C 4.171875 -0.859375 3 -0.1875 0.421875 0.234375 C 0.59375 0.421875 0.8125 0.734375 0.90625 0.90625 C 4.0625 0.390625 5.265625 -0.59375 5.703125 -1.515625 L 10.625 -1.515625 L 10.625 -2.21875 L 8.765625 -2.21875 L 8.9375 -2.4375 C 8.5 -2.734375 7.65625 -3.125 7.03125 -3.359375 L 6.625 -2.859375 C 7.046875 -2.6875 7.546875 -2.4375 7.953125 -2.21875 L 5.90625 -2.21875 C 5.90625 -2.359375 5.921875 -2.5 5.921875 -2.640625 L 5.921875 -3.328125 Z M 8.578125 -6.578125 L 8.578125 -5.703125 L 4.40625 -5.703125 L 4.40625 -5.09375 L 8.578125 -5.09375 L 8.578125 -4.0625 C 8.578125 -3.9375 8.546875 -3.90625 8.40625 -3.890625 C 8.265625 -3.890625 7.8125 -3.890625 7.28125 -3.90625 C 7.390625 -3.703125 7.484375 -3.453125 7.515625 -3.265625 C 8.234375 -3.265625 8.703125 -3.25 9 -3.359375 C 9.296875 -3.46875 9.375 -3.640625 9.375 -4.03125 L 9.375 -5.09375 L 10.625 -5.09375 L 10.625 -5.703125 L 9.375 -5.703125 L 9.375 -6.578125 Z M 1.203125 -9.09375 L 1.203125 -6.796875 L 3.234375 -6.796875 L 3.234375 -5.890625 L 0.6875 -5.890625 L 0.6875 -5.203125 L 1.453125 -5.203125 L 1.453125 -5.0625 C 1.453125 -4.5625 1.296875 -3.703125 0.515625 -3.125 C 0.703125 -3.03125 1.015625 -2.859375 1.171875 -2.75 C 2.015625 -3.390625 2.203125 -4.421875 2.203125 -5.03125 L 2.203125 -5.203125 L 3.234375 -5.203125 L 3.234375 -2.875 L 4 -2.875 L 4 -9.25 L 3.234375 -9.25 L 3.234375 -7.46875 L 1.90625 -7.46875 L 1.90625 -9.09375 Z M 7.53125 -7.15625 C 7.3125 -7.0625 7.078125 -6.984375 6.828125 -6.90625 C 6.5625 -7.203125 6.171875 -7.5625 5.796875 -7.84375 L 6.4375 -8.109375 C 6.84375 -7.8125 7.25 -7.46875 7.53125 -7.15625 Z M 8.046875 -7.375 C 7.78125 -7.671875 7.40625 -7.96875 7.046875 -8.25 L 9.28125 -8.25 C 8.96875 -7.90625 8.53125 -7.625 8.046875 -7.375 Z M 7.484375 -9.359375 C 6.859375 -8.828125 5.703125 -8.296875 4.21875 -7.9375 C 4.375 -7.828125 4.5625 -7.609375 4.671875 -7.453125 L 5.28125 -7.65625 C 5.625 -7.375 6 -7.046875 6.25 -6.75 C 5.609375 -6.59375 4.9375 -6.484375 4.28125 -6.40625 C 4.40625 -6.265625 4.578125 -6.03125 4.65625 -5.890625 C 6.9375 -6.203125 9.34375 -6.90625 10.390625 -8.5 L 9.90625 -8.796875 L 9.765625 -8.765625 L 7.640625 -8.765625 C 7.859375 -8.90625 8.046875 -9.046875 8.21875 -9.203125 Z "/>
</g>
<g id="glyph-0-1">
<path d="M 3.46875 -6.328125 L 7.765625 -6.328125 L 7.765625 -5.5625 L 3.46875 -5.5625 Z M 2.6875 -6.859375 L 2.6875 -5.03125 L 8.59375 -5.03125 L 8.59375 -6.859375 Z M 2.859375 -2.875 L 8.421875 -2.875 L 8.421875 -2.265625 L 2.859375 -2.265625 Z M 2.859375 -1.765625 L 8.421875 -1.765625 L 8.421875 -1.140625 L 2.859375 -1.140625 Z M 2.859375 -3.984375 L 8.421875 -3.984375 L 8.421875 -3.375 L 2.859375 -3.375 Z M 2.0625 -4.5 L 2.0625 -0.625 L 9.25 -0.625 L 9.25 -4.5 Z M 3.890625 -0.53125 C 3.171875 -0.15625 1.828125 0.140625 0.671875 0.296875 C 0.859375 0.4375 1.15625 0.765625 1.296875 0.9375 C 2.421875 0.703125 3.84375 0.28125 4.671875 -0.21875 Z M 6.4375 -0.09375 C 7.671875 0.21875 8.90625 0.609375 9.609375 0.90625 L 10.453125 0.421875 C 9.640625 0.125 8.28125 -0.28125 7.0625 -0.5625 Z M 8.40625 -9.3125 C 8.203125 -8.96875 7.796875 -8.4375 7.5 -8.125 L 7.65625 -8.0625 L 5.953125 -8.0625 L 5.953125 -9.328125 L 5.109375 -9.328125 L 5.109375 -8.0625 L 3.390625 -8.0625 L 3.6875 -8.171875 C 3.5 -8.5 3.140625 -8.9375 2.78125 -9.25 L 2.0625 -9.015625 C 2.328125 -8.75 2.640625 -8.359375 2.828125 -8.0625 L 0.984375 -8.0625 L 0.984375 -6.125 L 1.765625 -6.125 L 1.765625 -7.453125 L 9.4375 -7.453125 L 9.4375 -6.125 L 10.25 -6.125 L 10.25 -8.0625 L 8.359375 -8.0625 C 8.625 -8.34375 8.953125 -8.703125 9.234375 -9.0625 Z "/>
</g>
<g id="glyph-0-2">
<path d="M 3.171875 -2.234375 C 2.609375 -1.4375 1.671875 -0.640625 0.796875 -0.09375 C 1.015625 0.015625 1.359375 0.28125 1.515625 0.4375 C 2.359375 -0.140625 3.359375 -1.0625 4.015625 -1.9375 Z M 7.09375 -1.90625 C 7.96875 -1.21875 9.0625 -0.25 9.59375 0.359375 L 10.3125 -0.140625 C 9.75 -0.75 8.625 -1.671875 7.75 -2.328125 Z M 7.375 -4.84375 C 7.71875 -4.515625 8.09375 -4.125 8.4375 -3.75 L 3.65625 -3.421875 C 5.203125 -4.125 6.796875 -5.015625 8.328125 -6.078125 L 7.6875 -6.625 C 7.28125 -6.328125 6.859375 -6.03125 6.40625 -5.75 L 3.65625 -5.609375 C 4.46875 -6.046875 5.265625 -6.5625 6.03125 -7.15625 L 5.328125 -7.609375 C 6.53125 -7.921875 7.65625 -8.28125 8.546875 -8.671875 L 7.9375 -9.328125 C 6.328125 -8.578125 3.46875 -7.875 0.953125 -7.421875 C 1.046875 -7.234375 1.171875 -6.9375 1.203125 -6.71875 C 2.515625 -6.953125 3.9375 -7.25 5.265625 -7.59375 C 4.328125 -6.765625 3.09375 -6.046875 2.703125 -5.84375 C 2.328125 -5.640625 2.046875 -5.53125 1.796875 -5.5 C 1.890625 -5.28125 2 -4.859375 2.03125 -4.703125 C 2.28125 -4.796875 2.65625 -4.84375 5.1875 -5 C 4.09375 -4.359375 3.140625 -3.90625 2.703125 -3.703125 C 2.03125 -3.390625 1.546875 -3.203125 1.1875 -3.171875 C 1.28125 -2.9375 1.40625 -2.546875 1.4375 -2.359375 C 1.75 -2.484375 2.1875 -2.5625 5.234375 -2.78125 L 5.234375 -0.140625 C 5.234375 -0.015625 5.203125 0.03125 5.015625 0.046875 C 4.828125 0.0625 4.21875 0.0625 3.5625 0.03125 C 3.6875 0.265625 3.828125 0.609375 3.875 0.859375 C 4.6875 0.859375 5.25 0.84375 5.609375 0.71875 C 5.984375 0.578125 6.078125 0.34375 6.078125 -0.125 L 6.078125 -2.84375 L 9.03125 -3.0625 C 9.265625 -2.78125 9.46875 -2.515625 9.625 -2.296875 L 10.328125 -2.734375 C 9.859375 -3.390625 8.90625 -4.421875 8.0625 -5.1875 Z "/>
</g>
<g id="glyph-0-3">
<path d="M 7.796875 -3.90625 L 7.796875 -0.4375 C 7.796875 0.390625 7.96875 0.640625 8.75 0.640625 C 8.890625 0.640625 9.5625 0.640625 9.703125 0.640625 C 10.390625 0.640625 10.59375 0.21875 10.65625 -1.3125 C 10.453125 -1.359375 10.109375 -1.5 9.9375 -1.640625 C 9.921875 -0.296875 9.875 -0.09375 9.625 -0.09375 C 9.5 -0.09375 8.96875 -0.09375 8.859375 -0.09375 C 8.625 -0.09375 8.578125 -0.140625 8.578125 -0.4375 L 8.578125 -3.90625 Z M 5.796875 -3.921875 C 5.734375 -1.671875 5.515625 -0.421875 3.78125 0.28125 C 3.953125 0.4375 4.1875 0.75 4.28125 0.9375 C 6.1875 0.09375 6.515625 -1.390625 6.59375 -3.921875 Z M 2.0625 -2.09375 C 2.203125 -1.328125 2.328125 -0.296875 2.359375 0.375 L 2.984375 0.25 C 2.953125 -0.421875 2.828125 -1.421875 2.671875 -2.203125 Z M 0.9375 -2.1875 C 0.828125 -1.265625 0.65625 -0.25 0.390625 0.4375 C 0.5625 0.5 0.890625 0.59375 1.03125 0.671875 C 1.265625 -0.015625 1.484375 -1.09375 1.59375 -2.0625 Z M 3.140625 -2.3125 C 3.359375 -1.703125 3.59375 -0.890625 3.6875 -0.359375 L 4.296875 -0.5625 C 4.203125 -1.09375 3.9375 -1.875 3.703125 -2.484375 Z M 6.5 -9.125 C 6.703125 -8.75 6.921875 -8.25 7.078125 -7.859375 L 4.5625 -7.859375 L 4.5625 -7.109375 L 6.5625 -7.109375 C 6.125 -6.453125 5.46875 -5.515625 5.25 -5.28125 C 5.046875 -5.09375 4.765625 -5.015625 4.578125 -4.953125 C 4.65625 -4.78125 4.8125 -4.375 4.84375 -4.171875 C 5.125 -4.28125 5.578125 -4.359375 9.390625 -4.71875 C 9.578125 -4.421875 9.734375 -4.140625 9.84375 -3.921875 L 10.515625 -4.296875 C 10.1875 -4.9375 9.46875 -5.984375 8.859375 -6.75 L 8.234375 -6.4375 C 8.46875 -6.109375 8.75 -5.734375 8.984375 -5.359375 L 6.109375 -5.125 C 6.53125 -5.703125 7.09375 -6.484375 7.5 -7.109375 L 10.453125 -7.109375 L 10.453125 -7.859375 L 7.9375 -7.859375 C 7.78125 -8.265625 7.484375 -8.875 7.234375 -9.34375 Z M 0.734375 -2.671875 C 0.953125 -2.78125 1.28125 -2.859375 3.71875 -3.21875 C 3.78125 -2.984375 3.828125 -2.78125 3.859375 -2.59375 L 4.5625 -2.828125 C 4.4375 -3.421875 4.125 -4.40625 3.828125 -5.125 L 3.15625 -4.953125 C 3.28125 -4.625 3.421875 -4.25 3.53125 -3.859375 L 1.75 -3.625 C 2.65625 -4.640625 3.546875 -5.921875 4.28125 -7.203125 L 3.5625 -7.609375 C 3.328125 -7.125 3.046875 -6.625 2.75 -6.171875 L 1.53125 -6.0625 C 2.15625 -6.90625 2.78125 -7.984375 3.25 -9.03125 L 2.484375 -9.359375 C 2.015625 -8.15625 1.25 -6.890625 1.015625 -6.5625 C 0.78125 -6.21875 0.578125 -5.984375 0.390625 -5.9375 C 0.484375 -5.734375 0.609375 -5.34375 0.65625 -5.171875 C 0.828125 -5.25 1.0625 -5.296875 2.265625 -5.4375 C 1.84375 -4.828125 1.484375 -4.359375 1.296875 -4.171875 C 0.953125 -3.765625 0.703125 -3.484375 0.46875 -3.4375 C 0.5625 -3.21875 0.6875 -2.828125 0.734375 -2.671875 Z "/>
</g>
</g>
</defs>
<g fill="rgb(30.980392%, 76.470588%, 96.862745%)" fill-opacity="1">
<use xlink:href="#glyph-0-0" x="30" y="32.887695"/>
<use xlink:href="#glyph-0-1" x="41" y="32.887695"/>
<use xlink:href="#glyph-0-2" x="52" y="32.887695"/>
<use xlink:href="#glyph-0-3" x="63" y="32.887695"/>
</g>
</svg>
