<?xml version="1.0" encoding="UTF-8"?>
<svg xmlns="http://www.w3.org/2000/svg" xmlns:xlink="http://www.w3.org/1999/xlink" width="1920" height="1080" viewBox="0 0 1920 1080">
<defs>
<g>
<g id="glyph-0-0">
<path d="M 1.078125 -2.46875 L 1.078125 0.546875 L 1.59375 0.546875 L 1.59375 0.1875 L 5.078125 0.1875 L 5.078125 0.515625 L 5.609375 0.515625 L 5.609375 -2.46875 L 3.609375 -2.46875 L 3.609375 -3.90625 L 6.328125 -3.90625 L 6.328125 -4.390625 L 3.609375 -4.390625 L 3.609375 -5.609375 L 3.0625 -5.609375 L 3.0625 -4.390625 L 0.359375 -4.390625 L 0.359375 -3.90625 L 3.0625 -3.90625 L 3.0625 -2.46875 Z M 1.59375 -0.296875 L 1.59375 -1.984375 L 5.078125 -1.984375 L 5.078125 -0.296875 Z "/>
</g>
<g id="glyph-0-1">
<path d="M 3.96875 -0.59375 C 4.65625 -0.25 5.390625 0.1875 5.828125 0.5 L 6.265625 0.171875 C 5.796875 -0.15625 5.03125 -0.59375 4.3125 -0.921875 Z M 2.265625 -0.921875 C 1.859375 -0.546875 1.015625 -0.078125 0.328125 0.171875 C 0.453125 0.265625 0.625 0.4375 0.703125 0.546875 C 1.390625 0.265625 2.21875 -0.1875 2.734375 -0.625 Z M 2.375 -1.515625 L 1.421875 -1.515625 L 1.421875 -2.734375 L 2.375 -2.734375 Z M 2.84375 -1.515625 L 2.84375 -2.734375 L 3.828125 -2.734375 L 3.828125 -1.515625 Z M 4.296875 -1.515625 L 4.296875 -2.734375 L 5.296875 -2.734375 L 5.296875 -1.515625 Z M 0.9375 -4.796875 L 0.9375 -1.515625 L 0.265625 -1.515625 L 0.265625 -1.03125 L 6.40625 -1.03125 L 6.40625 -1.515625 L 5.796875 -1.515625 L 5.796875 -4.796875 L 4.296875 -4.796875 L 4.296875 -5.625 L 3.828125 -5.625 L 3.828125 -4.796875 L 2.84375 -4.796875 L 2.84375 -5.625 L 2.375 -5.625 L 2.375 -4.796875 Z M 2.375 -3.203125 L 1.421875 -3.203125 L 1.421875 -4.328125 L 2.375 -4.328125 Z M 2.84375 -3.203125 L 2.84375 -4.328125 L 3.828125 -4.328125 L 3.828125 -3.203125 Z M 4.296875 -3.203125 L 4.296875 -4.328125 L 5.296875 -4.328125 L 5.296875 -3.203125 Z "/>
</g>
<g id="glyph-0-2">
<path d="M 3.5625 -5.609375 C 3.34375 -4.59375 2.9375 -3.640625 2.375 -3.03125 C 2.5 -2.96875 2.6875 -2.828125 2.765625 -2.734375 C 3.0625 -3.078125 3.3125 -3.515625 3.53125 -4.015625 L 4.109375 -4.015625 C 3.796875 -2.9375 3.203125 -1.828125 2.5 -1.265625 C 2.640625 -1.1875 2.796875 -1.0625 2.890625 -0.96875 C 3.625 -1.609375 4.234375 -2.859375 4.546875 -4.015625 L 5.09375 -4.015625 C 4.75 -2.328125 4.015625 -0.671875 2.921875 0.125 C 3.0625 0.1875 3.25 0.3125 3.34375 0.421875 C 4.453125 -0.453125 5.1875 -2.25 5.53125 -4.015625 L 5.84375 -4.015625 C 5.71875 -1.359375 5.5625 -0.359375 5.34375 -0.125 C 5.28125 -0.03125 5.203125 -0.015625 5.09375 -0.015625 C 4.96875 -0.015625 4.703125 -0.015625 4.40625 -0.046875 C 4.484375 0.09375 4.53125 0.3125 4.546875 0.453125 C 4.84375 0.46875 5.125 0.46875 5.296875 0.453125 C 5.5 0.421875 5.640625 0.375 5.765625 0.1875 C 6.03125 -0.140625 6.1875 -1.1875 6.328125 -4.234375 C 6.34375 -4.296875 6.34375 -4.484375 6.34375 -4.484375 L 3.71875 -4.484375 C 3.84375 -4.8125 3.9375 -5.15625 4.015625 -5.515625 Z M 0.65625 -5.21875 C 0.578125 -4.390625 0.4375 -3.546875 0.1875 -2.984375 C 0.296875 -2.9375 0.5 -2.828125 0.578125 -2.765625 C 0.6875 -3.03125 0.78125 -3.375 0.875 -3.75 L 1.484375 -3.75 L 1.484375 -2.25 C 1.015625 -2.109375 0.578125 -1.984375 0.234375 -1.90625 L 0.359375 -1.421875 L 1.484375 -1.765625 L 1.484375 0.53125 L 1.953125 0.53125 L 1.953125 -1.921875 L 2.78125 -2.1875 L 2.71875 -2.625 L 1.953125 -2.390625 L 1.953125 -3.75 L 2.640625 -3.75 L 2.640625 -4.234375 L 1.953125 -4.234375 L 1.953125 -5.59375 L 1.484375 -5.59375 L 1.484375 -4.234375 L 0.953125 -4.234375 C 1 -4.53125 1.046875 -4.84375 1.09375 -5.15625 Z "/>
</g>
<g id="glyph-0-3">
<path d="M 3.171875 -3.609375 L 4.203125 -3.609375 L 4.203125 -2.734375 L 3.171875 -2.734375 Z M 4.625 -3.609375 L 5.65625 -3.609375 L 5.65625 -2.734375 L 4.625 -2.734375 Z M 3.171875 -4.859375 L 4.203125 -4.859375 L 4.203125 -4.015625 L 3.171875 -4.015625 Z M 4.625 -4.859375 L 5.65625 -4.859375 L 5.65625 -4.015625 L 4.625 -4.015625 Z M 2.125 -0.140625 L 2.125 0.3125 L 6.453125 0.3125 L 6.453125 -0.140625 L 4.671875 -0.140625 L 4.671875 -1.0625 L 6.21875 -1.0625 L 6.21875 -1.515625 L 4.671875 -1.515625 L 4.671875 -2.3125 L 6.125 -2.3125 L 6.125 -5.296875 L 2.71875 -5.296875 L 2.71875 -2.3125 L 4.15625 -2.3125 L 4.15625 -1.515625 L 2.640625 -1.515625 L 2.640625 -1.0625 L 4.15625 -1.0625 L 4.15625 -0.140625 Z M 0.234375 -0.671875 L 0.359375 -0.15625 C 0.953125 -0.359375 1.71875 -0.609375 2.4375 -0.859375 L 2.34375 -1.34375 L 1.609375 -1.09375 L 1.609375 -2.75 L 2.28125 -2.75 L 2.28125 -3.21875 L 1.609375 -3.21875 L 1.609375 -4.6875 L 2.390625 -4.6875 L 2.390625 -5.15625 L 0.3125 -5.15625 L 0.3125 -4.6875 L 1.140625 -4.6875 L 1.140625 -3.21875 L 0.375 -3.21875 L 0.375 -2.75 L 1.140625 -2.75 L 1.140625 -0.9375 C 0.796875 -0.828125 0.484375 -0.734375 0.234375 -0.671875 Z "/>
</g>
</g>
</defs>
<g fill="rgb(50.588235%, 78.039216%, 51.764706%)" fill-opacity="1">
<use xlink:href="#glyph-0-0" x="30" y="27.733398"/>
<use xlink:href="#glyph-0-1" x="37" y="27.733398"/>
<use xlink:href="#glyph-0-2" x="44" y="27.733398"/>
<use xlink:href="#glyph-0-3" x="51" y="27.733398"/>
</g>
</svg>
