<?xml version="1.0" encoding="UTF-8"?>
<svg xmlns="http://www.w3.org/2000/svg" xmlns:xlink="http://www.w3.org/1999/xlink" width="1920" height="1080" viewBox="0 0 1920 1080">
<defs>
<g>
<g id="glyph-0-0">
<path d="M 0.3125 0 L 3.640625 0 L 3.640625 -0.5625 L 2.1875 -0.5625 C 1.90625 -0.5625 1.59375 -0.546875 1.3125 -0.515625 C 2.5625 -1.703125 3.390625 -2.765625 3.390625 -3.828125 C 3.390625 -4.765625 2.796875 -5.390625 1.84375 -5.390625 C 1.171875 -5.390625 0.71875 -5.078125 0.28125 -4.609375 L 0.671875 -4.234375 C 0.96875 -4.59375 1.328125 -4.84375 1.765625 -4.84375 C 2.421875 -4.84375 2.75 -4.40625 2.75 -3.796875 C 2.75 -2.890625 1.984375 -1.84375 0.3125 -0.390625 Z "/>
</g>
<g id="glyph-0-1">
<path d="M 1 0.09375 C 1.265625 0.09375 1.484375 -0.109375 1.484375 -0.40625 C 1.484375 -0.703125 1.265625 -0.90625 1 -0.90625 C 0.734375 -0.90625 0.53125 -0.703125 0.53125 -0.40625 C 0.53125 -0.109375 0.734375 0.09375 1 0.09375 Z "/>
</g>
<g id="glyph-0-2">
</g>
<g id="glyph-0-3">
<path d="M 1.703125 -4.328125 L 1.703125 -3.9375 L 4.390625 -3.9375 L 4.390625 -4.328125 Z M 2.171875 -1.40625 L 2.171875 -0.09375 C 2.171875 0.375 2.296875 0.484375 2.828125 0.484375 C 2.9375 0.484375 3.5625 0.484375 3.6875 0.484375 C 4.125 0.484375 4.25 0.28125 4.296875 -0.5625 C 4.171875 -0.59375 3.984375 -0.671875 3.890625 -0.75 C 3.875 -0.015625 3.84375 0.09375 3.640625 0.09375 C 3.5 0.09375 2.96875 0.09375 2.875 0.09375 C 2.65625 0.09375 2.625 0.0625 2.625 -0.09375 L 2.625 -1.40625 Z M 2.734375 -1.65625 C 2.96875 -1.328125 3.25 -0.859375 3.375 -0.578125 L 3.75 -0.765625 C 3.609375 -1.046875 3.3125 -1.484375 3.078125 -1.8125 Z M 4.1875 -1.21875 C 4.421875 -0.75 4.6875 -0.09375 4.828125 0.28125 L 5.234375 0.09375 C 5.09375 -0.265625 4.8125 -0.890625 4.5625 -1.359375 Z M 1.59375 -1.3125 C 1.515625 -0.859375 1.375 -0.25 1.1875 0.125 L 1.546875 0.3125 C 1.75 -0.09375 1.890625 -0.71875 1.96875 -1.1875 Z M 2.3125 -3.0625 L 3.796875 -3.0625 L 3.796875 -2.234375 L 2.3125 -2.234375 Z M 1.859375 -3.453125 L 1.859375 -1.84375 L 4.15625 -1.84375 L 4.09375 -1.8125 C 4.203125 -1.71875 4.390625 -1.53125 4.46875 -1.4375 C 4.6875 -1.609375 4.90625 -1.796875 5.109375 -2 C 5.390625 -0.5 5.8125 0.546875 6.34375 0.546875 C 6.796875 0.546875 6.96875 0.203125 7.046875 -0.953125 C 6.921875 -1.015625 6.75 -1.125 6.640625 -1.234375 C 6.609375 -0.375 6.53125 0.03125 6.421875 0.03125 C 6.140625 0.03125 5.78125 -0.96875 5.53125 -2.46875 C 5.953125 -3 6.328125 -3.625 6.578125 -4.296875 L 6.109375 -4.4375 C 5.9375 -3.96875 5.703125 -3.53125 5.4375 -3.140625 C 5.359375 -3.671875 5.3125 -4.25 5.28125 -4.84375 L 6.828125 -4.84375 L 6.828125 -5.3125 L 6.25 -5.3125 L 6.5625 -5.5625 C 6.359375 -5.71875 6.015625 -5.96875 5.75 -6.140625 L 5.421875 -5.890625 C 5.671875 -5.71875 6 -5.46875 6.1875 -5.3125 L 5.265625 -5.3125 L 5.25 -6.0625 L 4.734375 -6.0625 L 4.75 -5.3125 L 0.859375 -5.3125 L 0.859375 -3.796875 C 0.859375 -2.640625 0.8125 -0.9375 0.234375 0.296875 C 0.34375 0.34375 0.5625 0.5 0.671875 0.578125 C 1.265625 -0.703125 1.359375 -2.578125 1.359375 -3.796875 L 1.359375 -4.84375 L 4.78125 -4.84375 C 4.828125 -4.0625 4.90625 -3.296875 5 -2.59375 C 4.765625 -2.34375 4.515625 -2.109375 4.25 -1.90625 L 4.25 -3.453125 Z "/>
</g>
<g id="glyph-0-4">
<path d="M 3.953125 -5.4375 L 3.953125 0.375 L 4.46875 0.375 L 4.46875 -0.203125 L 6 -0.203125 L 6 0.28125 L 6.5625 0.28125 L 6.5625 -5.4375 Z M 4.46875 -0.71875 L 4.46875 -4.921875 L 6 -4.921875 L 6 -0.71875 Z M 1.140625 -6.078125 C 0.96875 -5.1875 0.671875 -4.328125 0.234375 -3.765625 C 0.359375 -3.6875 0.578125 -3.53125 0.671875 -3.453125 C 0.890625 -3.765625 1.09375 -4.15625 1.265625 -4.59375 L 1.8125 -4.59375 L 1.8125 -3.140625 L 0.328125 -3.140625 L 0.328125 -2.625 L 1.78125 -2.625 C 1.6875 -1.671875 1.34375 -0.625 0.25 0.15625 C 0.359375 0.234375 0.5625 0.453125 0.625 0.5625 C 1.453125 -0.03125 1.890625 -0.8125 2.125 -1.59375 C 2.515625 -1.140625 3.078125 -0.453125 3.328125 -0.09375 L 3.703125 -0.5625 C 3.484375 -0.8125 2.59375 -1.796875 2.25 -2.140625 C 2.28125 -2.296875 2.3125 -2.46875 2.328125 -2.625 L 3.71875 -2.625 L 3.71875 -3.140625 L 2.359375 -3.140625 L 2.359375 -4.59375 L 3.515625 -4.59375 L 3.515625 -5.09375 L 1.4375 -5.09375 C 1.515625 -5.375 1.59375 -5.671875 1.65625 -5.96875 Z "/>
</g>
<g id="glyph-0-5">
<path d="M 5.859375 -2.984375 L 0.28125 -2.984375 L 0.28125 -2.5 L 5.859375 -2.5 C 5.484375 -2.21875 5.015625 -1.765625 4.6875 -1.3125 L 5.125 -1.0625 C 5.609375 -1.703125 6.328125 -2.328125 6.96875 -2.75 C 6.328125 -3.15625 5.609375 -3.796875 5.125 -4.421875 L 4.6875 -4.171875 C 5.015625 -3.71875 5.484375 -3.265625 5.859375 -2.984375 Z "/>
</g>
<g id="glyph-0-6">
<path d="M 3.140625 -5.625 L 3.140625 -5.109375 L 6.6875 -5.109375 L 6.6875 -5.625 Z M 1.921875 -6.078125 C 1.5625 -5.546875 0.859375 -4.90625 0.25 -4.484375 C 0.34375 -4.390625 0.5 -4.1875 0.5625 -4.0625 C 1.21875 -4.515625 1.96875 -5.21875 2.453125 -5.859375 Z M 2.828125 -3.640625 L 2.828125 -3.125 L 5.25 -3.125 L 5.25 -0.125 C 5.25 0 5.203125 0.03125 5.0625 0.03125 C 4.9375 0.046875 4.453125 0.046875 3.9375 0.015625 C 4.015625 0.1875 4.09375 0.40625 4.109375 0.5625 C 4.828125 0.5625 5.234375 0.5625 5.484375 0.46875 C 5.71875 0.375 5.796875 0.21875 5.796875 -0.109375 L 5.796875 -3.125 L 6.890625 -3.125 L 6.890625 -3.640625 Z M 2.21875 -4.515625 C 1.71875 -3.703125 0.921875 -2.859375 0.1875 -2.328125 C 0.28125 -2.21875 0.484375 -1.984375 0.5625 -1.875 C 0.828125 -2.09375 1.109375 -2.34375 1.390625 -2.625 L 1.390625 0.59375 L 1.921875 0.59375 L 1.921875 -3.21875 C 2.21875 -3.578125 2.5 -3.953125 2.734375 -4.328125 Z "/>
</g>
<g id="glyph-0-7">
<path d="M 4.609375 -1.34375 C 4.828125 -1.046875 5.046875 -0.640625 5.125 -0.375 L 5.53125 -0.53125 C 5.4375 -0.796875 5.21875 -1.203125 4.984375 -1.5 Z M 1.484375 -5.84375 C 1.765625 -5.546875 2.0625 -5.125 2.1875 -4.84375 L 2.6875 -5.078125 C 2.546875 -5.34375 2.234375 -5.765625 1.953125 -6.046875 Z M 2.46875 -1.171875 C 2.59375 -0.703125 2.671875 -0.109375 2.65625 0.28125 L 3.125 0.203125 C 3.125 -0.1875 3.046875 -0.765625 2.90625 -1.234375 Z M 3.53125 -1.234375 C 3.703125 -0.84375 3.875 -0.3125 3.921875 0.03125 L 4.375 -0.09375 C 4.3125 -0.421875 4.140625 -0.953125 3.953125 -1.328125 Z M 1.53125 -1.328125 C 1.40625 -0.78125 1.125 -0.140625 0.71875 0.25 L 1.140625 0.53125 C 1.578125 0.09375 1.828125 -0.59375 2 -1.1875 Z M 3.671875 -6.078125 C 3.546875 -5.65625 3.390625 -5.234375 3.21875 -4.828125 L 0.59375 -4.828125 L 0.59375 -4.328125 L 2.96875 -4.328125 C 2.359375 -3.125 1.4375 -2.03125 0.21875 -1.328125 C 0.3125 -1.21875 0.453125 -1 0.515625 -0.875 C 0.9375 -1.125 1.328125 -1.421875 1.6875 -1.734375 L 6.171875 -1.734375 C 6.0625 -0.59375 5.9375 -0.109375 5.78125 0.03125 C 5.71875 0.09375 5.640625 0.109375 5.515625 0.109375 C 5.375 0.109375 5.03125 0.109375 4.65625 0.078125 C 4.75 0.21875 4.8125 0.421875 4.828125 0.5625 C 5.203125 0.59375 5.546875 0.59375 5.734375 0.578125 C 5.953125 0.5625 6.09375 0.515625 6.234375 0.375 C 6.453125 0.140625 6.59375 -0.46875 6.734375 -1.984375 C 6.734375 -2.0625 6.75 -2.21875 6.75 -2.21875 L 5.96875 -2.21875 C 6.0625 -2.59375 6.15625 -3.09375 6.234375 -3.515625 L 5.421875 -3.515625 C 5.515625 -3.890625 5.609375 -4.390625 5.703125 -4.828125 L 3.796875 -4.828125 C 3.953125 -5.1875 4.09375 -5.5625 4.21875 -5.9375 Z M 2.15625 -2.21875 C 2.390625 -2.46875 2.625 -2.75 2.828125 -3.046875 L 5.640625 -3.046875 C 5.59375 -2.75 5.515625 -2.46875 5.453125 -2.21875 Z M 3.578125 -4.328125 L 5.09375 -4.328125 C 5.03125 -4.046875 4.96875 -3.75 4.90625 -3.515625 L 3.140625 -3.515625 C 3.296875 -3.78125 3.4375 -4.0625 3.578125 -4.328125 Z "/>
</g>
</g>
</defs>
<g fill="rgb(100%, 71.764706%, 30.196078%)" fill-opacity="1">
<use xlink:href="#glyph-0-0" x="30" y="28.37793"/>
<use xlink:href="#glyph-0-1" x="34" y="28.37793"/>
<use xlink:href="#glyph-0-2" x="36" y="28.37793"/>
<use xlink:href="#glyph-0-3" x="38" y="28.37793"/>
<use xlink:href="#glyph-0-4" x="45" y="28.37793"/>
<use xlink:href="#glyph-0-2" x="52" y="28.37793"/>
<use xlink:href="#glyph-0-5" x="54" y="28.37793"/>
<use xlink:href="#glyph-0-2" x="61" y="28.37793"/>
<use xlink:href="#glyph-0-6" x="63" y="28.37793"/>
<use xlink:href="#glyph-0-7" x="70" y="28.37793"/>
</g>
</svg>
