<?xml version="1.0" encoding="UTF-8"?>
<svg xmlns="http://www.w3.org/2000/svg" xmlns:xlink="http://www.w3.org/1999/xlink" width="1920" height="1080" viewBox="0 0 1920 1080">
<defs>
<g>
<g id="glyph-0-0">
<path d="M 0.59375 -2.09375 L 0.8125 -1.03125 L 4.28125 -1.65625 L 4.28125 1.25 L 5.296875 1.25 L 5.296875 -11.34375 L 5.90625 -11.34375 L 5.90625 -12.40625 L 0.75 -12.40625 L 0.75 -11.34375 L 1.53125 -11.34375 L 1.53125 -2.234375 Z M 2.5 -11.34375 L 4.28125 -11.34375 L 4.28125 -9.140625 L 2.5 -9.140625 Z M 2.5 -8.15625 L 4.28125 -8.15625 L 4.28125 -5.921875 L 2.5 -5.921875 Z M 2.5 -4.9375 L 4.28125 -4.9375 L 4.28125 -2.65625 L 2.5 -2.375 Z M 5.9375 -5.734375 C 6.171875 -5.859375 6.578125 -5.9375 9.3125 -6.265625 L 9.53125 -5.46875 L 10.28125 -5.734375 C 10.140625 -6.328125 9.796875 -7.453125 9.5 -8.265625 L 8.765625 -8.078125 L 9.09375 -7.046875 L 7.0625 -6.84375 C 8.015625 -7.90625 8.984375 -9.296875 9.8125 -10.6875 L 9 -11.140625 C 8.765625 -10.671875 8.484375 -10.21875 8.203125 -9.78125 L 7.015625 -9.734375 C 7.609375 -10.484375 8.234375 -11.515625 8.75 -12.5625 L 7.84375 -12.953125 C 7.421875 -11.796875 6.625 -10.640625 6.421875 -10.328125 C 6.1875 -10.015625 5.984375 -9.828125 5.78125 -9.78125 C 5.875 -9.515625 6.015625 -8.96875 6.0625 -8.71875 C 6.234375 -8.8125 6.5 -8.875 7.640625 -8.953125 C 7.171875 -8.28125 6.765625 -7.765625 6.578125 -7.5625 C 6.21875 -7.140625 5.921875 -6.84375 5.671875 -6.796875 C 5.78125 -6.5 5.90625 -5.953125 5.9375 -5.734375 Z M 10.625 -5.8125 C 10.859375 -5.9375 11.28125 -6.015625 14.03125 -6.40625 L 14.296875 -5.5625 L 15.046875 -5.859375 C 14.859375 -6.515625 14.40625 -7.625 14.03125 -8.46875 L 13.328125 -8.25 L 13.75 -7.15625 L 11.75 -6.9375 C 12.609375 -7.984375 13.453125 -9.34375 14.15625 -10.703125 L 13.34375 -11.140625 C 13.15625 -10.703125 12.921875 -10.265625 12.703125 -9.859375 L 11.46875 -9.796875 C 12.015625 -10.53125 12.609375 -11.515625 13.078125 -12.5 L 12.25 -12.890625 C 11.828125 -11.78125 11.078125 -10.625 10.84375 -10.328125 C 10.640625 -10.03125 10.4375 -9.84375 10.234375 -9.8125 C 10.34375 -9.5625 10.453125 -9.03125 10.515625 -8.796875 C 10.671875 -8.875 10.96875 -8.953125 12.203125 -9.046875 C 11.765625 -8.34375 11.375 -7.8125 11.1875 -7.59375 C 10.875 -7.171875 10.59375 -6.890625 10.34375 -6.84375 C 10.46875 -6.5625 10.578125 -6.03125 10.625 -5.8125 Z M 6.5 -5.375 L 6.5 -1.921875 L 8.703125 -1.921875 C 8.5 -1.015625 7.921875 -0.125 6.4375 0.5625 C 6.640625 0.71875 6.96875 1.140625 7.09375 1.375 C 9.359375 0.28125 9.8125 -1.453125 9.8125 -2.953125 L 9.8125 -5.375 L 8.8125 -5.375 L 8.8125 -2.921875 L 7.484375 -2.921875 L 7.484375 -5.375 Z M 13.234375 -5.25 L 13.234375 -2.953125 L 11.890625 -2.953125 L 11.890625 -5.390625 L 10.875 -5.390625 L 10.875 1.28125 L 11.890625 1.28125 L 11.890625 -1.9375 L 13.234375 -1.9375 L 13.234375 -1.34375 L 14.1875 -1.34375 L 14.1875 -5.25 Z "/>
</g>
<g id="glyph-0-1">
<path d="M 4.40625 -3.109375 L 4.40625 -0.625 C 4.40625 0.59375 4.84375 0.921875 6.546875 0.921875 C 6.890625 0.921875 9.421875 0.921875 9.78125 0.921875 C 11.21875 0.921875 11.5625 0.4375 11.71875 -1.53125 C 11.390625 -1.59375 10.921875 -1.765625 10.65625 -1.953125 C 10.578125 -0.359375 10.46875 -0.15625 9.71875 -0.15625 C 9.140625 -0.15625 7.03125 -0.15625 6.609375 -0.15625 C 5.71875 -0.15625 5.546875 -0.21875 5.546875 -0.640625 L 5.546875 -3.109375 Z M 6.4375 -3.640625 C 7.171875 -2.921875 8.109375 -1.9375 8.578125 -1.34375 L 9.4375 -2.03125 C 8.953125 -2.609375 7.984375 -3.578125 7.25 -4.25 Z M 11.9375 -3.125 C 12.5625 -2.09375 13.375 -0.734375 13.734375 0.078125 L 14.828125 -0.453125 C 14.4375 -1.25 13.609375 -2.59375 12.96875 -3.578125 Z M 2.1875 -3.296875 C 1.90625 -2.25 1.359375 -0.921875 0.71875 -0.09375 L 1.75 0.4375 C 2.375 -0.4375 2.890625 -1.84375 3.203125 -2.890625 Z M 9.046875 -8.9375 L 12.9375 -8.9375 L 12.9375 -7.46875 L 9.046875 -7.46875 Z M 9.046875 -6.546875 L 12.9375 -6.546875 L 12.9375 -5.078125 L 9.046875 -5.078125 Z M 9.046875 -11.28125 L 12.9375 -11.28125 L 12.9375 -9.84375 L 9.046875 -9.84375 Z M 7.96875 -12.25 L 7.96875 -4.125 L 14.046875 -4.125 L 14.046875 -12.25 Z M 3.703125 -13.046875 L 3.703125 -10.734375 L 0.859375 -10.734375 L 0.859375 -9.734375 L 3.5 -9.734375 C 2.8125 -8.140625 1.65625 -6.515625 0.5 -5.71875 C 0.75 -5.515625 1.09375 -5.140625 1.28125 -4.875 C 2.125 -5.609375 3.015625 -6.78125 3.703125 -8.078125 L 3.703125 -3.96875 L 4.828125 -3.96875 L 4.828125 -7.75 C 5.515625 -7.1875 6.375 -6.421875 6.78125 -6.015625 L 7.421875 -6.96875 C 7.015625 -7.296875 5.453125 -8.453125 4.828125 -8.859375 L 4.828125 -9.734375 L 7.296875 -9.734375 L 7.296875 -10.734375 L 4.828125 -10.734375 L 4.828125 -13.046875 Z "/>
</g>
</g>
</defs>
<g fill="rgb(30.980392%, 76.470588%, 96.862745%)" fill-opacity="1">
<use xlink:href="#glyph-0-0" x="30" y="38.044922"/>
<use xlink:href="#glyph-0-1" x="46" y="38.044922"/>
</g>
</svg>
